%FSLAX24Y24*%
%MOIN*%
G70*
G01*
G75*
G04 Layer_Color=8388736*
%ADD10C,0.0079*%
%ADD11R,0.0300X0.0300*%
%ADD12R,0.0300X0.0300*%
%ADD13R,0.0492X0.0768*%
%ADD14R,0.0276X0.0079*%
%ADD15R,0.1437X0.1437*%
%ADD16R,0.0079X0.0276*%
%ADD17R,0.0236X0.0394*%
%ADD18R,0.1378X0.0846*%
%ADD19R,0.0433X0.0846*%
%ADD20R,0.0433X0.0846*%
%ADD21R,0.0433X0.0236*%
%ADD22R,0.0500X0.0400*%
%ADD23O,0.0512X0.0138*%
%ADD24R,0.0400X0.0500*%
%ADD25R,0.0787X0.0472*%
%ADD26C,0.0118*%
%ADD27R,0.1400X0.0900*%
%ADD28R,0.1140X0.0550*%
%ADD29R,0.1400X0.1550*%
%ADD30C,0.1969*%
%ADD31C,0.1181*%
%ADD32C,0.1575*%
%ADD33O,0.0709X0.0787*%
%ADD34C,0.0600*%
%ADD35O,0.0472X0.0551*%
%ADD36R,0.0709X0.0709*%
%ADD37C,0.0709*%
%ADD38C,0.0236*%
%ADD39C,0.0197*%
%ADD40C,0.0039*%
%ADD41C,0.0098*%
%ADD42C,0.0100*%
%ADD43C,0.0090*%
%ADD44C,0.0050*%
%ADD45R,0.0380X0.0380*%
%ADD46R,0.0380X0.0380*%
%ADD47R,0.0572X0.0848*%
%ADD48R,0.0356X0.0159*%
%ADD49R,0.1517X0.1517*%
%ADD50R,0.0159X0.0356*%
%ADD51R,0.0316X0.0474*%
%ADD52R,0.1458X0.0926*%
%ADD53R,0.0513X0.0926*%
%ADD54R,0.0513X0.0926*%
%ADD55R,0.0513X0.0316*%
%ADD56R,0.0580X0.0480*%
%ADD57O,0.0592X0.0218*%
%ADD58R,0.0480X0.0580*%
%ADD59R,0.0867X0.0552*%
%ADD60C,0.2049*%
%ADD61C,0.1261*%
%ADD62C,0.1655*%
%ADD63O,0.0789X0.0867*%
%ADD64C,0.0680*%
%ADD65O,0.0552X0.0631*%
%ADD66R,0.0789X0.0789*%
%ADD67C,0.0789*%
%ADD68C,0.0316*%
%ADD69C,0.0277*%
G36*
X2647Y10832D02*
X2651D01*
X2661Y10832D01*
X2673Y10830D01*
X2685Y10828D01*
X2697Y10825D01*
X2710Y10821D01*
X2711D01*
X2711Y10820D01*
X2715Y10819D01*
X2721Y10816D01*
X2729Y10812D01*
X2738Y10808D01*
X2747Y10802D01*
X2757Y10795D01*
X2766Y10787D01*
X2767Y10786D01*
X2770Y10783D01*
X2774Y10778D01*
X2779Y10772D01*
X2785Y10764D01*
X2791Y10755D01*
X2796Y10745D01*
X2801Y10734D01*
Y10733D01*
X2802Y10732D01*
X2803Y10728D01*
X2805Y10722D01*
X2807Y10713D01*
X2809Y10703D01*
X2811Y10691D01*
X2813Y10678D01*
X2813Y10664D01*
Y10664D01*
Y10662D01*
Y10660D01*
Y10658D01*
X2813Y10650D01*
X2812Y10641D01*
X2811Y10630D01*
X2808Y10619D01*
X2805Y10607D01*
X2801Y10595D01*
Y10594D01*
X2801Y10593D01*
X2799Y10589D01*
X2796Y10583D01*
X2792Y10576D01*
X2787Y10568D01*
X2781Y10559D01*
X2774Y10550D01*
X2766Y10541D01*
X2765Y10541D01*
X2762Y10538D01*
X2757Y10534D01*
X2750Y10529D01*
X2742Y10523D01*
X2733Y10517D01*
X2722Y10512D01*
X2710Y10507D01*
X2709D01*
X2709Y10506D01*
X2707Y10505D01*
X2704Y10505D01*
X2697Y10503D01*
X2689Y10501D01*
X2678Y10499D01*
X2665Y10497D01*
X2651Y10495D01*
X2637Y10495D01*
X2630D01*
X2622Y10495D01*
X2613Y10496D01*
X2601Y10497D01*
X2589Y10500D01*
X2577Y10503D01*
X2564Y10507D01*
X2563D01*
X2563Y10507D01*
X2559Y10509D01*
X2553Y10512D01*
X2545Y10516D01*
X2536Y10521D01*
X2527Y10527D01*
X2518Y10533D01*
X2509Y10541D01*
X2508Y10543D01*
X2505Y10545D01*
X2501Y10550D01*
X2496Y10556D01*
X2490Y10564D01*
X2485Y10573D01*
X2479Y10583D01*
X2474Y10595D01*
Y10595D01*
X2474Y10596D01*
X2472Y10600D01*
X2470Y10607D01*
X2468Y10615D01*
X2466Y10625D01*
X2464Y10637D01*
X2462Y10650D01*
X2462Y10664D01*
Y10665D01*
Y10666D01*
Y10668D01*
Y10671D01*
X2462Y10678D01*
X2463Y10687D01*
X2465Y10698D01*
X2467Y10710D01*
X2470Y10722D01*
X2474Y10734D01*
Y10734D01*
X2475Y10735D01*
X2476Y10739D01*
X2479Y10745D01*
X2483Y10752D01*
X2488Y10760D01*
X2494Y10770D01*
X2501Y10778D01*
X2509Y10787D01*
X2510Y10788D01*
X2513Y10790D01*
X2518Y10794D01*
X2524Y10800D01*
X2532Y10805D01*
X2541Y10810D01*
X2552Y10816D01*
X2564Y10821D01*
X2565D01*
X2565Y10822D01*
X2567Y10822D01*
X2570Y10823D01*
X2577Y10825D01*
X2585Y10827D01*
X2596Y10829D01*
X2609Y10831D01*
X2622Y10832D01*
X2637Y10833D01*
X2643D01*
X2647Y10832D01*
D02*
G37*
G36*
X2808Y11138D02*
Y11137D01*
Y11135D01*
X2807Y11133D01*
X2806Y11129D01*
X2805Y11126D01*
X2802Y11122D01*
X2798Y11119D01*
X2793Y11117D01*
X2761Y11110D01*
X2762Y11109D01*
X2763Y11108D01*
X2765Y11106D01*
X2768Y11103D01*
X2775Y11096D01*
X2783Y11087D01*
X2783Y11087D01*
X2784Y11085D01*
X2786Y11083D01*
X2788Y11080D01*
X2793Y11072D01*
X2799Y11063D01*
Y11062D01*
X2801Y11061D01*
X2801Y11057D01*
X2803Y11054D01*
X2805Y11050D01*
X2807Y11045D01*
X2809Y11033D01*
Y11033D01*
X2810Y11031D01*
X2811Y11027D01*
X2811Y11023D01*
X2812Y11019D01*
X2813Y11013D01*
X2813Y11000D01*
Y10999D01*
Y10995D01*
X2813Y10990D01*
X2812Y10983D01*
X2811Y10975D01*
X2809Y10967D01*
X2806Y10957D01*
X2802Y10949D01*
X2801Y10948D01*
X2800Y10945D01*
X2797Y10941D01*
X2793Y10935D01*
X2789Y10929D01*
X2783Y10922D01*
X2776Y10916D01*
X2768Y10909D01*
X2767Y10908D01*
X2764Y10906D01*
X2759Y10903D01*
X2753Y10900D01*
X2745Y10896D01*
X2735Y10891D01*
X2725Y10887D01*
X2713Y10883D01*
X2713D01*
X2712Y10882D01*
X2710D01*
X2707Y10882D01*
X2701Y10880D01*
X2692Y10878D01*
X2681Y10876D01*
X2668Y10875D01*
X2654Y10874D01*
X2639Y10874D01*
X2632D01*
X2625Y10874D01*
X2615Y10875D01*
X2605Y10876D01*
X2593Y10878D01*
X2581Y10880D01*
X2568Y10884D01*
X2567D01*
X2567Y10884D01*
X2563Y10886D01*
X2557Y10888D01*
X2549Y10892D01*
X2540Y10896D01*
X2530Y10901D01*
X2521Y10907D01*
X2512Y10914D01*
X2510Y10914D01*
X2508Y10917D01*
X2504Y10921D01*
X2498Y10927D01*
X2492Y10934D01*
X2486Y10941D01*
X2480Y10950D01*
X2474Y10960D01*
X2474Y10961D01*
X2472Y10964D01*
X2470Y10970D01*
X2467Y10977D01*
X2465Y10987D01*
X2462Y10997D01*
X2461Y11008D01*
X2460Y11021D01*
Y11021D01*
Y11022D01*
Y11025D01*
X2461Y11031D01*
X2462Y11037D01*
X2462Y11045D01*
X2464Y11053D01*
X2466Y11061D01*
X2470Y11069D01*
X2470Y11070D01*
X2472Y11073D01*
X2474Y11077D01*
X2476Y11082D01*
X2480Y11087D01*
X2484Y11093D01*
X2494Y11106D01*
X2313D01*
Y11188D01*
X2808D01*
Y11138D01*
D02*
G37*
G36*
Y10347D02*
X2486D01*
X2478Y10347D01*
X2474D01*
X2472Y10348D01*
X2465D01*
X2457Y10349D01*
X2730Y10204D01*
X2731D01*
X2731Y10203D01*
X2735Y10200D01*
X2740Y10196D01*
X2745Y10190D01*
Y10190D01*
X2745Y10189D01*
X2747Y10185D01*
X2749Y10179D01*
X2750Y10172D01*
Y10160D01*
Y10159D01*
Y10158D01*
Y10156D01*
X2749Y10154D01*
X2748Y10147D01*
X2745Y10141D01*
X2743Y10140D01*
X2741Y10136D01*
X2736Y10132D01*
X2730Y10128D01*
X2456Y9980D01*
X2458D01*
X2460Y9981D01*
X2463D01*
X2470Y9982D01*
X2482D01*
X2484Y9982D01*
X2808D01*
Y9904D01*
X2326D01*
Y9971D01*
Y9972D01*
Y9974D01*
Y9978D01*
X2327Y9981D01*
Y9982D01*
Y9984D01*
X2328Y9989D01*
Y9990D01*
X2330Y9992D01*
X2331Y9994D01*
X2333Y9996D01*
X2334Y9996D01*
X2335Y9998D01*
X2338Y10000D01*
X2341Y10002D01*
X2608Y10146D01*
X2609D01*
X2610Y10146D01*
X2612Y10148D01*
X2615Y10149D01*
X2622Y10152D01*
X2631Y10156D01*
X2631D01*
X2633Y10156D01*
X2635Y10158D01*
X2638Y10159D01*
X2645Y10162D01*
X2653Y10166D01*
X2653D01*
X2651Y10166D01*
X2649Y10168D01*
X2646Y10168D01*
X2639Y10172D01*
X2630Y10175D01*
X2629D01*
X2628Y10176D01*
X2625Y10177D01*
X2623Y10178D01*
X2615Y10182D01*
X2607Y10186D01*
X2341Y10328D01*
X2340Y10329D01*
X2338Y10330D01*
X2336Y10331D01*
X2333Y10333D01*
X2332Y10334D01*
X2331Y10335D01*
X2330Y10337D01*
X2328Y10340D01*
Y10341D01*
X2328Y10342D01*
X2327Y10345D01*
Y10347D01*
Y10348D01*
X2326Y10351D01*
Y10354D01*
Y10358D01*
Y10426D01*
X2808D01*
Y10347D01*
D02*
G37*
G36*
X3500Y13339D02*
X3453D01*
Y13412D01*
X3227D01*
X3217Y13413D01*
X3261Y13361D01*
X3262Y13360D01*
X3262Y13359D01*
X3264Y13357D01*
X3264Y13354D01*
Y13354D01*
X3265Y13352D01*
X3266Y13350D01*
Y13348D01*
Y13347D01*
X3265Y13345D01*
X3264Y13342D01*
X3264Y13338D01*
X3263Y13338D01*
X3262Y13336D01*
X3261Y13334D01*
X3259Y13332D01*
X3232Y13313D01*
X3138Y13423D01*
Y13474D01*
X3453D01*
Y13539D01*
X3500D01*
Y13339D01*
D02*
G37*
G36*
X3386Y13821D02*
X3393Y13820D01*
X3401Y13819D01*
X3410Y13817D01*
X3419Y13814D01*
X3428Y13811D01*
X3429D01*
X3429Y13810D01*
X3433Y13809D01*
X3437Y13807D01*
X3442Y13804D01*
X3449Y13800D01*
X3456Y13795D01*
X3462Y13789D01*
X3469Y13783D01*
X3469Y13782D01*
X3471Y13780D01*
X3474Y13776D01*
X3478Y13771D01*
X3483Y13764D01*
X3487Y13757D01*
X3491Y13749D01*
X3495Y13740D01*
Y13740D01*
X3496Y13739D01*
X3496Y13738D01*
X3496Y13736D01*
X3498Y13731D01*
X3499Y13724D01*
X3501Y13716D01*
X3503Y13707D01*
X3503Y13697D01*
X3504Y13687D01*
Y13686D01*
Y13684D01*
Y13681D01*
X3503Y13676D01*
X3503Y13671D01*
X3503Y13666D01*
X3501Y13654D01*
Y13654D01*
X3500Y13652D01*
X3499Y13649D01*
X3498Y13645D01*
X3496Y13641D01*
X3495Y13636D01*
X3492Y13626D01*
X3491Y13625D01*
X3490Y13623D01*
X3489Y13621D01*
X3487Y13618D01*
X3485Y13614D01*
X3483Y13610D01*
X3478Y13601D01*
X3478Y13600D01*
X3476Y13599D01*
X3475Y13597D01*
X3473Y13594D01*
X3467Y13588D01*
X3462Y13581D01*
X3435Y13600D01*
X3435Y13600D01*
X3434Y13601D01*
X3433Y13602D01*
X3431Y13604D01*
X3428Y13609D01*
X3428Y13612D01*
X3427Y13616D01*
Y13616D01*
Y13617D01*
X3428Y13620D01*
X3428Y13624D01*
X3431Y13628D01*
Y13629D01*
X3431Y13629D01*
X3433Y13631D01*
X3433Y13633D01*
X3437Y13637D01*
X3440Y13643D01*
Y13644D01*
X3440Y13645D01*
X3442Y13647D01*
X3442Y13649D01*
X3444Y13652D01*
X3446Y13655D01*
X3449Y13663D01*
Y13663D01*
X3449Y13665D01*
X3449Y13667D01*
X3450Y13671D01*
X3451Y13675D01*
X3451Y13679D01*
X3452Y13684D01*
Y13690D01*
Y13691D01*
Y13693D01*
X3451Y13696D01*
Y13700D01*
X3451Y13705D01*
X3450Y13710D01*
X3447Y13720D01*
X3447Y13721D01*
X3446Y13722D01*
X3444Y13725D01*
X3443Y13728D01*
X3438Y13735D01*
X3431Y13742D01*
X3431Y13742D01*
X3429Y13743D01*
X3428Y13745D01*
X3425Y13747D01*
X3422Y13749D01*
X3417Y13751D01*
X3408Y13755D01*
X3408D01*
X3406Y13755D01*
X3403Y13756D01*
X3399Y13757D01*
X3395Y13758D01*
X3390Y13759D01*
X3379Y13759D01*
X3376D01*
X3374Y13759D01*
X3368Y13758D01*
X3361Y13757D01*
X3354Y13755D01*
X3347Y13752D01*
X3339Y13748D01*
X3332Y13742D01*
X3332Y13741D01*
X3330Y13739D01*
X3327Y13735D01*
X3324Y13729D01*
X3321Y13722D01*
X3318Y13714D01*
X3316Y13703D01*
X3316Y13692D01*
Y13691D01*
Y13691D01*
Y13689D01*
Y13687D01*
X3316Y13682D01*
X3317Y13675D01*
X3318Y13667D01*
X3320Y13658D01*
X3323Y13649D01*
X3327Y13639D01*
X3314Y13600D01*
X3138Y13630D01*
Y13809D01*
X3167D01*
X3169Y13808D01*
X3173Y13808D01*
X3176Y13807D01*
X3180Y13805D01*
X3183Y13803D01*
X3187Y13800D01*
X3187Y13800D01*
X3187Y13799D01*
X3189Y13797D01*
X3191Y13794D01*
X3192Y13790D01*
X3193Y13785D01*
X3194Y13780D01*
X3194Y13773D01*
Y13673D01*
X3270Y13660D01*
Y13661D01*
Y13661D01*
X3269Y13664D01*
X3268Y13669D01*
X3268Y13675D01*
X3266Y13682D01*
X3266Y13689D01*
X3265Y13705D01*
Y13705D01*
Y13706D01*
Y13708D01*
Y13710D01*
X3266Y13715D01*
X3266Y13722D01*
X3267Y13729D01*
X3268Y13738D01*
X3271Y13746D01*
X3273Y13755D01*
Y13755D01*
X3274Y13756D01*
X3275Y13758D01*
X3277Y13762D01*
X3280Y13768D01*
X3283Y13773D01*
X3287Y13779D01*
X3291Y13786D01*
X3297Y13791D01*
X3298Y13792D01*
X3300Y13794D01*
X3303Y13796D01*
X3307Y13800D01*
X3312Y13803D01*
X3318Y13807D01*
X3325Y13811D01*
X3332Y13814D01*
X3334Y13814D01*
X3336Y13815D01*
X3340Y13816D01*
X3345Y13818D01*
X3352Y13819D01*
X3359Y13820D01*
X3367Y13821D01*
X3376Y13821D01*
X3381D01*
X3386Y13821D01*
D02*
G37*
G36*
X2808Y11635D02*
Y11635D01*
Y11633D01*
Y11631D01*
X2807Y11629D01*
X2806Y11623D01*
X2803Y11616D01*
X2801Y11615D01*
X2799Y11612D01*
X2794Y11609D01*
X2788Y11606D01*
X2689Y11570D01*
Y11370D01*
X2788Y11334D01*
X2789Y11334D01*
X2793Y11332D01*
X2797Y11329D01*
X2802Y11324D01*
Y11323D01*
X2803Y11322D01*
X2805Y11318D01*
X2807Y11312D01*
X2808Y11304D01*
Y11235D01*
X2326Y11424D01*
Y11516D01*
X2808Y11705D01*
Y11635D01*
D02*
G37*
G36*
Y13091D02*
X2779D01*
X2775Y13092D01*
X2770Y13093D01*
X2764Y13095D01*
X2763D01*
X2763Y13095D01*
X2758Y13097D01*
X2753Y13101D01*
X2747Y13106D01*
X2600Y13252D01*
X2599Y13253D01*
X2597Y13255D01*
X2593Y13259D01*
X2589Y13263D01*
X2583Y13268D01*
X2577Y13274D01*
X2565Y13284D01*
X2564Y13285D01*
X2562Y13287D01*
X2558Y13290D01*
X2554Y13293D01*
X2549Y13297D01*
X2543Y13301D01*
X2531Y13309D01*
X2530Y13310D01*
X2528Y13310D01*
X2525Y13312D01*
X2520Y13314D01*
X2516Y13317D01*
X2510Y13320D01*
X2498Y13324D01*
X2497D01*
X2494Y13324D01*
X2491Y13326D01*
X2486Y13326D01*
X2481Y13328D01*
X2475Y13328D01*
X2461Y13329D01*
X2455D01*
X2451Y13328D01*
X2441Y13327D01*
X2431Y13324D01*
X2430D01*
X2429Y13323D01*
X2426Y13322D01*
X2423Y13320D01*
X2416Y13316D01*
X2409Y13310D01*
X2408Y13309D01*
X2408Y13308D01*
X2406Y13306D01*
X2404Y13304D01*
X2399Y13296D01*
X2395Y13288D01*
Y13287D01*
X2394Y13286D01*
X2394Y13283D01*
X2392Y13280D01*
X2392Y13275D01*
X2391Y13271D01*
X2390Y13259D01*
Y13258D01*
Y13255D01*
X2391Y13249D01*
X2392Y13242D01*
X2394Y13234D01*
X2397Y13226D01*
X2400Y13218D01*
X2406Y13210D01*
X2406Y13209D01*
X2408Y13207D01*
X2412Y13204D01*
X2416Y13200D01*
X2422Y13195D01*
X2429Y13191D01*
X2436Y13187D01*
X2446Y13183D01*
X2446D01*
X2448Y13183D01*
X2450Y13182D01*
X2453Y13181D01*
X2459Y13177D01*
X2464Y13173D01*
X2465Y13171D01*
X2467Y13167D01*
X2469Y13162D01*
X2470Y13154D01*
Y13153D01*
Y13151D01*
X2469Y13147D01*
X2468Y13143D01*
X2461Y13099D01*
X2460D01*
X2458Y13100D01*
X2455Y13101D01*
X2448Y13102D01*
X2440Y13104D01*
X2431Y13107D01*
X2421Y13110D01*
X2410Y13114D01*
X2400Y13119D01*
X2399Y13119D01*
X2396Y13121D01*
X2391Y13125D01*
X2385Y13129D01*
X2378Y13134D01*
X2370Y13140D01*
X2363Y13147D01*
X2356Y13155D01*
X2356Y13155D01*
X2354Y13159D01*
X2350Y13163D01*
X2346Y13169D01*
X2342Y13176D01*
X2338Y13185D01*
X2334Y13194D01*
X2330Y13204D01*
X2330Y13205D01*
X2329Y13209D01*
X2328Y13215D01*
X2326Y13222D01*
X2324Y13231D01*
X2322Y13241D01*
X2322Y13252D01*
X2321Y13264D01*
Y13265D01*
Y13265D01*
Y13269D01*
X2322Y13276D01*
X2322Y13284D01*
X2324Y13293D01*
X2325Y13304D01*
X2328Y13314D01*
X2331Y13324D01*
X2332Y13326D01*
X2333Y13329D01*
X2335Y13334D01*
X2338Y13341D01*
X2342Y13348D01*
X2347Y13356D01*
X2352Y13364D01*
X2359Y13372D01*
X2360Y13372D01*
X2362Y13375D01*
X2366Y13378D01*
X2371Y13383D01*
X2378Y13388D01*
X2385Y13393D01*
X2393Y13398D01*
X2402Y13402D01*
X2404Y13403D01*
X2407Y13404D01*
X2412Y13406D01*
X2419Y13408D01*
X2427Y13410D01*
X2436Y13412D01*
X2447Y13413D01*
X2458Y13414D01*
X2463D01*
X2468Y13413D01*
X2474D01*
X2482Y13412D01*
X2490Y13410D01*
X2499Y13408D01*
X2508Y13406D01*
X2508Y13405D01*
X2512Y13404D01*
X2516Y13402D01*
X2522Y13400D01*
X2528Y13397D01*
X2535Y13393D01*
X2551Y13384D01*
X2551Y13384D01*
X2554Y13382D01*
X2558Y13380D01*
X2563Y13376D01*
X2569Y13371D01*
X2576Y13366D01*
X2583Y13360D01*
X2591Y13354D01*
X2591Y13353D01*
X2594Y13351D01*
X2598Y13347D01*
X2603Y13342D01*
X2609Y13337D01*
X2615Y13331D01*
X2630Y13317D01*
X2741Y13209D01*
Y13209D01*
X2741Y13211D01*
X2740Y13215D01*
X2739Y13219D01*
X2737Y13223D01*
X2736Y13229D01*
X2734Y13240D01*
Y13241D01*
X2733Y13243D01*
Y13245D01*
X2733Y13249D01*
X2732Y13259D01*
X2731Y13269D01*
Y13392D01*
Y13393D01*
Y13394D01*
X2732Y13397D01*
Y13400D01*
X2735Y13407D01*
X2737Y13410D01*
X2739Y13414D01*
Y13414D01*
X2741Y13415D01*
X2745Y13418D01*
X2751Y13420D01*
X2755Y13422D01*
X2808D01*
Y13091D01*
D02*
G37*
G36*
X2684Y13809D02*
X2692Y13809D01*
X2701Y13807D01*
X2711Y13805D01*
X2721Y13801D01*
X2731Y13797D01*
X2732Y13797D01*
X2735Y13795D01*
X2740Y13793D01*
X2746Y13789D01*
X2753Y13784D01*
X2761Y13778D01*
X2768Y13771D01*
X2775Y13763D01*
X2776Y13763D01*
X2778Y13759D01*
X2781Y13755D01*
X2785Y13749D01*
X2790Y13741D01*
X2795Y13732D01*
X2799Y13722D01*
X2803Y13711D01*
X2804Y13709D01*
X2805Y13705D01*
X2807Y13699D01*
X2808Y13691D01*
X2810Y13681D01*
X2812Y13669D01*
X2813Y13656D01*
X2813Y13643D01*
Y13642D01*
Y13641D01*
Y13639D01*
Y13637D01*
X2813Y13629D01*
X2812Y13620D01*
X2811Y13610D01*
X2809Y13598D01*
X2807Y13586D01*
X2803Y13574D01*
X2803Y13573D01*
X2801Y13569D01*
X2799Y13564D01*
X2796Y13556D01*
X2792Y13548D01*
X2787Y13539D01*
X2782Y13530D01*
X2775Y13522D01*
X2775Y13521D01*
X2772Y13518D01*
X2768Y13514D01*
X2763Y13509D01*
X2756Y13504D01*
X2749Y13498D01*
X2740Y13492D01*
X2731Y13488D01*
X2729Y13487D01*
X2726Y13486D01*
X2721Y13484D01*
X2713Y13482D01*
X2705Y13480D01*
X2695Y13478D01*
X2684Y13476D01*
X2673Y13476D01*
X2669D01*
X2665Y13476D01*
X2662D01*
X2657Y13477D01*
X2647Y13478D01*
X2636Y13481D01*
X2624Y13484D01*
X2612Y13490D01*
X2601Y13496D01*
X2600D01*
X2599Y13498D01*
X2596Y13500D01*
X2591Y13506D01*
X2584Y13512D01*
X2577Y13522D01*
X2570Y13533D01*
X2563Y13546D01*
X2557Y13562D01*
Y13561D01*
X2556Y13560D01*
X2555Y13558D01*
X2554Y13556D01*
X2551Y13550D01*
X2546Y13542D01*
X2540Y13533D01*
X2533Y13524D01*
X2525Y13516D01*
X2516Y13509D01*
X2514Y13508D01*
X2511Y13506D01*
X2505Y13504D01*
X2497Y13500D01*
X2488Y13497D01*
X2476Y13494D01*
X2464Y13492D01*
X2450Y13492D01*
X2446D01*
X2440Y13492D01*
X2434Y13493D01*
X2426Y13494D01*
X2418Y13496D01*
X2408Y13499D01*
X2400Y13502D01*
X2398Y13503D01*
X2396Y13504D01*
X2391Y13507D01*
X2386Y13510D01*
X2379Y13515D01*
X2372Y13520D01*
X2365Y13526D01*
X2358Y13534D01*
X2358Y13534D01*
X2356Y13537D01*
X2352Y13542D01*
X2348Y13547D01*
X2344Y13554D01*
X2340Y13562D01*
X2335Y13572D01*
X2331Y13582D01*
X2330Y13583D01*
X2330Y13586D01*
X2328Y13592D01*
X2326Y13600D01*
X2324Y13609D01*
X2322Y13620D01*
X2322Y13631D01*
X2321Y13643D01*
Y13643D01*
Y13644D01*
Y13648D01*
X2322Y13655D01*
X2322Y13663D01*
X2324Y13672D01*
X2325Y13683D01*
X2328Y13693D01*
X2331Y13703D01*
X2332Y13705D01*
X2333Y13708D01*
X2335Y13713D01*
X2338Y13720D01*
X2342Y13727D01*
X2347Y13735D01*
X2352Y13743D01*
X2358Y13751D01*
X2359Y13752D01*
X2362Y13755D01*
X2365Y13758D01*
X2370Y13763D01*
X2376Y13768D01*
X2383Y13773D01*
X2391Y13778D01*
X2400Y13783D01*
X2401Y13783D01*
X2404Y13785D01*
X2408Y13786D01*
X2415Y13789D01*
X2422Y13791D01*
X2431Y13792D01*
X2440Y13793D01*
X2450Y13794D01*
X2457D01*
X2464Y13793D01*
X2473Y13792D01*
X2483Y13789D01*
X2494Y13787D01*
X2505Y13782D01*
X2516Y13776D01*
X2517Y13775D01*
X2520Y13773D01*
X2525Y13769D01*
X2531Y13763D01*
X2537Y13755D01*
X2544Y13747D01*
X2551Y13736D01*
X2557Y13723D01*
Y13724D01*
X2557Y13725D01*
X2558Y13727D01*
X2559Y13731D01*
X2563Y13739D01*
X2567Y13748D01*
X2574Y13759D01*
X2581Y13770D01*
X2590Y13780D01*
X2601Y13789D01*
X2602Y13789D01*
X2606Y13792D01*
X2612Y13795D01*
X2621Y13799D01*
X2631Y13803D01*
X2643Y13807D01*
X2657Y13809D01*
X2673Y13810D01*
X2678D01*
X2684Y13809D01*
D02*
G37*
G36*
X2372Y13041D02*
X2380Y13041D01*
X2388Y13038D01*
X2389D01*
X2390Y13037D01*
X2394Y13036D01*
X2399Y13034D01*
X2404Y13031D01*
X2780Y12850D01*
X2781D01*
X2782Y12848D01*
X2784Y12847D01*
X2787Y12846D01*
X2793Y12840D01*
X2800Y12833D01*
Y12832D01*
X2801Y12831D01*
X2803Y12829D01*
X2804Y12826D01*
X2805Y12822D01*
X2807Y12817D01*
X2807Y12812D01*
X2808Y12806D01*
Y12746D01*
X2440Y12932D01*
X2439Y12933D01*
X2436Y12934D01*
X2432Y12937D01*
X2427Y12940D01*
X2421Y12944D01*
X2414Y12948D01*
X2401Y12958D01*
Y12728D01*
Y12726D01*
X2400Y12723D01*
X2399Y12719D01*
X2396Y12714D01*
X2394Y12714D01*
X2392Y12712D01*
X2388Y12710D01*
X2382Y12709D01*
X2326D01*
Y13042D01*
X2368D01*
X2372Y13041D01*
D02*
G37*
G36*
X2581Y12182D02*
X2586D01*
X2593Y12181D01*
X2599Y12180D01*
X2614Y12178D01*
X2631Y12175D01*
X2647Y12170D01*
X2665Y12164D01*
X2665D01*
X2667Y12164D01*
X2669Y12162D01*
X2672Y12161D01*
X2676Y12160D01*
X2680Y12157D01*
X2691Y12152D01*
X2703Y12145D01*
X2715Y12136D01*
X2728Y12126D01*
X2741Y12115D01*
X2741Y12114D01*
X2742Y12114D01*
X2744Y12112D01*
X2746Y12109D01*
X2752Y12102D01*
X2759Y12094D01*
X2767Y12082D01*
X2775Y12069D01*
X2783Y12054D01*
X2791Y12038D01*
Y12037D01*
X2791Y12036D01*
X2792Y12033D01*
X2793Y12030D01*
X2795Y12026D01*
X2796Y12021D01*
X2798Y12015D01*
X2799Y12008D01*
X2803Y11994D01*
X2805Y11977D01*
X2807Y11959D01*
X2808Y11939D01*
Y11755D01*
X2326D01*
Y11939D01*
Y11939D01*
Y11941D01*
Y11944D01*
Y11948D01*
X2327Y11953D01*
Y11959D01*
X2328Y11964D01*
X2328Y11971D01*
X2331Y11986D01*
X2334Y12003D01*
X2338Y12020D01*
X2344Y12038D01*
Y12038D01*
X2345Y12040D01*
X2346Y12042D01*
X2348Y12045D01*
X2350Y12049D01*
X2352Y12054D01*
X2357Y12064D01*
X2364Y12076D01*
X2373Y12090D01*
X2383Y12102D01*
X2394Y12115D01*
X2395Y12116D01*
X2396Y12116D01*
X2398Y12118D01*
X2400Y12120D01*
X2406Y12126D01*
X2416Y12133D01*
X2426Y12141D01*
X2440Y12150D01*
X2454Y12157D01*
X2470Y12164D01*
X2471D01*
X2472Y12165D01*
X2475Y12166D01*
X2478Y12167D01*
X2482Y12168D01*
X2487Y12170D01*
X2493Y12172D01*
X2499Y12174D01*
X2514Y12176D01*
X2530Y12180D01*
X2548Y12182D01*
X2567Y12182D01*
X2576D01*
X2581Y12182D01*
D02*
G37*
G36*
X2808Y12481D02*
Y12400D01*
X2326Y12206D01*
Y12278D01*
Y12278D01*
Y12280D01*
Y12282D01*
X2327Y12284D01*
X2329Y12291D01*
X2332Y12297D01*
Y12297D01*
X2333Y12298D01*
X2336Y12301D01*
X2341Y12304D01*
X2347Y12307D01*
X2641Y12421D01*
X2641D01*
X2643Y12422D01*
X2646Y12423D01*
X2650Y12424D01*
X2655Y12426D01*
X2660Y12428D01*
X2672Y12431D01*
X2673D01*
X2675Y12432D01*
X2679Y12433D01*
X2683Y12435D01*
X2689Y12436D01*
X2695Y12438D01*
X2708Y12441D01*
X2707D01*
X2706Y12442D01*
X2704D01*
X2701Y12443D01*
X2695Y12445D01*
X2685Y12447D01*
X2675Y12449D01*
X2663Y12453D01*
X2652Y12457D01*
X2641Y12461D01*
X2347Y12573D01*
X2346D01*
X2346Y12574D01*
X2342Y12576D01*
X2338Y12579D01*
X2333Y12584D01*
Y12585D01*
X2332Y12585D01*
X2330Y12589D01*
X2328Y12595D01*
X2326Y12603D01*
Y12675D01*
X2808Y12481D01*
D02*
G37*
G36*
X3331Y13259D02*
X3336D01*
X3341Y13258D01*
X3347Y13258D01*
X3360Y13257D01*
X3374Y13255D01*
X3388Y13252D01*
X3401Y13249D01*
X3402D01*
X3403Y13248D01*
X3405Y13248D01*
X3408Y13247D01*
X3410Y13246D01*
X3414Y13245D01*
X3422Y13242D01*
X3431Y13238D01*
X3440Y13233D01*
X3451Y13227D01*
X3460Y13221D01*
X3460Y13220D01*
X3463Y13218D01*
X3467Y13214D01*
X3472Y13209D01*
X3478Y13203D01*
X3483Y13196D01*
X3489Y13188D01*
X3493Y13179D01*
Y13178D01*
X3494Y13178D01*
X3494Y13176D01*
X3494Y13175D01*
X3496Y13170D01*
X3498Y13163D01*
X3501Y13155D01*
X3503Y13146D01*
X3503Y13137D01*
X3504Y13126D01*
Y13126D01*
Y13125D01*
Y13123D01*
Y13121D01*
X3503Y13116D01*
X3503Y13109D01*
X3501Y13101D01*
X3499Y13092D01*
X3496Y13083D01*
X3493Y13074D01*
Y13073D01*
X3492Y13073D01*
X3491Y13070D01*
X3489Y13065D01*
X3485Y13060D01*
X3480Y13053D01*
X3474Y13046D01*
X3467Y13039D01*
X3460Y13032D01*
X3459D01*
X3458Y13031D01*
X3457Y13030D01*
X3456Y13029D01*
X3451Y13026D01*
X3444Y13022D01*
X3435Y13017D01*
X3426Y13013D01*
X3414Y13008D01*
X3401Y13004D01*
X3401D01*
X3400Y13004D01*
X3398Y13003D01*
X3395Y13003D01*
X3392Y13002D01*
X3388Y13001D01*
X3383Y13000D01*
X3378Y12999D01*
X3372Y12998D01*
X3366Y12997D01*
X3352Y12996D01*
X3336Y12995D01*
X3320Y12994D01*
X3311D01*
X3307Y12995D01*
X3302D01*
X3298Y12995D01*
X3291Y12996D01*
X3279Y12997D01*
X3265Y12998D01*
X3251Y13001D01*
X3237Y13004D01*
X3237D01*
X3236Y13005D01*
X3234Y13005D01*
X3232Y13006D01*
X3228Y13007D01*
X3225Y13008D01*
X3217Y13011D01*
X3208Y13015D01*
X3198Y13020D01*
X3189Y13026D01*
X3180Y13032D01*
X3180D01*
X3179Y13033D01*
X3176Y13035D01*
X3172Y13039D01*
X3167Y13044D01*
X3162Y13050D01*
X3156Y13057D01*
X3151Y13065D01*
X3146Y13074D01*
Y13074D01*
X3146Y13075D01*
X3145Y13076D01*
X3144Y13078D01*
X3142Y13083D01*
X3140Y13089D01*
X3138Y13097D01*
X3137Y13106D01*
X3135Y13116D01*
X3135Y13126D01*
Y13127D01*
Y13128D01*
Y13129D01*
Y13131D01*
X3135Y13136D01*
X3136Y13143D01*
X3137Y13151D01*
X3140Y13160D01*
X3142Y13169D01*
X3146Y13179D01*
Y13179D01*
X3146Y13180D01*
X3148Y13183D01*
X3151Y13187D01*
X3155Y13193D01*
X3159Y13200D01*
X3165Y13207D01*
X3172Y13214D01*
X3180Y13221D01*
X3181Y13222D01*
X3184Y13224D01*
X3189Y13227D01*
X3196Y13231D01*
X3204Y13236D01*
X3214Y13240D01*
X3225Y13245D01*
X3237Y13249D01*
X3238D01*
X3239Y13249D01*
X3241Y13250D01*
X3243Y13250D01*
X3247Y13251D01*
X3251Y13252D01*
X3255Y13253D01*
X3261Y13254D01*
X3266Y13255D01*
X3273Y13256D01*
X3286Y13258D01*
X3302Y13259D01*
X3320Y13259D01*
X3327D01*
X3331Y13259D01*
D02*
G37*
G36*
X3471Y10821D02*
X3476Y10820D01*
X3481Y10818D01*
X3482D01*
X3482Y10818D01*
X3485Y10816D01*
X3489Y10814D01*
X3493Y10810D01*
X3494Y10809D01*
X3496Y10807D01*
X3498Y10803D01*
X3501Y10798D01*
Y10798D01*
X3501Y10797D01*
X3501Y10796D01*
X3502Y10794D01*
X3503Y10789D01*
X3503Y10783D01*
Y10783D01*
Y10782D01*
Y10780D01*
X3503Y10778D01*
X3502Y10774D01*
X3501Y10768D01*
Y10768D01*
X3500Y10767D01*
X3498Y10764D01*
X3496Y10760D01*
X3493Y10756D01*
X3492Y10755D01*
X3489Y10753D01*
X3486Y10751D01*
X3481Y10748D01*
X3480D01*
X3480Y10748D01*
X3478Y10747D01*
X3476Y10747D01*
X3471Y10746D01*
X3466Y10745D01*
X3463D01*
X3462Y10746D01*
X3456Y10747D01*
X3451Y10748D01*
X3451D01*
X3451Y10749D01*
X3447Y10750D01*
X3444Y10753D01*
X3440Y10756D01*
X3438Y10757D01*
X3437Y10760D01*
X3434Y10763D01*
X3431Y10768D01*
Y10769D01*
X3431Y10769D01*
X3431Y10771D01*
X3429Y10773D01*
X3428Y10778D01*
X3428Y10783D01*
Y10784D01*
Y10785D01*
Y10786D01*
X3428Y10788D01*
X3429Y10793D01*
X3431Y10798D01*
Y10799D01*
X3432Y10799D01*
X3433Y10802D01*
X3436Y10806D01*
X3440Y10810D01*
X3440Y10811D01*
X3443Y10813D01*
X3447Y10816D01*
X3451Y10818D01*
X3452D01*
X3453Y10819D01*
X3454Y10819D01*
X3456Y10820D01*
X3460Y10821D01*
X3466Y10821D01*
X3469D01*
X3471Y10821D01*
D02*
G37*
G36*
X3500Y10861D02*
X3478D01*
X3476Y10861D01*
X3471Y10862D01*
X3467Y10863D01*
X3467D01*
X3466Y10864D01*
X3462Y10865D01*
X3458Y10868D01*
X3454Y10872D01*
X3344Y10981D01*
X3343Y10982D01*
X3341Y10984D01*
X3339Y10986D01*
X3336Y10990D01*
X3331Y10993D01*
X3327Y10998D01*
X3318Y11006D01*
X3317Y11006D01*
X3316Y11008D01*
X3313Y11010D01*
X3309Y11012D01*
X3305Y11015D01*
X3301Y11018D01*
X3292Y11024D01*
X3291Y11025D01*
X3290Y11025D01*
X3288Y11027D01*
X3284Y11028D01*
X3280Y11030D01*
X3276Y11032D01*
X3267Y11035D01*
X3266D01*
X3264Y11036D01*
X3262Y11037D01*
X3259Y11037D01*
X3255Y11038D01*
X3250Y11039D01*
X3239Y11039D01*
X3235D01*
X3232Y11039D01*
X3225Y11038D01*
X3217Y11035D01*
X3216D01*
X3216Y11035D01*
X3214Y11034D01*
X3211Y11033D01*
X3206Y11029D01*
X3201Y11025D01*
X3200Y11024D01*
X3200Y11024D01*
X3198Y11022D01*
X3196Y11020D01*
X3193Y11015D01*
X3190Y11008D01*
Y11008D01*
X3189Y11007D01*
X3189Y11005D01*
X3188Y11002D01*
X3187Y10999D01*
X3187Y10995D01*
X3187Y10987D01*
Y10986D01*
Y10983D01*
X3187Y10979D01*
X3188Y10974D01*
X3189Y10968D01*
X3192Y10962D01*
X3194Y10956D01*
X3198Y10950D01*
X3198Y10949D01*
X3200Y10947D01*
X3203Y10945D01*
X3206Y10942D01*
X3210Y10939D01*
X3216Y10935D01*
X3221Y10932D01*
X3228Y10930D01*
X3228D01*
X3230Y10929D01*
X3231Y10929D01*
X3234Y10928D01*
X3238Y10925D01*
X3242Y10922D01*
X3243Y10921D01*
X3244Y10918D01*
X3246Y10914D01*
X3246Y10908D01*
Y10907D01*
Y10905D01*
X3246Y10902D01*
X3245Y10899D01*
X3239Y10867D01*
X3239D01*
X3237Y10867D01*
X3235Y10868D01*
X3230Y10869D01*
X3224Y10870D01*
X3217Y10872D01*
X3210Y10875D01*
X3201Y10878D01*
X3194Y10881D01*
X3193Y10882D01*
X3191Y10883D01*
X3187Y10886D01*
X3183Y10889D01*
X3177Y10893D01*
X3171Y10897D01*
X3166Y10903D01*
X3161Y10908D01*
X3160Y10909D01*
X3159Y10911D01*
X3156Y10914D01*
X3153Y10919D01*
X3151Y10924D01*
X3147Y10931D01*
X3144Y10938D01*
X3142Y10945D01*
X3141Y10946D01*
X3140Y10949D01*
X3140Y10953D01*
X3138Y10959D01*
X3137Y10965D01*
X3135Y10973D01*
X3135Y10981D01*
X3135Y10990D01*
Y10991D01*
Y10991D01*
Y10994D01*
X3135Y10999D01*
X3135Y11005D01*
X3137Y11012D01*
X3137Y11020D01*
X3140Y11028D01*
X3142Y11036D01*
X3142Y11037D01*
X3144Y11039D01*
X3145Y11043D01*
X3147Y11048D01*
X3151Y11054D01*
X3154Y11060D01*
X3158Y11066D01*
X3163Y11071D01*
X3164Y11072D01*
X3165Y11074D01*
X3169Y11076D01*
X3172Y11080D01*
X3177Y11083D01*
X3183Y11087D01*
X3189Y11091D01*
X3196Y11094D01*
X3196Y11095D01*
X3199Y11096D01*
X3203Y11097D01*
X3208Y11099D01*
X3214Y11100D01*
X3221Y11101D01*
X3229Y11102D01*
X3237Y11103D01*
X3241D01*
X3244Y11102D01*
X3250D01*
X3255Y11101D01*
X3262Y11100D01*
X3268Y11099D01*
X3275Y11097D01*
X3275Y11096D01*
X3277Y11096D01*
X3280Y11094D01*
X3285Y11093D01*
X3290Y11090D01*
X3295Y11087D01*
X3307Y11081D01*
X3307Y11080D01*
X3309Y11079D01*
X3313Y11077D01*
X3316Y11074D01*
X3321Y11071D01*
X3326Y11067D01*
X3331Y11063D01*
X3337Y11058D01*
X3338Y11057D01*
X3340Y11056D01*
X3343Y11053D01*
X3346Y11049D01*
X3350Y11045D01*
X3356Y11041D01*
X3367Y11030D01*
X3450Y10949D01*
Y10949D01*
X3449Y10951D01*
X3449Y10953D01*
X3448Y10956D01*
X3447Y10960D01*
X3446Y10964D01*
X3444Y10972D01*
Y10973D01*
X3444Y10974D01*
Y10976D01*
X3444Y10979D01*
X3443Y10986D01*
X3442Y10994D01*
Y11087D01*
Y11087D01*
Y11088D01*
X3443Y11090D01*
Y11093D01*
X3445Y11098D01*
X3447Y11100D01*
X3449Y11103D01*
Y11103D01*
X3449Y11104D01*
X3453Y11106D01*
X3457Y11108D01*
X3460Y11109D01*
X3500D01*
Y10861D01*
D02*
G37*
G36*
Y10622D02*
Y10566D01*
X3243Y10464D01*
Y10515D01*
Y10515D01*
Y10516D01*
X3244Y10519D01*
X3245Y10523D01*
X3247Y10526D01*
X3248Y10527D01*
X3249Y10529D01*
X3252Y10531D01*
X3255Y10533D01*
X3392Y10582D01*
X3392D01*
X3394Y10583D01*
X3397Y10584D01*
X3399Y10585D01*
X3403Y10586D01*
X3407Y10587D01*
X3415Y10589D01*
X3416D01*
X3417Y10590D01*
X3419Y10590D01*
X3422Y10591D01*
X3426Y10592D01*
X3430Y10593D01*
X3438Y10594D01*
X3438D01*
X3437Y10595D01*
X3434Y10595D01*
X3431Y10596D01*
X3428Y10597D01*
X3424Y10597D01*
X3415Y10599D01*
X3415D01*
X3413Y10600D01*
X3411Y10600D01*
X3408Y10601D01*
X3404Y10602D01*
X3401Y10604D01*
X3392Y10607D01*
X3255Y10658D01*
X3254Y10658D01*
X3252Y10659D01*
X3250Y10661D01*
X3247Y10664D01*
X3246Y10665D01*
X3245Y10667D01*
X3244Y10670D01*
X3243Y10675D01*
Y10723D01*
X3500Y10622D01*
D02*
G37*
G36*
Y10126D02*
Y10125D01*
Y10124D01*
Y10123D01*
X3499Y10121D01*
X3498Y10116D01*
X3496Y10111D01*
Y10110D01*
X3496Y10110D01*
X3494Y10107D01*
X3491Y10104D01*
X3487Y10100D01*
X3370Y10024D01*
X3370D01*
X3370Y10024D01*
X3367Y10022D01*
X3364Y10019D01*
X3361Y10015D01*
X3361Y10014D01*
X3360Y10011D01*
X3359Y10006D01*
X3359Y10000D01*
Y9971D01*
X3500D01*
Y9904D01*
X3138D01*
Y10014D01*
Y10015D01*
Y10016D01*
Y10018D01*
Y10020D01*
Y10024D01*
X3138Y10027D01*
X3139Y10036D01*
X3140Y10046D01*
X3142Y10056D01*
X3144Y10067D01*
X3146Y10077D01*
Y10078D01*
X3146Y10078D01*
X3147Y10080D01*
X3147Y10082D01*
X3149Y10087D01*
X3151Y10093D01*
X3155Y10100D01*
X3158Y10107D01*
X3162Y10114D01*
X3167Y10121D01*
X3168Y10122D01*
X3170Y10124D01*
X3173Y10127D01*
X3176Y10130D01*
X3182Y10134D01*
X3187Y10138D01*
X3194Y10142D01*
X3201Y10145D01*
X3201Y10146D01*
X3204Y10147D01*
X3207Y10148D01*
X3213Y10149D01*
X3219Y10151D01*
X3226Y10152D01*
X3234Y10153D01*
X3243Y10153D01*
X3246D01*
X3249Y10153D01*
X3253D01*
X3259Y10152D01*
X3264Y10151D01*
X3271Y10150D01*
X3277Y10148D01*
X3277D01*
X3280Y10147D01*
X3283Y10146D01*
X3286Y10144D01*
X3291Y10142D01*
X3296Y10139D01*
X3302Y10136D01*
X3307Y10132D01*
X3307Y10132D01*
X3309Y10130D01*
X3311Y10128D01*
X3314Y10125D01*
X3318Y10122D01*
X3322Y10118D01*
X3325Y10113D01*
X3329Y10107D01*
X3330Y10107D01*
X3331Y10105D01*
X3333Y10102D01*
X3335Y10098D01*
X3338Y10093D01*
X3340Y10087D01*
X3343Y10081D01*
X3345Y10074D01*
X3346Y10074D01*
X3347Y10076D01*
X3349Y10078D01*
X3351Y10081D01*
X3354Y10085D01*
X3358Y10088D01*
X3361Y10092D01*
X3367Y10096D01*
X3500Y10186D01*
Y10126D01*
D02*
G37*
G36*
X3365Y10442D02*
X3368Y10442D01*
X3368D01*
X3370Y10441D01*
X3373Y10441D01*
X3376Y10440D01*
X3376Y10439D01*
X3377Y10439D01*
X3378Y10437D01*
X3379Y10435D01*
Y10435D01*
X3379Y10433D01*
X3380Y10431D01*
Y10428D01*
Y10270D01*
X3381D01*
X3384Y10270D01*
X3386Y10271D01*
X3390Y10271D01*
X3393Y10272D01*
X3402Y10274D01*
X3411Y10276D01*
X3421Y10280D01*
X3430Y10285D01*
X3438Y10291D01*
X3439Y10292D01*
X3441Y10295D01*
X3444Y10299D01*
X3447Y10304D01*
X3451Y10311D01*
X3453Y10320D01*
X3455Y10329D01*
X3456Y10340D01*
Y10341D01*
Y10343D01*
Y10346D01*
X3456Y10349D01*
X3455Y10357D01*
X3453Y10366D01*
Y10366D01*
X3453Y10368D01*
X3451Y10370D01*
X3451Y10372D01*
X3449Y10378D01*
X3446Y10385D01*
Y10385D01*
X3444Y10386D01*
X3444Y10388D01*
X3443Y10390D01*
X3440Y10394D01*
X3438Y10399D01*
Y10400D01*
X3437Y10400D01*
X3435Y10403D01*
X3435Y10407D01*
X3434Y10411D01*
Y10412D01*
Y10413D01*
X3435Y10415D01*
X3435Y10417D01*
X3436Y10418D01*
X3437Y10419D01*
X3440Y10422D01*
X3462Y10440D01*
X3462Y10440D01*
X3464Y10439D01*
X3466Y10436D01*
X3469Y10434D01*
X3473Y10430D01*
X3476Y10426D01*
X3483Y10417D01*
X3483Y10417D01*
X3484Y10415D01*
X3485Y10413D01*
X3487Y10409D01*
X3489Y10405D01*
X3492Y10401D01*
X3496Y10391D01*
Y10390D01*
X3496Y10388D01*
X3497Y10386D01*
X3498Y10382D01*
X3499Y10378D01*
X3500Y10373D01*
X3502Y10362D01*
Y10362D01*
X3503Y10360D01*
Y10357D01*
X3503Y10354D01*
X3503Y10349D01*
Y10345D01*
X3504Y10335D01*
Y10334D01*
Y10334D01*
Y10332D01*
Y10330D01*
X3503Y10325D01*
X3503Y10318D01*
X3502Y10311D01*
X3501Y10302D01*
X3498Y10294D01*
X3496Y10285D01*
X3495Y10284D01*
X3494Y10281D01*
X3492Y10277D01*
X3489Y10271D01*
X3485Y10265D01*
X3480Y10258D01*
X3475Y10251D01*
X3469Y10245D01*
X3468Y10244D01*
X3466Y10242D01*
X3462Y10239D01*
X3457Y10235D01*
X3451Y10231D01*
X3444Y10226D01*
X3435Y10222D01*
X3426Y10218D01*
X3426D01*
X3425Y10217D01*
X3424Y10217D01*
X3422Y10216D01*
X3416Y10215D01*
X3409Y10213D01*
X3401Y10211D01*
X3390Y10210D01*
X3379Y10209D01*
X3367Y10208D01*
X3362D01*
X3357Y10209D01*
X3350Y10209D01*
X3343Y10210D01*
X3335Y10212D01*
X3326Y10214D01*
X3318Y10217D01*
X3317D01*
X3316Y10217D01*
X3313Y10218D01*
X3309Y10220D01*
X3304Y10223D01*
X3298Y10226D01*
X3291Y10231D01*
X3284Y10236D01*
X3277Y10241D01*
X3276Y10242D01*
X3274Y10244D01*
X3271Y10248D01*
X3267Y10252D01*
X3263Y10258D01*
X3259Y10264D01*
X3254Y10272D01*
X3250Y10280D01*
Y10280D01*
X3250Y10281D01*
X3248Y10284D01*
X3246Y10289D01*
X3244Y10295D01*
X3243Y10303D01*
X3241Y10311D01*
X3240Y10321D01*
X3239Y10332D01*
Y10332D01*
Y10333D01*
Y10336D01*
X3240Y10340D01*
X3241Y10346D01*
X3241Y10353D01*
X3243Y10361D01*
X3245Y10368D01*
X3248Y10376D01*
X3248Y10377D01*
X3249Y10380D01*
X3251Y10384D01*
X3253Y10388D01*
X3257Y10394D01*
X3261Y10400D01*
X3265Y10406D01*
X3271Y10411D01*
X3271Y10412D01*
X3273Y10414D01*
X3276Y10416D01*
X3280Y10420D01*
X3286Y10423D01*
X3292Y10427D01*
X3299Y10431D01*
X3307Y10434D01*
X3308Y10435D01*
X3311Y10436D01*
X3316Y10437D01*
X3321Y10439D01*
X3329Y10440D01*
X3337Y10441D01*
X3347Y10442D01*
X3356Y10443D01*
X3361D01*
X3365Y10442D01*
D02*
G37*
G36*
X3471Y11223D02*
X3476Y11223D01*
X3481Y11221D01*
X3482D01*
X3482Y11220D01*
X3485Y11219D01*
X3489Y11216D01*
X3493Y11213D01*
X3494Y11212D01*
X3496Y11209D01*
X3498Y11206D01*
X3501Y11201D01*
Y11200D01*
X3501Y11200D01*
X3501Y11198D01*
X3502Y11196D01*
X3503Y11191D01*
X3503Y11186D01*
Y11185D01*
Y11184D01*
Y11183D01*
X3503Y11181D01*
X3502Y11176D01*
X3501Y11171D01*
Y11170D01*
X3500Y11170D01*
X3498Y11167D01*
X3496Y11163D01*
X3493Y11159D01*
X3492Y11158D01*
X3489Y11156D01*
X3486Y11153D01*
X3481Y11151D01*
X3480D01*
X3480Y11150D01*
X3478Y11150D01*
X3476Y11149D01*
X3471Y11148D01*
X3466Y11148D01*
X3463D01*
X3462Y11148D01*
X3456Y11149D01*
X3451Y11151D01*
X3451D01*
X3451Y11151D01*
X3447Y11153D01*
X3444Y11155D01*
X3440Y11159D01*
X3438Y11160D01*
X3437Y11162D01*
X3434Y11166D01*
X3431Y11171D01*
Y11171D01*
X3431Y11172D01*
X3431Y11173D01*
X3429Y11175D01*
X3428Y11180D01*
X3428Y11186D01*
Y11186D01*
Y11187D01*
Y11189D01*
X3428Y11191D01*
X3429Y11195D01*
X3431Y11201D01*
Y11201D01*
X3432Y11202D01*
X3433Y11205D01*
X3436Y11209D01*
X3440Y11213D01*
X3440Y11214D01*
X3443Y11216D01*
X3447Y11218D01*
X3451Y11221D01*
X3452D01*
X3453Y11221D01*
X3454Y11222D01*
X3456Y11222D01*
X3460Y11223D01*
X3466Y11224D01*
X3469D01*
X3471Y11223D01*
D02*
G37*
G36*
X3501Y12553D02*
X3502Y12552D01*
X3504Y12551D01*
X3507Y12549D01*
X3510Y12547D01*
X3511Y12546D01*
X3513Y12544D01*
X3516Y12542D01*
X3518Y12539D01*
X3519Y12538D01*
X3519Y12536D01*
X3521Y12533D01*
X3523Y12529D01*
Y12528D01*
X3523Y12526D01*
X3523Y12523D01*
X3524Y12520D01*
Y12494D01*
X3151Y12640D01*
X3150D01*
X3149Y12641D01*
X3147Y12641D01*
X3144Y12643D01*
X3140Y12647D01*
X3135Y12652D01*
X3134Y12652D01*
X3133Y12653D01*
X3133Y12655D01*
X3131Y12657D01*
X3131Y12660D01*
X3130Y12663D01*
X3129Y12667D01*
Y12671D01*
Y12697D01*
X3501Y12553D01*
D02*
G37*
G36*
X3500Y12713D02*
X3478D01*
X3476Y12713D01*
X3471Y12714D01*
X3467Y12715D01*
X3467D01*
X3466Y12716D01*
X3462Y12717D01*
X3458Y12720D01*
X3454Y12724D01*
X3344Y12833D01*
X3343Y12834D01*
X3341Y12836D01*
X3339Y12838D01*
X3336Y12842D01*
X3331Y12845D01*
X3327Y12850D01*
X3318Y12858D01*
X3317Y12858D01*
X3316Y12860D01*
X3313Y12862D01*
X3309Y12864D01*
X3305Y12867D01*
X3301Y12870D01*
X3292Y12876D01*
X3291Y12877D01*
X3290Y12877D01*
X3288Y12879D01*
X3284Y12880D01*
X3280Y12882D01*
X3276Y12884D01*
X3267Y12887D01*
X3266D01*
X3264Y12888D01*
X3262Y12889D01*
X3259Y12889D01*
X3255Y12890D01*
X3250Y12891D01*
X3239Y12891D01*
X3235D01*
X3232Y12891D01*
X3225Y12890D01*
X3217Y12887D01*
X3216D01*
X3216Y12887D01*
X3214Y12886D01*
X3211Y12885D01*
X3206Y12881D01*
X3201Y12877D01*
X3200Y12876D01*
X3200Y12876D01*
X3198Y12874D01*
X3196Y12872D01*
X3193Y12867D01*
X3190Y12860D01*
Y12860D01*
X3189Y12859D01*
X3189Y12857D01*
X3188Y12854D01*
X3187Y12851D01*
X3187Y12847D01*
X3187Y12839D01*
Y12838D01*
Y12835D01*
X3187Y12831D01*
X3188Y12826D01*
X3189Y12820D01*
X3192Y12814D01*
X3194Y12808D01*
X3198Y12802D01*
X3198Y12801D01*
X3200Y12799D01*
X3203Y12797D01*
X3206Y12794D01*
X3210Y12791D01*
X3216Y12787D01*
X3221Y12784D01*
X3228Y12782D01*
X3228D01*
X3230Y12781D01*
X3231Y12781D01*
X3234Y12780D01*
X3238Y12777D01*
X3242Y12774D01*
X3243Y12773D01*
X3244Y12770D01*
X3246Y12766D01*
X3246Y12760D01*
Y12759D01*
Y12757D01*
X3246Y12754D01*
X3245Y12751D01*
X3239Y12719D01*
X3239D01*
X3237Y12719D01*
X3235Y12720D01*
X3230Y12721D01*
X3224Y12722D01*
X3217Y12724D01*
X3210Y12727D01*
X3201Y12730D01*
X3194Y12733D01*
X3193Y12734D01*
X3191Y12735D01*
X3187Y12738D01*
X3183Y12741D01*
X3177Y12745D01*
X3171Y12749D01*
X3166Y12755D01*
X3161Y12760D01*
X3160Y12761D01*
X3159Y12763D01*
X3156Y12766D01*
X3153Y12771D01*
X3151Y12776D01*
X3147Y12783D01*
X3144Y12790D01*
X3142Y12797D01*
X3141Y12798D01*
X3140Y12801D01*
X3140Y12805D01*
X3138Y12811D01*
X3137Y12817D01*
X3135Y12825D01*
X3135Y12833D01*
X3135Y12842D01*
Y12843D01*
Y12843D01*
Y12846D01*
X3135Y12851D01*
X3135Y12857D01*
X3137Y12864D01*
X3137Y12872D01*
X3140Y12880D01*
X3142Y12888D01*
X3142Y12889D01*
X3144Y12891D01*
X3145Y12895D01*
X3147Y12900D01*
X3151Y12906D01*
X3154Y12912D01*
X3158Y12918D01*
X3163Y12923D01*
X3164Y12924D01*
X3165Y12926D01*
X3169Y12928D01*
X3172Y12932D01*
X3177Y12935D01*
X3183Y12939D01*
X3189Y12943D01*
X3196Y12946D01*
X3196Y12947D01*
X3199Y12948D01*
X3203Y12949D01*
X3208Y12951D01*
X3214Y12952D01*
X3221Y12953D01*
X3229Y12954D01*
X3237Y12955D01*
X3241D01*
X3244Y12954D01*
X3250D01*
X3255Y12953D01*
X3262Y12952D01*
X3268Y12951D01*
X3275Y12949D01*
X3275Y12948D01*
X3277Y12948D01*
X3280Y12946D01*
X3285Y12945D01*
X3290Y12942D01*
X3295Y12939D01*
X3307Y12933D01*
X3307Y12932D01*
X3309Y12931D01*
X3313Y12929D01*
X3316Y12926D01*
X3321Y12923D01*
X3326Y12919D01*
X3331Y12915D01*
X3337Y12910D01*
X3338Y12909D01*
X3340Y12908D01*
X3343Y12905D01*
X3346Y12901D01*
X3350Y12897D01*
X3356Y12893D01*
X3367Y12882D01*
X3450Y12801D01*
Y12801D01*
X3449Y12803D01*
X3449Y12805D01*
X3448Y12808D01*
X3447Y12812D01*
X3446Y12816D01*
X3444Y12824D01*
Y12825D01*
X3444Y12826D01*
Y12828D01*
X3444Y12831D01*
X3443Y12838D01*
X3442Y12846D01*
Y12939D01*
Y12939D01*
Y12940D01*
X3443Y12942D01*
Y12945D01*
X3445Y12950D01*
X3447Y12952D01*
X3449Y12955D01*
Y12955D01*
X3449Y12956D01*
X3453Y12958D01*
X3457Y12960D01*
X3460Y12961D01*
X3500D01*
Y12713D01*
D02*
G37*
G36*
X3392Y12482D02*
X3398Y12481D01*
X3406Y12480D01*
X3413Y12478D01*
X3422Y12476D01*
X3430Y12473D01*
X3431Y12472D01*
X3433Y12471D01*
X3438Y12469D01*
X3443Y12466D01*
X3449Y12462D01*
X3456Y12458D01*
X3462Y12453D01*
X3469Y12447D01*
X3469Y12446D01*
X3471Y12444D01*
X3474Y12440D01*
X3478Y12436D01*
X3482Y12430D01*
X3487Y12423D01*
X3490Y12415D01*
X3494Y12407D01*
Y12406D01*
X3495Y12406D01*
X3496Y12403D01*
X3498Y12398D01*
X3499Y12391D01*
X3501Y12384D01*
X3503Y12375D01*
X3503Y12365D01*
X3504Y12355D01*
Y12354D01*
Y12353D01*
Y12352D01*
Y12350D01*
X3503Y12344D01*
X3503Y12337D01*
X3502Y12329D01*
X3500Y12321D01*
X3498Y12312D01*
X3495Y12303D01*
X3494Y12302D01*
X3493Y12299D01*
X3491Y12295D01*
X3488Y12289D01*
X3485Y12283D01*
X3480Y12276D01*
X3475Y12270D01*
X3469Y12263D01*
X3468Y12263D01*
X3466Y12261D01*
X3462Y12258D01*
X3458Y12254D01*
X3452Y12250D01*
X3445Y12246D01*
X3438Y12242D01*
X3429Y12238D01*
X3428D01*
X3428Y12238D01*
X3425Y12237D01*
X3420Y12236D01*
X3413Y12234D01*
X3406Y12232D01*
X3397Y12231D01*
X3388Y12230D01*
X3377Y12230D01*
X3372D01*
X3368Y12230D01*
X3361Y12231D01*
X3353Y12232D01*
X3345Y12234D01*
X3335Y12237D01*
X3325Y12240D01*
X3325D01*
X3324Y12241D01*
X3322Y12241D01*
X3320Y12242D01*
X3315Y12245D01*
X3308Y12248D01*
X3300Y12253D01*
X3290Y12258D01*
X3280Y12265D01*
X3269Y12272D01*
X3153Y12359D01*
X3153D01*
X3152Y12360D01*
X3149Y12362D01*
X3146Y12366D01*
X3143Y12372D01*
Y12372D01*
X3142Y12373D01*
X3142Y12375D01*
X3140Y12377D01*
X3140Y12380D01*
X3139Y12384D01*
X3138Y12392D01*
Y12447D01*
X3270Y12339D01*
X3271Y12339D01*
X3273Y12337D01*
X3275Y12335D01*
X3278Y12333D01*
X3279Y12332D01*
X3280Y12331D01*
X3282Y12329D01*
X3286Y12327D01*
Y12327D01*
X3284Y12329D01*
X3284Y12331D01*
X3282Y12334D01*
X3282Y12337D01*
X3280Y12341D01*
X3277Y12349D01*
Y12350D01*
X3277Y12351D01*
X3277Y12354D01*
X3275Y12357D01*
X3275Y12361D01*
X3275Y12366D01*
X3274Y12376D01*
Y12377D01*
Y12379D01*
X3275Y12383D01*
X3275Y12388D01*
X3275Y12394D01*
X3277Y12401D01*
X3279Y12408D01*
X3281Y12415D01*
X3282Y12416D01*
X3282Y12419D01*
X3284Y12422D01*
X3286Y12427D01*
X3289Y12432D01*
X3293Y12438D01*
X3297Y12444D01*
X3302Y12449D01*
X3302Y12450D01*
X3304Y12452D01*
X3307Y12454D01*
X3311Y12458D01*
X3316Y12462D01*
X3322Y12466D01*
X3328Y12470D01*
X3336Y12473D01*
X3336Y12474D01*
X3339Y12475D01*
X3343Y12476D01*
X3349Y12478D01*
X3356Y12479D01*
X3363Y12481D01*
X3372Y12482D01*
X3383Y12482D01*
X3387D01*
X3392Y12482D01*
D02*
G37*
G36*
X3331Y11519D02*
X3336D01*
X3341Y11519D01*
X3347Y11518D01*
X3360Y11517D01*
X3374Y11515D01*
X3388Y11513D01*
X3401Y11509D01*
X3402D01*
X3403Y11509D01*
X3405Y11508D01*
X3408Y11507D01*
X3410Y11506D01*
X3414Y11505D01*
X3422Y11502D01*
X3431Y11498D01*
X3440Y11493D01*
X3451Y11488D01*
X3460Y11481D01*
X3460Y11480D01*
X3463Y11478D01*
X3467Y11474D01*
X3472Y11469D01*
X3478Y11463D01*
X3483Y11456D01*
X3489Y11448D01*
X3493Y11439D01*
Y11439D01*
X3494Y11438D01*
X3494Y11437D01*
X3494Y11435D01*
X3496Y11430D01*
X3498Y11424D01*
X3501Y11416D01*
X3503Y11407D01*
X3503Y11397D01*
X3504Y11387D01*
Y11386D01*
Y11385D01*
Y11384D01*
Y11382D01*
X3503Y11376D01*
X3503Y11370D01*
X3501Y11361D01*
X3499Y11353D01*
X3496Y11343D01*
X3493Y11334D01*
Y11334D01*
X3492Y11333D01*
X3491Y11330D01*
X3489Y11326D01*
X3485Y11320D01*
X3480Y11313D01*
X3474Y11306D01*
X3467Y11299D01*
X3460Y11292D01*
X3459D01*
X3458Y11291D01*
X3457Y11291D01*
X3456Y11289D01*
X3451Y11286D01*
X3444Y11282D01*
X3435Y11278D01*
X3426Y11273D01*
X3414Y11269D01*
X3401Y11265D01*
X3401D01*
X3400Y11264D01*
X3398Y11264D01*
X3395Y11263D01*
X3392Y11262D01*
X3388Y11262D01*
X3383Y11261D01*
X3378Y11260D01*
X3372Y11259D01*
X3366Y11258D01*
X3352Y11256D01*
X3336Y11255D01*
X3320Y11255D01*
X3311D01*
X3307Y11255D01*
X3302D01*
X3298Y11256D01*
X3291Y11256D01*
X3279Y11257D01*
X3265Y11259D01*
X3251Y11261D01*
X3237Y11265D01*
X3237D01*
X3236Y11265D01*
X3234Y11266D01*
X3232Y11267D01*
X3228Y11268D01*
X3225Y11269D01*
X3217Y11272D01*
X3208Y11276D01*
X3198Y11281D01*
X3189Y11286D01*
X3180Y11292D01*
X3180D01*
X3179Y11293D01*
X3176Y11295D01*
X3172Y11299D01*
X3167Y11304D01*
X3162Y11310D01*
X3156Y11318D01*
X3151Y11326D01*
X3146Y11334D01*
Y11335D01*
X3146Y11335D01*
X3145Y11337D01*
X3144Y11338D01*
X3142Y11343D01*
X3140Y11350D01*
X3138Y11358D01*
X3137Y11367D01*
X3135Y11376D01*
X3135Y11387D01*
Y11387D01*
Y11388D01*
Y11390D01*
Y11392D01*
X3135Y11397D01*
X3136Y11404D01*
X3137Y11412D01*
X3140Y11421D01*
X3142Y11430D01*
X3146Y11439D01*
Y11440D01*
X3146Y11440D01*
X3148Y11443D01*
X3151Y11448D01*
X3155Y11454D01*
X3159Y11460D01*
X3165Y11467D01*
X3172Y11474D01*
X3180Y11481D01*
X3181Y11482D01*
X3184Y11484D01*
X3189Y11487D01*
X3196Y11492D01*
X3204Y11496D01*
X3214Y11501D01*
X3225Y11505D01*
X3237Y11509D01*
X3238D01*
X3239Y11510D01*
X3241Y11510D01*
X3243Y11511D01*
X3247Y11512D01*
X3251Y11513D01*
X3255Y11514D01*
X3261Y11515D01*
X3266Y11515D01*
X3273Y11516D01*
X3286Y11518D01*
X3302Y11519D01*
X3320Y11520D01*
X3327D01*
X3331Y11519D01*
D02*
G37*
G36*
Y12195D02*
X3336D01*
X3341Y12195D01*
X3347Y12194D01*
X3360Y12193D01*
X3374Y12191D01*
X3388Y12189D01*
X3401Y12185D01*
X3402D01*
X3403Y12185D01*
X3405Y12184D01*
X3408Y12183D01*
X3410Y12182D01*
X3414Y12181D01*
X3422Y12178D01*
X3431Y12174D01*
X3440Y12169D01*
X3451Y12164D01*
X3460Y12157D01*
X3460Y12156D01*
X3463Y12154D01*
X3467Y12150D01*
X3472Y12145D01*
X3478Y12139D01*
X3483Y12132D01*
X3489Y12124D01*
X3493Y12115D01*
Y12115D01*
X3494Y12114D01*
X3494Y12113D01*
X3494Y12111D01*
X3496Y12106D01*
X3498Y12100D01*
X3501Y12092D01*
X3503Y12083D01*
X3503Y12073D01*
X3504Y12063D01*
Y12062D01*
Y12061D01*
Y12060D01*
Y12058D01*
X3503Y12052D01*
X3503Y12046D01*
X3501Y12037D01*
X3499Y12029D01*
X3496Y12019D01*
X3493Y12010D01*
Y12010D01*
X3492Y12009D01*
X3491Y12006D01*
X3489Y12002D01*
X3485Y11996D01*
X3480Y11989D01*
X3474Y11982D01*
X3467Y11975D01*
X3460Y11968D01*
X3459D01*
X3458Y11967D01*
X3457Y11967D01*
X3456Y11965D01*
X3451Y11962D01*
X3444Y11958D01*
X3435Y11954D01*
X3426Y11949D01*
X3414Y11945D01*
X3401Y11941D01*
X3401D01*
X3400Y11940D01*
X3398Y11940D01*
X3395Y11939D01*
X3392Y11938D01*
X3388Y11938D01*
X3383Y11937D01*
X3378Y11936D01*
X3372Y11935D01*
X3366Y11934D01*
X3352Y11932D01*
X3336Y11931D01*
X3320Y11931D01*
X3311D01*
X3307Y11931D01*
X3302D01*
X3298Y11932D01*
X3291Y11932D01*
X3279Y11933D01*
X3265Y11935D01*
X3251Y11937D01*
X3237Y11941D01*
X3237D01*
X3236Y11941D01*
X3234Y11942D01*
X3232Y11943D01*
X3228Y11944D01*
X3225Y11945D01*
X3217Y11948D01*
X3208Y11952D01*
X3198Y11957D01*
X3189Y11962D01*
X3180Y11968D01*
X3180D01*
X3179Y11969D01*
X3176Y11971D01*
X3172Y11975D01*
X3167Y11980D01*
X3162Y11986D01*
X3156Y11994D01*
X3151Y12002D01*
X3146Y12010D01*
Y12011D01*
X3146Y12011D01*
X3145Y12013D01*
X3144Y12014D01*
X3142Y12019D01*
X3140Y12026D01*
X3138Y12034D01*
X3137Y12043D01*
X3135Y12052D01*
X3135Y12063D01*
Y12063D01*
Y12064D01*
Y12066D01*
Y12068D01*
X3135Y12073D01*
X3136Y12080D01*
X3137Y12088D01*
X3140Y12097D01*
X3142Y12106D01*
X3146Y12115D01*
Y12116D01*
X3146Y12116D01*
X3148Y12119D01*
X3151Y12124D01*
X3155Y12130D01*
X3159Y12136D01*
X3165Y12143D01*
X3172Y12150D01*
X3180Y12157D01*
X3181Y12158D01*
X3184Y12160D01*
X3189Y12163D01*
X3196Y12168D01*
X3204Y12172D01*
X3214Y12177D01*
X3225Y12181D01*
X3237Y12185D01*
X3238D01*
X3239Y12186D01*
X3241Y12186D01*
X3243Y12187D01*
X3247Y12188D01*
X3251Y12189D01*
X3255Y12190D01*
X3261Y12191D01*
X3266Y12191D01*
X3273Y12192D01*
X3286Y12194D01*
X3302Y12195D01*
X3320Y12196D01*
X3327D01*
X3331Y12195D01*
D02*
G37*
G36*
X2583Y14205D02*
X2589D01*
X2597Y14204D01*
X2605Y14204D01*
X2621Y14202D01*
X2640Y14200D01*
X2659Y14196D01*
X2677Y14192D01*
X2677D01*
X2679Y14191D01*
X2681Y14190D01*
X2685Y14189D01*
X2689Y14188D01*
X2693Y14186D01*
X2704Y14182D01*
X2716Y14177D01*
X2729Y14170D01*
X2742Y14163D01*
X2754Y14154D01*
X2755Y14153D01*
X2759Y14150D01*
X2764Y14145D01*
X2771Y14138D01*
X2778Y14130D01*
X2785Y14121D01*
X2793Y14110D01*
X2799Y14098D01*
Y14098D01*
X2799Y14097D01*
X2800Y14095D01*
X2801Y14093D01*
X2803Y14086D01*
X2806Y14078D01*
X2809Y14067D01*
X2811Y14055D01*
X2813Y14042D01*
X2813Y14028D01*
Y14028D01*
Y14026D01*
Y14024D01*
Y14022D01*
X2813Y14014D01*
X2811Y14006D01*
X2810Y13994D01*
X2807Y13983D01*
X2803Y13970D01*
X2799Y13958D01*
Y13958D01*
X2798Y13957D01*
X2796Y13953D01*
X2793Y13947D01*
X2787Y13940D01*
X2781Y13931D01*
X2773Y13921D01*
X2765Y13912D01*
X2754Y13903D01*
X2753D01*
X2753Y13901D01*
X2751Y13901D01*
X2749Y13899D01*
X2742Y13895D01*
X2733Y13889D01*
X2721Y13883D01*
X2709Y13877D01*
X2693Y13871D01*
X2677Y13866D01*
X2676D01*
X2675Y13865D01*
X2672Y13865D01*
X2669Y13864D01*
X2664Y13863D01*
X2659Y13862D01*
X2653Y13861D01*
X2645Y13859D01*
X2638Y13858D01*
X2629Y13857D01*
X2611Y13855D01*
X2590Y13853D01*
X2567Y13853D01*
X2557D01*
X2551Y13853D01*
X2545D01*
X2538Y13854D01*
X2530Y13855D01*
X2513Y13856D01*
X2495Y13858D01*
X2476Y13861D01*
X2458Y13866D01*
X2458D01*
X2456Y13867D01*
X2454Y13867D01*
X2450Y13869D01*
X2446Y13870D01*
X2442Y13871D01*
X2431Y13875D01*
X2419Y13881D01*
X2406Y13887D01*
X2394Y13895D01*
X2382Y13903D01*
X2381D01*
X2380Y13904D01*
X2376Y13907D01*
X2371Y13912D01*
X2364Y13919D01*
X2357Y13927D01*
X2350Y13937D01*
X2342Y13947D01*
X2336Y13958D01*
Y13959D01*
X2336Y13960D01*
X2335Y13962D01*
X2334Y13964D01*
X2332Y13970D01*
X2328Y13979D01*
X2326Y13990D01*
X2324Y14002D01*
X2322Y14014D01*
X2321Y14028D01*
Y14029D01*
Y14030D01*
Y14032D01*
Y14035D01*
X2322Y14042D01*
X2323Y14051D01*
X2325Y14062D01*
X2328Y14074D01*
X2331Y14086D01*
X2336Y14098D01*
Y14099D01*
X2337Y14100D01*
X2339Y14104D01*
X2342Y14110D01*
X2348Y14118D01*
X2354Y14126D01*
X2362Y14136D01*
X2371Y14145D01*
X2382Y14154D01*
X2383Y14156D01*
X2387Y14158D01*
X2394Y14162D01*
X2402Y14168D01*
X2414Y14174D01*
X2426Y14180D01*
X2442Y14186D01*
X2458Y14192D01*
X2459D01*
X2460Y14192D01*
X2463Y14193D01*
X2466Y14194D01*
X2471Y14195D01*
X2476Y14196D01*
X2482Y14198D01*
X2489Y14199D01*
X2497Y14200D01*
X2505Y14201D01*
X2524Y14204D01*
X2545Y14205D01*
X2567Y14206D01*
X2578D01*
X2583Y14205D01*
D02*
G37*
G36*
X1659Y11599D02*
X1662Y11560D01*
X1651Y11490D01*
X1616Y11436D01*
X1559Y11401D01*
X1481Y11388D01*
X1011D01*
Y11306D01*
X937D01*
Y11388D01*
X772D01*
X738Y11500D01*
X742Y11505D01*
X937D01*
Y11631D01*
X1011D01*
Y11505D01*
X1481D01*
X1523Y11511D01*
X1554Y11528D01*
X1574Y11556D01*
X1581Y11595D01*
X1576Y11625D01*
X1581Y11631D01*
X1650D01*
X1659Y11599D01*
D02*
G37*
G36*
X1652Y12663D02*
X1657Y12658D01*
X1657Y12546D01*
X1657D01*
Y12546D01*
X1656Y12545D01*
X1656Y12545D01*
X1155Y12545D01*
Y12545D01*
D01*
D01*
Y12545D01*
X1155Y12545D01*
X1155Y12545D01*
X1155Y12545D01*
Y12545D01*
D01*
D01*
Y12545D01*
X1121Y12543D01*
X1091Y12536D01*
X1064Y12526D01*
X1042Y12510D01*
X1024Y12490D01*
X1011Y12465D01*
X1003Y12434D01*
X1000Y12398D01*
X1005Y12356D01*
X1018Y12319D01*
X1039Y12287D01*
X1067Y12259D01*
X1652D01*
X1657Y12254D01*
X1657Y12142D01*
X1657D01*
Y12142D01*
X1656Y12141D01*
X1656Y12141D01*
X1136Y12141D01*
Y12141D01*
D01*
D01*
Y12141D01*
X1136Y12141D01*
X1136Y12141D01*
X1136Y12141D01*
Y12141D01*
D01*
D01*
Y12141D01*
X1107Y12139D01*
X1080Y12132D01*
X1057Y12121D01*
X1037Y12105D01*
X1021Y12085D01*
X1010Y12059D01*
X1002Y12027D01*
X1000Y11990D01*
X1005Y11918D01*
X1024Y11857D01*
X1652D01*
X1657Y11852D01*
X1657Y11740D01*
X1657D01*
Y11740D01*
X1656Y11739D01*
X1656Y11739D01*
X975Y11739D01*
Y11739D01*
X975D01*
X974Y11739D01*
X974Y11739D01*
X937Y11852D01*
X937Y11852D01*
X937Y11852D01*
X923Y11986D01*
X923D01*
X923Y11986D01*
X923Y11986D01*
D01*
X923D01*
D01*
D01*
X923Y11986D01*
Y11986D01*
D01*
Y11986D01*
Y11986D01*
X923D01*
D01*
D01*
D01*
X929Y12059D01*
D01*
D01*
D01*
D01*
D01*
D01*
X929D01*
D01*
D01*
X929Y12059D01*
D01*
D01*
D01*
D01*
Y12059D01*
D01*
D01*
D01*
Y12059D01*
X945Y12117D01*
D01*
D01*
D01*
D01*
D01*
D01*
D01*
D01*
X945D01*
Y12117D01*
D01*
D01*
D01*
D01*
D01*
Y12117D01*
X971Y12164D01*
X971Y12164D01*
X971Y12164D01*
X971Y12164D01*
Y12164D01*
D01*
D01*
D01*
X971Y12164D01*
D01*
X971Y12165D01*
D01*
Y12165D01*
D01*
D01*
D01*
D01*
D01*
D01*
D01*
D01*
D01*
D01*
D01*
D01*
D01*
D01*
D01*
D01*
D01*
D01*
D01*
D01*
D01*
D01*
D01*
D01*
D01*
Y12165D01*
D01*
D01*
Y12165D01*
D01*
D01*
D01*
X971D01*
D01*
D01*
D01*
X1007Y12202D01*
X972Y12242D01*
X972D01*
Y12242D01*
D01*
D01*
D01*
D01*
D01*
D01*
D01*
D01*
D01*
D01*
D01*
D01*
D01*
D01*
D01*
D01*
Y12242D01*
D01*
D01*
D01*
D01*
D01*
D01*
D01*
D01*
D01*
D01*
D01*
D01*
D01*
D01*
D01*
Y12242D01*
X972D01*
X946Y12291D01*
X946Y12291D01*
X946D01*
D01*
X946Y12291D01*
D01*
D01*
D01*
D01*
D01*
D01*
D01*
D01*
X946Y12291D01*
X946Y12291D01*
X946Y12291D01*
X929Y12347D01*
X929D01*
X929Y12347D01*
X929Y12347D01*
D01*
D01*
Y12347D01*
D01*
D01*
D01*
D01*
D01*
X929Y12347D01*
X929D01*
Y12347D01*
D01*
D01*
X923Y12408D01*
D01*
X923D01*
D01*
D01*
Y12408D01*
D01*
D01*
X923D01*
D01*
D01*
D01*
D01*
D01*
D01*
D01*
Y12408D01*
D01*
D01*
Y12408D01*
X923Y12409D01*
D01*
X940Y12523D01*
D01*
D01*
D01*
X940D01*
D01*
D01*
D01*
D01*
D01*
D01*
D01*
D01*
D01*
X940D01*
D01*
D01*
D01*
D01*
Y12523D01*
D01*
D01*
D01*
X940Y12523D01*
X954Y12546D01*
X988Y12602D01*
X988D01*
D01*
D01*
D01*
D01*
D01*
X988D01*
D01*
Y12602D01*
X988Y12602D01*
D01*
D01*
D01*
D01*
X988D01*
D01*
Y12602D01*
D01*
X988Y12602D01*
Y12602D01*
D01*
D01*
D01*
Y12602D01*
D01*
Y12602D01*
X988D01*
D01*
X1061Y12648D01*
X1061D01*
D01*
D01*
D01*
D01*
D01*
Y12648D01*
X1061D01*
D01*
D01*
D01*
D01*
D01*
X1061D01*
Y12648D01*
D01*
D01*
D01*
D01*
D01*
D01*
X1061Y12648D01*
D01*
X1061Y12648D01*
X1061Y12648D01*
D01*
X1062Y12648D01*
X1156Y12663D01*
X1156Y12663D01*
X1156D01*
X1156D01*
X1156Y12663D01*
Y12663D01*
D01*
X1652Y12663D01*
D02*
G37*
G36*
X1656Y12820D02*
X937D01*
Y12938D01*
X1656D01*
Y12820D01*
D02*
G37*
G36*
Y11110D02*
X1160D01*
X1089Y11101D01*
X1039Y11073D01*
X1009Y11023D01*
X999Y10948D01*
X1005Y10881D01*
X1023Y10822D01*
X1656D01*
Y10705D01*
X975D01*
X938Y10818D01*
X924Y10948D01*
X940Y11073D01*
X985Y11160D01*
X1059Y11210D01*
X1160Y11227D01*
X1656D01*
Y11110D01*
D02*
G37*
G36*
X826Y9810D02*
X837Y9810D01*
Y9810D01*
D01*
Y9810D01*
X837Y9810D01*
Y9810D01*
X837D01*
X837Y9810D01*
D01*
X837Y9810D01*
X1755D01*
X1785Y9806D01*
X1811Y9794D01*
X1834Y9777D01*
X1851Y9754D01*
X1851Y9754D01*
X1851D01*
D01*
D01*
D01*
D01*
D01*
D01*
D01*
D01*
D01*
D01*
D01*
D01*
D01*
D01*
D01*
D01*
X1851D01*
X1851D01*
X1851D01*
X1851D01*
X1851D01*
X1851Y9754D01*
X1851D01*
D01*
Y9754D01*
D01*
D01*
D01*
D01*
D01*
D01*
Y9754D01*
D01*
D01*
X1851D01*
X1851Y9754D01*
X1851Y9754D01*
X1851Y9754D01*
X1851Y9754D01*
X1851Y9754D01*
D01*
D01*
D01*
X1851D01*
D01*
D01*
D01*
X1851Y9754D01*
X1851Y9754D01*
Y9754D01*
D01*
D01*
D01*
X1851Y9754D01*
X1851Y9754D01*
Y9754D01*
X1851D01*
D01*
D01*
D01*
D01*
D01*
D01*
D01*
D01*
X1851D01*
D01*
D01*
D01*
D01*
D01*
X1851D01*
D01*
D01*
X1851D01*
X1851Y9754D01*
X1852Y9753D01*
X1852Y9753D01*
D01*
D01*
D01*
D01*
X1852Y9753D01*
Y9753D01*
X1852Y9753D01*
X1852Y9753D01*
Y9753D01*
D01*
D01*
D01*
D01*
D01*
D01*
D01*
D01*
D01*
D01*
X1852Y9753D01*
X1852Y9753D01*
X1853Y9751D01*
X1853Y9751D01*
X1853Y9751D01*
X1863Y9734D01*
X1888Y9690D01*
D01*
D01*
D01*
D01*
D01*
D01*
D01*
X1888Y9690D01*
D01*
D01*
D01*
X1888Y9690D01*
Y9690D01*
X1888D01*
D01*
Y9690D01*
X1888Y9690D01*
D01*
D01*
X1888D01*
D01*
X1925Y9626D01*
X1925Y9626D01*
D01*
D01*
D01*
D01*
D01*
D01*
D01*
D01*
D01*
D01*
D01*
D01*
D01*
X1925Y9626D01*
D01*
D01*
X1925D01*
Y9626D01*
X1925Y9626D01*
X1925Y9626D01*
Y9626D01*
X1925D01*
D01*
Y9626D01*
X1925Y9626D01*
D01*
D01*
D01*
X1925D01*
D01*
X1925D01*
D01*
D01*
D01*
D01*
D01*
D01*
D01*
D01*
D01*
D01*
D01*
D01*
D01*
D01*
D01*
X1925D01*
D01*
X1925Y9626D01*
D01*
X1925Y9626D01*
X1925Y9626D01*
X1968Y9552D01*
D01*
D01*
D01*
D01*
D01*
D01*
D01*
D01*
D01*
X1968Y9552D01*
D01*
D01*
D01*
D01*
D01*
D01*
D01*
D01*
D01*
D01*
D01*
D01*
D01*
D01*
D01*
X1968Y9552D01*
D01*
D01*
D01*
D01*
D01*
D01*
D01*
D01*
X1968Y9552D01*
Y9552D01*
Y9552D01*
D01*
D01*
D01*
D01*
X1968D01*
D01*
D01*
D01*
D01*
D01*
X1968Y9552D01*
D01*
D01*
D01*
Y9552D01*
D01*
D01*
D01*
D01*
X1968D01*
D01*
D01*
D01*
D01*
X1968D01*
D01*
D01*
D01*
D01*
D01*
D01*
D01*
D01*
D01*
D01*
D01*
D01*
X1968D01*
D01*
X1968Y9552D01*
D01*
X1968Y9552D01*
X1968D01*
X2011Y9478D01*
D01*
D01*
D01*
X2011Y9478D01*
D01*
D01*
D01*
D01*
D01*
D01*
D01*
D01*
X2011Y9478D01*
D01*
D01*
D01*
D01*
D01*
D01*
Y9478D01*
D01*
X2011Y9478D01*
X2011Y9478D01*
X2011Y9478D01*
D01*
D01*
D01*
D01*
X2011D01*
Y9478D01*
D01*
X2011D01*
X2011D01*
D01*
D01*
D01*
D01*
D01*
D01*
D01*
D01*
D01*
D01*
D01*
D01*
D01*
D01*
X2011D01*
Y9478D01*
D01*
D01*
X2011Y9478D01*
X2050Y9411D01*
D01*
D01*
D01*
D01*
D01*
D01*
D01*
X2050Y9411D01*
D01*
D01*
D01*
X2050Y9411D01*
Y9411D01*
X2050D01*
Y9411D01*
X2050Y9411D01*
D01*
X2050D01*
X2050D01*
X2079Y9360D01*
D01*
D01*
D01*
D01*
D01*
D01*
D01*
D01*
D01*
D01*
D01*
D01*
D01*
D01*
D01*
X2079Y9360D01*
D01*
D01*
D01*
D01*
D01*
D01*
D01*
D01*
D01*
D01*
D01*
D01*
X2079D01*
X2079D01*
X2079D01*
D01*
D01*
D01*
D01*
D01*
D01*
D01*
D01*
D01*
D01*
D01*
D01*
D01*
D01*
D01*
D01*
D01*
D01*
D01*
X2079D01*
X2079D01*
X2079Y9360D01*
D01*
D01*
D01*
D01*
D01*
D01*
D01*
Y9360D01*
D01*
D01*
D01*
D01*
X2079Y9360D01*
X2079Y9360D01*
X2079Y9360D01*
Y9360D01*
D01*
D01*
D01*
D01*
X2079D01*
X2079Y9360D01*
D01*
D01*
Y9360D01*
D01*
D01*
D01*
D01*
D01*
X2079D01*
D01*
D01*
D01*
D01*
D01*
D01*
D01*
D01*
X2079D01*
D01*
D01*
D01*
D01*
X2079D01*
D01*
D01*
D01*
D01*
D01*
D01*
D01*
D01*
D01*
D01*
D01*
D01*
D01*
D01*
D01*
X2079Y9360D01*
D01*
D01*
D01*
D01*
D01*
D01*
D01*
D01*
D01*
D01*
D01*
D01*
D01*
X2079D01*
Y9360D01*
D01*
D01*
D01*
D01*
D01*
D01*
X2079Y9360D01*
D01*
X2093Y9335D01*
X2093Y9335D01*
X2093Y9335D01*
X2303Y8971D01*
X2317Y8943D01*
X2321Y8911D01*
X2317Y8879D01*
X2304Y8851D01*
X2089Y8479D01*
X2089Y8478D01*
D01*
D01*
X2089Y8478D01*
X2089D01*
X2089Y8478D01*
X1854Y8072D01*
X1837Y8047D01*
X1814Y8027D01*
X1786Y8015D01*
X1755Y8010D01*
X1745Y8011D01*
D01*
Y8011D01*
D01*
Y8011D01*
D01*
D01*
D01*
D01*
X1745Y8011D01*
Y8011D01*
D01*
D01*
Y8011D01*
D01*
D01*
X1745D01*
X1745D01*
X1745D01*
D01*
D01*
D01*
D01*
D01*
X1745D01*
D01*
D01*
D01*
D01*
Y8011D01*
X1745Y8011D01*
X837Y8011D01*
D01*
D01*
Y8011D01*
D01*
Y8011D01*
D01*
D01*
D01*
D01*
X837D01*
D01*
D01*
D01*
D01*
D01*
D01*
D01*
D01*
X837D01*
D01*
D01*
D01*
X837Y8011D01*
X837Y8011D01*
D01*
D01*
D01*
D01*
D01*
Y8011D01*
D01*
D01*
D01*
X837Y8011D01*
X837Y8011D01*
X837Y8011D01*
Y8011D01*
D01*
D01*
X837D01*
D01*
X827Y8010D01*
X796Y8015D01*
X768Y8027D01*
X745Y8047D01*
X728Y8072D01*
X549Y8381D01*
D01*
D01*
X549D01*
D01*
D01*
D01*
X549Y8381D01*
D01*
D01*
D01*
D01*
D01*
X549Y8381D01*
Y8381D01*
X549Y8381D01*
D01*
D01*
D01*
D01*
D01*
D01*
X549D01*
X549D01*
X549Y8381D01*
X549Y8381D01*
X549Y8381D01*
D01*
D01*
X511Y8447D01*
X511Y8447D01*
X511Y8447D01*
X278Y8851D01*
X265Y8879D01*
X261Y8904D01*
X266Y8909D01*
Y8909D01*
X616D01*
X622Y8881D01*
X622Y8881D01*
D01*
D01*
D01*
D01*
D01*
D01*
D01*
D01*
D01*
D01*
D01*
D01*
D01*
D01*
D01*
D01*
D01*
D01*
D01*
D01*
D01*
D01*
D01*
D01*
D01*
D01*
X622D01*
D01*
D01*
D01*
D01*
D01*
D01*
D01*
D01*
D01*
D01*
D01*
D01*
D01*
D01*
X622D01*
X622Y8881D01*
X622D01*
X622D01*
X622D01*
X622D01*
X622Y8881D01*
X622D01*
D01*
Y8881D01*
Y8881D01*
X622Y8881D01*
Y8881D01*
D01*
D01*
D01*
X622Y8881D01*
D01*
X622Y8881D01*
D01*
D01*
D01*
X622Y8881D01*
X622Y8881D01*
X622Y8881D01*
D01*
D01*
D01*
X622Y8881D01*
X622Y8881D01*
X622Y8881D01*
D01*
D01*
D01*
X622D01*
D01*
D01*
D01*
X622D01*
D01*
D01*
D01*
D01*
D01*
D01*
D01*
D01*
D01*
D01*
D01*
D01*
D01*
X622D01*
X622D01*
X625Y8876D01*
X627Y8871D01*
X627D01*
D01*
D01*
D01*
D01*
D01*
D01*
D01*
X627D01*
D01*
D01*
D01*
D01*
D01*
D01*
D01*
D01*
D01*
D01*
D01*
D01*
D01*
D01*
D01*
D01*
D01*
D01*
D01*
X627D01*
D01*
D01*
D01*
D01*
D01*
D01*
D01*
D01*
D01*
D01*
D01*
D01*
D01*
D01*
D01*
D01*
X627Y8871D01*
X627D01*
X627D01*
X627D01*
X627Y8871D01*
D01*
D01*
D01*
X627Y8871D01*
D01*
X627Y8871D01*
X627Y8871D01*
D01*
Y8871D01*
D01*
X627D01*
X627Y8871D01*
D01*
D01*
D01*
D01*
Y8871D01*
X627Y8871D01*
D01*
D01*
D01*
X627Y8871D01*
X627Y8871D01*
Y8871D01*
D01*
D01*
D01*
D01*
D01*
X627D01*
D01*
D01*
D01*
D01*
D01*
Y8871D01*
D01*
D01*
D01*
D01*
D01*
D01*
D01*
D01*
D01*
X627D01*
D01*
D01*
X627D01*
D01*
D01*
X627D01*
D01*
X627Y8871D01*
X922Y8361D01*
D01*
D01*
D01*
D01*
D01*
D01*
D01*
D01*
D01*
D01*
D01*
D01*
D01*
D01*
D01*
D01*
D01*
D01*
D01*
D01*
D01*
D01*
X922D01*
D01*
D01*
D01*
D01*
D01*
D01*
D01*
D01*
D01*
D01*
D01*
D01*
D01*
D01*
D01*
D01*
D01*
D01*
D01*
D01*
D01*
D01*
D01*
D01*
D01*
D01*
D01*
D01*
D01*
D01*
D01*
D01*
D01*
D01*
D01*
X922D01*
D01*
D01*
D01*
D01*
D01*
D01*
D01*
D01*
D01*
D01*
D01*
D01*
D01*
D01*
D01*
D01*
D01*
D01*
D01*
D01*
D01*
D01*
D01*
D01*
D01*
D01*
D01*
D01*
D01*
D01*
D01*
D01*
D01*
D01*
X922D01*
Y8361D01*
D01*
D01*
Y8361D01*
D01*
X922D01*
X922Y8361D01*
Y8361D01*
D01*
D01*
D01*
D01*
D01*
X922Y8361D01*
X922Y8361D01*
X922Y8361D01*
D01*
D01*
D01*
D01*
D01*
X922Y8361D01*
D01*
X922Y8361D01*
X922Y8361D01*
Y8361D01*
D01*
D01*
D01*
D01*
X922D01*
D01*
D01*
D01*
D01*
D01*
D01*
D01*
D01*
D01*
D01*
D01*
D01*
D01*
D01*
D01*
D01*
D01*
D01*
D01*
D01*
D01*
X922Y8361D01*
D01*
D01*
D01*
D01*
D01*
D01*
D01*
D01*
D01*
D01*
D01*
D01*
D01*
D01*
D01*
D01*
D01*
D01*
D01*
D01*
D01*
D01*
D01*
D01*
D01*
D01*
D01*
X922D01*
D01*
D01*
D01*
D01*
D01*
D01*
D01*
D01*
Y8361D01*
D01*
D01*
X922D01*
X922Y8361D01*
X940Y8338D01*
X940D01*
D01*
D01*
Y8338D01*
X940Y8338D01*
X940Y8338D01*
D01*
D01*
D01*
D01*
D01*
D01*
D01*
D01*
D01*
D01*
D01*
D01*
X940D01*
X940Y8338D01*
X940D01*
D01*
D01*
X940D01*
D01*
X940D01*
D01*
D01*
D01*
D01*
D01*
Y8338D01*
D01*
D01*
D01*
X940Y8338D01*
X940Y8338D01*
D01*
D01*
D01*
X940Y8338D01*
X940Y8338D01*
X940Y8338D01*
D01*
D01*
D01*
D01*
D01*
X940D01*
D01*
D01*
D01*
D01*
D01*
X940D01*
D01*
X940Y8338D01*
X940Y8338D01*
D01*
X940D01*
D01*
D01*
D01*
D01*
D01*
D01*
D01*
D01*
D01*
D01*
D01*
D01*
D01*
D01*
D01*
D01*
D01*
D01*
D01*
D01*
D01*
D01*
D01*
D01*
X940Y8338D01*
D01*
D01*
D01*
D01*
D01*
D01*
X940Y8338D01*
D01*
D01*
D01*
D01*
X940Y8338D01*
D01*
X965Y8324D01*
X965Y8324D01*
X965Y8324D01*
X965Y8324D01*
X987Y8321D01*
X987Y8321D01*
X987D01*
X987Y8321D01*
X987Y8321D01*
X987Y8321D01*
Y8321D01*
D01*
D01*
D01*
D01*
D01*
D01*
X987Y8321D01*
D01*
D01*
X987Y8321D01*
X987Y8321D01*
X987Y8321D01*
X987D01*
D01*
D01*
D01*
D01*
D01*
D01*
D01*
D01*
D01*
Y8321D01*
X987Y8321D01*
X987Y8321D01*
X987Y8321D01*
X994Y8321D01*
X1588D01*
X1595Y8321D01*
D01*
D01*
X1595Y8321D01*
D01*
X1595D01*
D01*
D01*
D01*
X1595Y8321D01*
D01*
X1595Y8321D01*
D01*
D01*
D01*
D01*
X1595Y8321D01*
X1595D01*
D01*
D01*
D01*
D01*
D01*
X1595Y8321D01*
X1595Y8321D01*
D01*
D01*
D01*
D01*
D01*
D01*
D01*
X1595D01*
D01*
X1595Y8321D01*
D01*
D01*
D01*
D01*
D01*
D01*
D01*
D01*
D01*
D01*
Y8321D01*
D01*
D01*
Y8321D01*
D01*
D01*
D01*
D01*
D01*
D01*
D01*
D01*
D01*
D01*
D01*
D01*
D01*
D01*
D01*
D01*
D01*
D01*
X1595Y8321D01*
X1595Y8321D01*
X1595Y8321D01*
X1604Y8321D01*
D01*
X1604Y8321D01*
D01*
D01*
D01*
X1604D01*
X1604Y8321D01*
D01*
D01*
D01*
X1604D01*
D01*
D01*
D01*
D01*
D01*
D01*
X1604Y8321D01*
X1604Y8321D01*
X1604D01*
D01*
D01*
D01*
D01*
D01*
D01*
D01*
X1604D01*
X1604D01*
X1604D01*
X1623Y8327D01*
X1623Y8327D01*
X1623Y8327D01*
X1624Y8327D01*
X1624D01*
D01*
X1624Y8327D01*
X1624Y8327D01*
X1624Y8327D01*
X1624Y8327D01*
D01*
D01*
D01*
X1624D01*
X1624Y8327D01*
D01*
D01*
D01*
X1624Y8327D01*
D01*
X1624Y8327D01*
X1624Y8327D01*
D01*
D01*
D01*
D01*
D01*
D01*
D01*
D01*
D01*
D01*
D01*
X1624D01*
D01*
D01*
D01*
Y8327D01*
D01*
D01*
D01*
D01*
D01*
D01*
D01*
D01*
D01*
D01*
D01*
D01*
D01*
D01*
D01*
D01*
D01*
D01*
D01*
D01*
D01*
D01*
D01*
D01*
D01*
D01*
D01*
Y8327D01*
D01*
D01*
X1624D01*
D01*
D01*
X1624Y8327D01*
X1633Y8333D01*
X1642Y8339D01*
D01*
X1642Y8339D01*
D01*
D01*
X1642D01*
D01*
D01*
D01*
X1642D01*
D01*
X1642Y8339D01*
X1642D01*
X1642D01*
X1642Y8339D01*
X1642Y8339D01*
X1642D01*
D01*
D01*
D01*
D01*
D01*
D01*
X1642Y8339D01*
D01*
D01*
D01*
D01*
X1642D01*
D01*
D01*
D01*
D01*
D01*
D01*
D01*
D01*
D01*
D01*
D01*
D01*
D01*
D01*
D01*
D01*
D01*
D01*
D01*
X1642Y8339D01*
D01*
D01*
D01*
D01*
D01*
Y8339D01*
D01*
D01*
D01*
D01*
D01*
D01*
D01*
D01*
D01*
D01*
D01*
D01*
D01*
D01*
Y8339D01*
D01*
D01*
D01*
D01*
D01*
D01*
D01*
D01*
D01*
D01*
D01*
Y8339D01*
D01*
D01*
D01*
D01*
D01*
D01*
D01*
D01*
D01*
D01*
D01*
D01*
D01*
D01*
D01*
D01*
D01*
D01*
D01*
D01*
D01*
D01*
D01*
D01*
D01*
D01*
D01*
D01*
Y8339D01*
D01*
D01*
X1642D01*
D01*
D01*
D01*
D01*
D01*
D01*
D01*
D01*
D01*
D01*
D01*
D01*
D01*
D01*
X1642Y8339D01*
X1642Y8339D01*
X1649Y8345D01*
D01*
X1649Y8345D01*
D01*
D01*
D01*
X1649Y8345D01*
X1649Y8345D01*
Y8345D01*
D01*
D01*
D01*
D01*
D01*
D01*
Y8345D01*
X1649Y8345D01*
Y8345D01*
D01*
D01*
X1649D01*
D01*
D01*
X1649D01*
D01*
X1649D01*
D01*
D01*
D01*
D01*
X1649D01*
D01*
D01*
Y8345D01*
D01*
Y8345D01*
D01*
Y8345D01*
D01*
D01*
D01*
D01*
D01*
D01*
D01*
D01*
D01*
D01*
X1649Y8345D01*
Y8345D01*
D01*
X1654Y8350D01*
X1654D01*
D01*
D01*
D01*
X1654Y8350D01*
D01*
X1654D01*
D01*
D01*
D01*
D01*
D01*
D01*
D01*
D01*
D01*
D01*
D01*
X1654D01*
D01*
D01*
Y8350D01*
D01*
D01*
X1654D01*
D01*
D01*
D01*
D01*
D01*
D01*
D01*
D01*
D01*
D01*
D01*
X1654D01*
D01*
D01*
X1654Y8350D01*
X1654D01*
D01*
D01*
D01*
D01*
D01*
D01*
D01*
D01*
Y8350D01*
D01*
X1654Y8350D01*
X1660Y8361D01*
D01*
X1954Y8871D01*
Y8871D01*
X1954Y8871D01*
X1954D01*
D01*
D01*
D01*
D01*
D01*
D01*
Y8871D01*
D01*
D01*
X1954D01*
D01*
D01*
D01*
D01*
X1954D01*
D01*
D01*
D01*
D01*
D01*
X1954D01*
Y8871D01*
D01*
X1954Y8871D01*
X1954Y8871D01*
X1954Y8871D01*
D01*
D01*
D01*
Y8871D01*
D01*
X1954Y8871D01*
D01*
D01*
D01*
D01*
D01*
D01*
D01*
D01*
D01*
X1954Y8871D01*
D01*
D01*
D01*
D01*
D01*
D01*
D01*
D01*
D01*
D01*
D01*
D01*
D01*
D01*
D01*
Y8871D01*
Y8871D01*
D01*
X1957Y8878D01*
X1964Y8896D01*
Y8896D01*
X1964Y8896D01*
D01*
D01*
Y8896D01*
X1964Y8896D01*
D01*
D01*
D01*
D01*
D01*
D01*
D01*
Y8896D01*
D01*
D01*
D01*
D01*
D01*
Y8896D01*
D01*
D01*
D01*
D01*
X1964D01*
X1964Y8896D01*
X1964Y8896D01*
X1964Y8896D01*
D01*
X1965Y8903D01*
X1966Y8911D01*
X1966Y8911D01*
X1966Y8911D01*
D01*
D01*
D01*
X1966D01*
D01*
D01*
D01*
D01*
D01*
X1966Y8911D01*
X1966D01*
D01*
D01*
Y8911D01*
D01*
X1966Y8911D01*
D01*
D01*
D01*
D01*
D01*
D01*
D01*
D01*
D01*
D01*
D01*
D01*
D01*
D01*
D01*
X1966Y8911D01*
D01*
D01*
D01*
Y8911D01*
D01*
D01*
D01*
D01*
D01*
D01*
D01*
D01*
X1966D01*
D01*
D01*
D01*
D01*
D01*
D01*
X1966Y8911D01*
X1966Y8911D01*
X1963Y8932D01*
Y8932D01*
D01*
D01*
D01*
D01*
Y8932D01*
D01*
X1963Y8932D01*
X1963D01*
X1963Y8932D01*
X1954Y8951D01*
D01*
D01*
D01*
X1954D01*
D01*
D01*
D01*
X1954D01*
Y8951D01*
D01*
D01*
D01*
D01*
D01*
D01*
D01*
X1954Y8951D01*
Y8951D01*
X1954Y8951D01*
Y8951D01*
D01*
D01*
D01*
D01*
D01*
X1954D01*
D01*
D01*
D01*
D01*
Y8951D01*
D01*
D01*
D01*
D01*
D01*
D01*
X1954D01*
X1954D01*
X1954D01*
Y8951D01*
D01*
X1954D01*
D01*
D01*
D01*
D01*
Y8951D01*
D01*
X1935Y8983D01*
X1935Y8983D01*
X1935Y8983D01*
Y8983D01*
D01*
X1935Y8983D01*
D01*
Y8983D01*
D01*
D01*
D01*
X1935Y8983D01*
D01*
X1935D01*
D01*
D01*
D01*
X1935D01*
X1935Y8983D01*
X1935D01*
X1923Y9004D01*
X1923D01*
X1923Y9004D01*
X1923Y9004D01*
X1923Y9004D01*
X1923D01*
X1892Y9058D01*
X1892Y9058D01*
X1892Y9058D01*
X1847Y9135D01*
X1847Y9135D01*
X1796Y9224D01*
X1796D01*
X1796Y9224D01*
X1796Y9224D01*
D01*
X1796Y9224D01*
D01*
D01*
X1796D01*
X1796D01*
X1796D01*
X1745Y9312D01*
X1745Y9312D01*
X1701Y9389D01*
X1701Y9389D01*
X1701Y9389D01*
X1669Y9443D01*
X1669Y9443D01*
X1657Y9464D01*
D01*
X1657D01*
D01*
X1657Y9464D01*
D01*
D01*
X1657Y9464D01*
D01*
D01*
D01*
X1657Y9464D01*
X1657Y9464D01*
D01*
D01*
X1657Y9464D01*
D01*
D01*
X1638Y9486D01*
X1638Y9486D01*
X1637Y9486D01*
X1637D01*
X1637Y9486D01*
X1608Y9499D01*
X1608Y9499D01*
X1608D01*
D01*
Y9499D01*
D01*
D01*
D01*
D01*
D01*
D01*
D01*
X1608D01*
X1608Y9499D01*
X1608Y9499D01*
X1608Y9499D01*
X1608Y9499D01*
D01*
X1608D01*
D01*
D01*
D01*
X1608D01*
Y9499D01*
D01*
X1608Y9499D01*
X1608Y9499D01*
D01*
D01*
X1608D01*
Y9499D01*
X1608Y9499D01*
X1603Y9500D01*
D01*
D01*
Y9500D01*
X1603D01*
D01*
D01*
D01*
D01*
X1603D01*
D01*
X1603D01*
D01*
D01*
D01*
D01*
D01*
D01*
D01*
D01*
D01*
D01*
Y9500D01*
Y9500D01*
Y9500D01*
Y9500D01*
Y9500D01*
Y9500D01*
Y9500D01*
X1400Y9500D01*
X1400Y9500D01*
X1400Y9500D01*
X1400Y9500D01*
X1254Y9500D01*
X1147D01*
X1074Y9500D01*
Y9500D01*
X1027Y9500D01*
X1027Y9500D01*
D01*
D01*
D01*
Y9500D01*
D01*
X1027Y9500D01*
X1027Y9500D01*
X1027Y9500D01*
D01*
D01*
D01*
D01*
D01*
D01*
D01*
D01*
Y9500D01*
X1027Y9500D01*
D01*
Y9500D01*
D01*
X1001Y9500D01*
X1001Y9500D01*
X991Y9500D01*
D01*
Y9500D01*
D01*
D01*
D01*
D01*
Y9500D01*
X991D01*
D01*
D01*
D01*
D01*
X991D01*
D01*
D01*
D01*
X991D01*
D01*
D01*
Y9500D01*
X990Y9500D01*
X988Y9500D01*
X988D01*
D01*
D01*
D01*
D01*
D01*
D01*
X988D01*
X988Y9500D01*
X988Y9500D01*
X988D01*
D01*
D01*
Y9500D01*
D01*
D01*
D01*
D01*
X988Y9500D01*
X988Y9500D01*
X987Y9500D01*
Y9500D01*
X987Y9500D01*
X987Y9500D01*
Y9500D01*
D01*
D01*
D01*
Y9500D01*
D01*
D01*
D01*
D01*
Y9500D01*
X987D01*
D01*
Y9500D01*
Y9500D01*
D01*
Y9500D01*
D01*
X961Y9495D01*
X961Y9495D01*
X961Y9495D01*
Y9495D01*
X957Y9493D01*
X939Y9482D01*
D01*
D01*
D01*
X939Y9482D01*
X939Y9482D01*
X939D01*
D01*
D01*
D01*
D01*
D01*
X939Y9482D01*
D01*
D01*
D01*
D01*
D01*
Y9482D01*
X939Y9481D01*
D01*
D01*
D01*
D01*
D01*
X939Y9481D01*
X939Y9481D01*
D01*
D01*
D01*
X939Y9481D01*
X939Y9481D01*
X924Y9463D01*
X924Y9463D01*
X924Y9463D01*
X924Y9463D01*
X924Y9463D01*
X924Y9463D01*
X923Y9463D01*
X923Y9463D01*
D01*
X923Y9462D01*
X923Y9462D01*
D01*
X923D01*
D01*
D01*
Y9462D01*
D01*
D01*
D01*
D01*
D01*
D01*
X923Y9462D01*
Y9462D01*
D01*
X923Y9462D01*
D01*
Y9462D01*
D01*
Y9462D01*
X923Y9462D01*
D01*
D01*
Y9462D01*
D01*
D01*
D01*
D01*
D01*
D01*
D01*
D01*
D01*
D01*
D01*
D01*
D01*
D01*
D01*
D01*
D01*
D01*
D01*
D01*
X923Y9462D01*
D01*
D01*
D01*
D01*
D01*
D01*
D01*
D01*
D01*
D01*
D01*
D01*
D01*
D01*
D01*
Y9462D01*
D01*
X923D01*
Y9462D01*
D01*
D01*
D01*
D01*
D01*
X923D01*
D01*
X922Y9461D01*
X628Y8951D01*
Y8951D01*
X628Y8951D01*
X628Y8951D01*
Y8951D01*
Y8951D01*
X628Y8951D01*
Y8951D01*
X628Y8951D01*
D01*
D01*
D01*
D01*
D01*
D01*
D01*
Y8951D01*
D01*
D01*
X621Y8936D01*
X619Y8932D01*
D01*
D01*
D01*
D01*
D01*
D01*
X619Y8932D01*
D01*
D01*
D01*
D01*
D01*
D01*
D01*
X619Y8932D01*
D01*
D01*
Y8932D01*
D01*
D01*
D01*
D01*
D01*
D01*
D01*
X619Y8932D01*
D01*
D01*
D01*
D01*
Y8932D01*
D01*
D01*
D01*
D01*
D01*
D01*
X619D01*
D01*
D01*
D01*
D01*
D01*
D01*
D01*
X619D01*
X619D01*
X619Y8932D01*
X616Y8911D01*
X266Y8911D01*
X261Y8916D01*
X265Y8943D01*
X278Y8971D01*
X500Y9356D01*
X500Y9356D01*
X500D01*
X500D01*
X500D01*
Y9356D01*
D01*
X500Y9356D01*
X729Y9751D01*
X729Y9751D01*
X729Y9751D01*
D01*
X729D01*
X729Y9751D01*
X729D01*
X729Y9751D01*
X730Y9753D01*
X730Y9753D01*
Y9753D01*
X730Y9753D01*
X730Y9753D01*
X730D01*
X730Y9753D01*
X731Y9754D01*
X748Y9777D01*
X770Y9794D01*
X797Y9806D01*
X826Y9810D01*
X826D01*
D02*
G37*
G36*
X1655Y10442D02*
X1669Y10308D01*
X1655Y10193D01*
X1614Y10107D01*
X1546Y10054D01*
X1452Y10035D01*
X1392Y10043D01*
X1341Y10066D01*
X1298Y10101D01*
X1264Y10150D01*
X1237Y10208D01*
X1215Y10277D01*
X1200Y10354D01*
X1189Y10438D01*
X1145D01*
X1111Y10435D01*
X1081Y10428D01*
X1057Y10415D01*
X1037Y10398D01*
X1022Y10377D01*
X1011Y10351D01*
X1005Y10320D01*
X1003Y10284D01*
X1015Y10189D01*
X1048Y10105D01*
X981Y10078D01*
X974Y10081D01*
X939Y10179D01*
X924Y10295D01*
X938Y10400D01*
X981Y10479D01*
X1053Y10530D01*
X1157Y10547D01*
X1618D01*
X1655Y10442D01*
D02*
G37*
G36*
X1307Y9237D02*
X1322Y9231D01*
X1334Y9222D01*
X1343Y9209D01*
X1349Y9195D01*
X1351Y9180D01*
X1349Y9164D01*
X1343Y9150D01*
X1334Y9137D01*
X1322Y9128D01*
X1308Y9122D01*
X1308Y9123D01*
X1308Y9123D01*
X1308Y9121D01*
Y9121D01*
Y9049D01*
X1308Y8926D01*
X1389D01*
X1389Y9017D01*
X1389D01*
D01*
D01*
X1389D01*
X1389D01*
X1389D01*
D01*
D01*
X1389D01*
X1389Y9017D01*
X1389Y9017D01*
X1389Y9017D01*
D01*
D01*
Y9017D01*
X1389D01*
D01*
D01*
D01*
D01*
D01*
X1389Y9017D01*
X1389Y9022D01*
D01*
D01*
D01*
X1389Y9022D01*
X1389Y9022D01*
X1389Y9022D01*
D01*
X1391Y9030D01*
X1391D01*
Y9030D01*
Y9030D01*
X1391D01*
X1391Y9030D01*
D01*
X1392Y9030D01*
X1399Y9038D01*
D01*
D01*
D01*
D01*
D01*
D01*
X1399Y9038D01*
D01*
D01*
X1399Y9038D01*
D01*
X1399Y9038D01*
D01*
D01*
D01*
D01*
D01*
X1399Y9038D01*
X1399Y9038D01*
X1399D01*
Y9038D01*
D01*
D01*
X1408Y9048D01*
D01*
X1408D01*
D01*
D01*
X1408D01*
D01*
D01*
D01*
D01*
D01*
X1408D01*
D01*
D01*
D01*
Y9048D01*
D01*
D01*
X1408Y9048D01*
Y9048D01*
D01*
D01*
D01*
D01*
D01*
D01*
D01*
D01*
Y9048D01*
D01*
D01*
D01*
D01*
D01*
D01*
D01*
D01*
D01*
Y9048D01*
D01*
D01*
D01*
X1408D01*
D01*
D01*
D01*
D01*
D01*
D01*
D01*
X1415Y9056D01*
Y9056D01*
D01*
D01*
X1415D01*
X1415Y9056D01*
Y9056D01*
X1415D01*
Y9056D01*
D01*
D01*
D01*
X1415Y9056D01*
X1415Y9056D01*
X1415Y9056D01*
X1415Y9056D01*
D01*
D01*
D01*
X1415Y9056D01*
X1415D01*
X1415Y9056D01*
D01*
D01*
D01*
D01*
D01*
D01*
D01*
D01*
D01*
X1415Y9056D01*
X1419Y9060D01*
X1419Y9060D01*
D01*
D01*
D01*
X1419D01*
D01*
X1419D01*
Y9060D01*
D01*
D01*
D01*
D01*
D01*
X1419Y9060D01*
X1476Y9117D01*
X1472Y9129D01*
X1470Y9144D01*
X1472Y9159D01*
X1478Y9174D01*
X1487Y9186D01*
X1500Y9196D01*
X1514Y9202D01*
X1529Y9204D01*
X1545Y9202D01*
X1559Y9196D01*
X1572Y9186D01*
X1581Y9174D01*
X1587Y9159D01*
X1589Y9144D01*
X1587Y9129D01*
X1581Y9114D01*
X1572Y9102D01*
X1559Y9092D01*
X1545Y9086D01*
X1529Y9084D01*
X1514Y9086D01*
X1500Y9092D01*
X1498Y9093D01*
X1498Y9094D01*
X1431Y9026D01*
X1427Y9022D01*
X1422Y9015D01*
X1421Y9008D01*
Y8926D01*
X1548Y8926D01*
X1549Y8932D01*
X1557Y8952D01*
X1571Y8969D01*
X1588Y8982D01*
X1608Y8991D01*
X1630Y8994D01*
X1652Y8991D01*
X1672Y8982D01*
X1689Y8969D01*
X1702Y8952D01*
X1711Y8932D01*
X1714Y8910D01*
X1711Y8888D01*
X1702Y8868D01*
X1689Y8851D01*
X1672Y8837D01*
X1652Y8829D01*
X1630Y8826D01*
X1608Y8829D01*
X1588Y8837D01*
X1571Y8851D01*
X1557Y8868D01*
X1549Y8888D01*
X1548Y8894D01*
X1548Y8894D01*
X1421D01*
Y8812D01*
X1422Y8805D01*
X1427Y8798D01*
X1431Y8794D01*
X1498Y8726D01*
X1499Y8727D01*
X1514Y8733D01*
X1529Y8735D01*
X1545Y8733D01*
X1559Y8727D01*
X1571Y8718D01*
X1581Y8705D01*
X1587Y8691D01*
X1589Y8676D01*
X1587Y8660D01*
X1581Y8646D01*
X1571Y8633D01*
X1559Y8624D01*
X1545Y8618D01*
X1529Y8616D01*
X1514Y8618D01*
X1499Y8624D01*
X1487Y8633D01*
X1477Y8646D01*
X1471Y8660D01*
X1469Y8676D01*
X1471Y8691D01*
X1476Y8702D01*
X1476Y8702D01*
X1476Y8702D01*
X1476Y8703D01*
D01*
X1419Y8760D01*
X1419Y8760D01*
X1415Y8764D01*
X1415Y8764D01*
X1415Y8764D01*
X1408Y8772D01*
X1408Y8772D01*
X1408Y8772D01*
D01*
D01*
D01*
D01*
X1408D01*
Y8772D01*
X1399Y8781D01*
X1399Y8782D01*
X1391Y8790D01*
X1391Y8790D01*
X1391Y8790D01*
X1389Y8798D01*
X1389Y8798D01*
D01*
X1389D01*
D01*
D01*
D01*
D01*
D01*
X1389Y8798D01*
X1389Y8798D01*
X1389Y8803D01*
X1389Y8803D01*
X1389Y8803D01*
Y8894D01*
X1308D01*
X1308Y8802D01*
X1308Y8802D01*
X1308D01*
X1308Y8697D01*
X1320Y8692D01*
X1332Y8682D01*
X1341Y8670D01*
X1347Y8656D01*
X1349Y8640D01*
X1347Y8625D01*
X1341Y8610D01*
X1332Y8598D01*
X1320Y8588D01*
X1305Y8582D01*
X1290Y8580D01*
X1274Y8582D01*
X1260Y8588D01*
X1248Y8598D01*
X1238Y8610D01*
X1232Y8625D01*
X1230Y8640D01*
X1232Y8656D01*
X1238Y8670D01*
X1248Y8682D01*
X1260Y8692D01*
X1276Y8697D01*
X1276D01*
X1276D01*
D01*
Y8697D01*
D01*
D01*
D01*
D01*
X1276Y8697D01*
X1276D01*
Y8697D01*
X1276D01*
D01*
D01*
D01*
D01*
Y8697D01*
D01*
Y8697D01*
D01*
D01*
Y8697D01*
X1276Y8697D01*
Y8697D01*
D01*
D01*
D01*
D01*
Y8697D01*
D01*
D01*
X1276Y8698D01*
D01*
D01*
D01*
Y8698D01*
X1276Y8699D01*
X1276Y8700D01*
X1276Y8700D01*
X1276Y8700D01*
X1276Y8801D01*
X1276Y8801D01*
X1276Y8894D01*
X1193D01*
X1193Y8803D01*
D01*
Y8803D01*
X1193Y8803D01*
X1193Y8803D01*
D01*
D01*
X1193D01*
D01*
Y8803D01*
X1193D01*
X1193D01*
X1193Y8803D01*
D01*
D01*
Y8803D01*
D01*
D01*
D01*
Y8803D01*
D01*
D01*
X1193D01*
X1193D01*
X1193Y8798D01*
X1193Y8798D01*
D01*
X1193Y8798D01*
D01*
X1193Y8798D01*
D01*
X1193Y8798D01*
X1193D01*
D01*
Y8798D01*
X1193D01*
Y8798D01*
D01*
D01*
D01*
D01*
D01*
D01*
X1193D01*
D01*
D01*
X1190Y8790D01*
X1190D01*
X1190D01*
D01*
D01*
Y8790D01*
D01*
D01*
D01*
D01*
D01*
X1190D01*
D01*
D01*
X1190D01*
D01*
D01*
D01*
D01*
D01*
D01*
Y8790D01*
D01*
D01*
D01*
X1190Y8790D01*
X1190Y8790D01*
X1190Y8790D01*
D01*
D01*
D01*
D01*
D01*
D01*
D01*
D01*
Y8790D01*
Y8790D01*
Y8790D01*
D01*
D01*
D01*
D01*
D01*
D01*
Y8790D01*
D01*
D01*
D01*
D01*
D01*
D01*
D01*
D01*
X1183Y8781D01*
X1183Y8781D01*
D01*
D01*
D01*
D01*
D01*
D01*
D01*
D01*
Y8781D01*
D01*
D01*
D01*
D01*
D01*
D01*
D01*
D01*
D01*
X1183Y8781D01*
X1183Y8781D01*
X1183Y8781D01*
D01*
Y8781D01*
D01*
D01*
D01*
D01*
D01*
D01*
D01*
D01*
X1183D01*
D01*
D01*
D01*
D01*
D01*
D01*
D01*
D01*
D01*
D01*
D01*
D01*
D01*
D01*
D01*
D01*
D01*
D01*
D01*
D01*
D01*
X1183D01*
D01*
D01*
D01*
D01*
D01*
D01*
D01*
D01*
D01*
D01*
D01*
X1183D01*
D01*
X1183D01*
X1183Y8781D01*
X1183Y8781D01*
D01*
D01*
D01*
D01*
D01*
Y8781D01*
D01*
D01*
D01*
D01*
D01*
D01*
D01*
D01*
D01*
Y8781D01*
D01*
D01*
D01*
D01*
D01*
D01*
D01*
Y8781D01*
D01*
D01*
D01*
D01*
D01*
D01*
D01*
D01*
Y8781D01*
X1174Y8772D01*
X1174Y8772D01*
D01*
Y8772D01*
D01*
X1174Y8772D01*
D01*
D01*
D01*
D01*
D01*
X1174D01*
X1174Y8772D01*
X1174Y8772D01*
X1174D01*
D01*
D01*
Y8772D01*
D01*
D01*
Y8772D01*
Y8772D01*
D01*
D01*
D01*
D01*
X1166Y8763D01*
X1166Y8763D01*
X1166Y8763D01*
X1166Y8764D01*
Y8764D01*
D01*
X1163Y8760D01*
X1163D01*
X1163Y8760D01*
X1163Y8760D01*
D01*
Y8760D01*
D01*
D01*
D01*
D01*
D01*
D01*
D01*
D01*
X1163D01*
D01*
D01*
D01*
D01*
D01*
D01*
D01*
D01*
D01*
D01*
D01*
D01*
D01*
D01*
D01*
D01*
D01*
D01*
D01*
D01*
D01*
D01*
D01*
D01*
D01*
D01*
D01*
D01*
D01*
D01*
D01*
D01*
D01*
X1163D01*
D01*
D01*
D01*
D01*
D01*
D01*
D01*
D01*
D01*
D01*
D01*
D01*
D01*
D01*
D01*
D01*
D01*
D01*
X1163D01*
X1163D01*
X1163Y8760D01*
D01*
X1163D01*
D01*
D01*
Y8760D01*
D01*
X1163Y8760D01*
D01*
D01*
D01*
D01*
D01*
Y8760D01*
X1163Y8760D01*
D01*
D01*
D01*
D01*
D01*
X1163Y8760D01*
D01*
D01*
X1163Y8760D01*
X1163Y8760D01*
D01*
D01*
D01*
D01*
D01*
Y8760D01*
D01*
D01*
D01*
X1163D01*
X1163Y8760D01*
D01*
D01*
D01*
D01*
D01*
Y8760D01*
X1163Y8760D01*
X1163D01*
D01*
D01*
D01*
D01*
D01*
D01*
D01*
Y8760D01*
D01*
D01*
D01*
D01*
D01*
D01*
D01*
D01*
D01*
D01*
D01*
Y8760D01*
D01*
D01*
D01*
D01*
D01*
D01*
D01*
D01*
Y8760D01*
D01*
D01*
D01*
Y8760D01*
D01*
D01*
D01*
X1105Y8702D01*
X1110Y8691D01*
X1112Y8676D01*
X1110Y8660D01*
X1104Y8646D01*
X1094Y8634D01*
X1082Y8624D01*
X1067Y8618D01*
X1052Y8616D01*
X1037Y8618D01*
X1022Y8624D01*
X1010Y8634D01*
X1000Y8646D01*
X994Y8660D01*
X992Y8676D01*
X994Y8691D01*
X1000Y8706D01*
X1010Y8718D01*
X1022Y8728D01*
X1037Y8734D01*
X1052Y8736D01*
X1067Y8734D01*
X1082Y8728D01*
X1083Y8726D01*
X1083Y8726D01*
X1151Y8794D01*
X1155Y8798D01*
X1160Y8805D01*
X1161Y8812D01*
Y8894D01*
X1033Y8894D01*
X1032Y8888D01*
X1024Y8868D01*
X1011Y8851D01*
X993Y8837D01*
X973Y8829D01*
X952Y8826D01*
X930Y8829D01*
X910Y8837D01*
X892Y8851D01*
X879Y8868D01*
X871Y8888D01*
X868Y8910D01*
X871Y8932D01*
X879Y8952D01*
X892Y8969D01*
X910Y8982D01*
X930Y8991D01*
X952Y8994D01*
X973Y8991D01*
X993Y8982D01*
X1011Y8969D01*
X1024Y8952D01*
X1032Y8932D01*
X1033Y8926D01*
X1033Y8926D01*
X1161D01*
Y9008D01*
X1160Y9015D01*
X1155Y9022D01*
X1151Y9026D01*
X1083Y9093D01*
X1082Y9093D01*
X1068Y9087D01*
X1052Y9085D01*
X1037Y9087D01*
X1022Y9093D01*
X1010Y9102D01*
X1001Y9114D01*
X995Y9129D01*
X993Y9144D01*
X995Y9160D01*
X1001Y9174D01*
X1010Y9186D01*
X1022Y9196D01*
X1037Y9202D01*
X1052Y9204D01*
X1068Y9202D01*
X1082Y9196D01*
X1095Y9186D01*
X1104Y9174D01*
X1110Y9160D01*
X1112Y9144D01*
X1110Y9129D01*
X1105Y9117D01*
D01*
X1105Y9117D01*
X1105Y9117D01*
X1106Y9117D01*
X1106D01*
X1163Y9060D01*
Y9060D01*
X1163D01*
D01*
Y9060D01*
X1163Y9060D01*
X1163Y9060D01*
X1163Y9060D01*
D01*
D01*
Y9060D01*
X1163Y9060D01*
D01*
X1166Y9056D01*
X1166Y9056D01*
X1174Y9048D01*
X1174Y9048D01*
X1183Y9038D01*
D01*
X1183Y9038D01*
X1183Y9038D01*
D01*
D01*
D01*
D01*
D01*
D01*
D01*
Y9038D01*
D01*
Y9038D01*
D01*
D01*
Y9038D01*
X1183Y9038D01*
D01*
X1183D01*
D01*
D01*
X1183D01*
X1183D01*
Y9038D01*
D01*
D01*
D01*
D01*
D01*
X1183Y9038D01*
D01*
D01*
X1183Y9038D01*
X1183D01*
D01*
D01*
X1183D01*
D01*
D01*
X1183Y9038D01*
X1183Y9038D01*
D01*
X1183D01*
D01*
D01*
D01*
D01*
D01*
Y9038D01*
D01*
D01*
D01*
X1183D01*
D01*
D01*
D01*
D01*
D01*
D01*
D01*
X1183D01*
Y9038D01*
X1190Y9030D01*
D01*
D01*
D01*
D01*
D01*
D01*
D01*
D01*
D01*
D01*
D01*
D01*
D01*
X1190D01*
D01*
D01*
D01*
D01*
D01*
D01*
Y9030D01*
D01*
D01*
D01*
D01*
Y9030D01*
X1190D01*
D01*
D01*
X1190D01*
D01*
Y9030D01*
X1190Y9030D01*
X1190Y9030D01*
D01*
X1190Y9030D01*
X1190Y9030D01*
X1190Y9030D01*
D01*
D01*
D01*
X1190Y9030D01*
X1190D01*
Y9030D01*
D01*
X1190D01*
X1193Y9022D01*
D01*
D01*
D01*
D01*
D01*
D01*
D01*
D01*
D01*
D01*
D01*
D01*
D01*
D01*
X1193D01*
D01*
Y9022D01*
D01*
D01*
D01*
D01*
D01*
D01*
D01*
D01*
D01*
D01*
D01*
D01*
D01*
D01*
D01*
D01*
X1193D01*
Y9022D01*
D01*
D01*
D01*
D01*
D01*
D01*
D01*
D01*
D01*
D01*
D01*
D01*
D01*
D01*
D01*
D01*
D01*
D01*
D01*
X1193Y9022D01*
X1193Y9022D01*
X1193Y9022D01*
Y9022D01*
D01*
D01*
D01*
D01*
X1193D01*
D01*
X1193D01*
D01*
X1193Y9017D01*
Y9017D01*
X1193D01*
X1193Y9017D01*
X1193Y9017D01*
X1193Y9017D01*
Y8926D01*
X1276D01*
X1276Y9024D01*
X1276Y9024D01*
X1276D01*
X1276Y9122D01*
X1262Y9128D01*
X1249Y9137D01*
X1240Y9150D01*
X1234Y9164D01*
X1232Y9180D01*
X1234Y9195D01*
X1240Y9209D01*
X1249Y9222D01*
X1262Y9231D01*
X1276Y9237D01*
X1292Y9239D01*
X1307Y9237D01*
D02*
G37*
G36*
X1657Y13416D02*
X1669Y13325D01*
X1662Y13264D01*
X1642Y13209D01*
X1609Y13161D01*
X1565Y13121D01*
X1510Y13089D01*
X1447Y13066D01*
X1375Y13052D01*
X1296Y13047D01*
X1217Y13052D01*
X1145Y13066D01*
X1082Y13090D01*
X1028Y13122D01*
X984Y13162D01*
X951Y13209D01*
X931Y13264D01*
X924Y13325D01*
X936Y13416D01*
X971Y13486D01*
X1035Y13461D01*
X1037Y13454D01*
X1025Y13435D01*
X1014Y13407D01*
X1007Y13377D01*
X1004Y13345D01*
X1026Y13269D01*
X1087Y13213D01*
X1178Y13179D01*
X1293Y13167D01*
X1407Y13179D01*
X1499Y13213D01*
X1561Y13270D01*
X1584Y13345D01*
X1581Y13377D01*
X1574Y13407D01*
X1563Y13434D01*
X1552Y13452D01*
X1554Y13459D01*
X1622Y13487D01*
X1657Y13416D01*
D02*
G37*
G36*
X1374Y14487D02*
X1445Y14475D01*
X1509Y14453D01*
X1563Y14423D01*
X1608Y14383D01*
X1641Y14334D01*
X1662Y14276D01*
X1669Y14208D01*
X1662Y14140D01*
X1641Y14081D01*
X1608Y14033D01*
X1563Y13993D01*
X1509Y13963D01*
X1445Y13941D01*
X1374Y13928D01*
X1296Y13924D01*
X1218Y13928D01*
X1147Y13941D01*
X1084Y13963D01*
X1030Y13993D01*
X985Y14033D01*
X952Y14081D01*
X931Y14140D01*
X924Y14208D01*
X931Y14276D01*
X952Y14334D01*
X985Y14383D01*
X1030Y14423D01*
X1084Y14453D01*
X1147Y14475D01*
X1218Y14488D01*
X1296Y14492D01*
X1374Y14487D01*
D02*
G37*
G36*
X2641Y14256D02*
X2572D01*
Y14428D01*
X2641D01*
Y14256D01*
D02*
G37*
G36*
X2808Y14953D02*
X2486D01*
X2478Y14954D01*
X2474D01*
X2472Y14954D01*
X2465D01*
X2457Y14955D01*
X2730Y14810D01*
X2731D01*
X2731Y14809D01*
X2735Y14806D01*
X2740Y14802D01*
X2745Y14796D01*
Y14796D01*
X2745Y14795D01*
X2747Y14791D01*
X2749Y14785D01*
X2750Y14778D01*
Y14766D01*
Y14765D01*
Y14764D01*
Y14762D01*
X2749Y14760D01*
X2748Y14753D01*
X2745Y14747D01*
X2743Y14746D01*
X2741Y14742D01*
X2736Y14738D01*
X2730Y14734D01*
X2456Y14587D01*
X2458D01*
X2460Y14587D01*
X2463D01*
X2470Y14588D01*
X2482D01*
X2484Y14589D01*
X2808D01*
Y14510D01*
X2326D01*
Y14577D01*
Y14579D01*
Y14581D01*
Y14584D01*
X2327Y14587D01*
Y14588D01*
Y14590D01*
X2328Y14595D01*
Y14596D01*
X2330Y14598D01*
X2331Y14600D01*
X2333Y14602D01*
X2334Y14603D01*
X2335Y14604D01*
X2338Y14606D01*
X2341Y14608D01*
X2608Y14752D01*
X2609D01*
X2610Y14752D01*
X2612Y14754D01*
X2615Y14755D01*
X2622Y14758D01*
X2631Y14762D01*
X2631D01*
X2633Y14762D01*
X2635Y14764D01*
X2638Y14765D01*
X2645Y14768D01*
X2653Y14772D01*
X2653D01*
X2651Y14772D01*
X2649Y14774D01*
X2646Y14774D01*
X2639Y14778D01*
X2630Y14781D01*
X2629D01*
X2628Y14782D01*
X2625Y14783D01*
X2623Y14784D01*
X2615Y14788D01*
X2607Y14792D01*
X2341Y14934D01*
X2340Y14935D01*
X2338Y14936D01*
X2336Y14938D01*
X2333Y14940D01*
X2332Y14940D01*
X2331Y14942D01*
X2330Y14944D01*
X2328Y14946D01*
Y14947D01*
X2328Y14948D01*
X2327Y14951D01*
Y14954D01*
Y14954D01*
X2326Y14957D01*
Y14960D01*
Y14964D01*
Y15032D01*
X2808D01*
Y14953D01*
D02*
G37*
G36*
X1016Y13881D02*
X1007Y13846D01*
X1004Y13807D01*
X1008Y13760D01*
X1023Y13717D01*
X1656D01*
Y13600D01*
X975D01*
X938Y13707D01*
X924Y13845D01*
X926Y13884D01*
X927Y13902D01*
X933Y13906D01*
X1016Y13881D01*
D02*
G37*
%LPC*%
G36*
X1577Y10438D02*
X1250D01*
X1273Y10315D01*
X1310Y10224D01*
X1368Y10167D01*
X1449Y10147D01*
X1514Y10158D01*
X1561Y10191D01*
X1591Y10245D01*
X1601Y10319D01*
X1599Y10353D01*
X1594Y10385D01*
X1587Y10414D01*
X1577Y10438D01*
D02*
G37*
G36*
X3247Y10088D02*
X3244D01*
X3243Y10087D01*
X3237Y10087D01*
X3232Y10085D01*
X3225Y10083D01*
X3217Y10080D01*
X3211Y10075D01*
X3205Y10069D01*
X3205Y10068D01*
X3203Y10066D01*
X3200Y10062D01*
X3198Y10056D01*
X3194Y10048D01*
X3192Y10038D01*
X3191Y10027D01*
X3190Y10014D01*
Y9971D01*
X3310D01*
Y10013D01*
Y10014D01*
Y10016D01*
X3309Y10020D01*
Y10025D01*
X3309Y10030D01*
X3308Y10035D01*
X3305Y10046D01*
Y10047D01*
X3304Y10049D01*
X3304Y10051D01*
X3302Y10054D01*
X3298Y10062D01*
X3293Y10069D01*
X3292Y10070D01*
X3291Y10071D01*
X3289Y10073D01*
X3287Y10075D01*
X3284Y10077D01*
X3280Y10079D01*
X3273Y10083D01*
X3272D01*
X3271Y10084D01*
X3268Y10085D01*
X3265Y10086D01*
X3261Y10086D01*
X3257Y10087D01*
X3247Y10088D01*
D02*
G37*
G36*
X1293Y14374D02*
X1235Y14372D01*
X1180Y14366D01*
X1130Y14355D01*
X1086Y14338D01*
X1050Y14316D01*
X1022Y14287D01*
X1005Y14251D01*
X999Y14208D01*
X1005Y14165D01*
X1022Y14129D01*
X1050Y14100D01*
X1086Y14078D01*
X1130Y14061D01*
X1180Y14050D01*
X1235Y14043D01*
X1293Y14041D01*
X1352Y14043D01*
X1407Y14050D01*
X1457Y14061D01*
X1502Y14078D01*
X1538Y14100D01*
X1566Y14129D01*
X1584Y14165D01*
X1590Y14208D01*
X1584Y14251D01*
X1566Y14287D01*
X1538Y14316D01*
X1502Y14338D01*
X1457Y14355D01*
X1407Y14366D01*
X1352Y14372D01*
X1293Y14374D01*
D02*
G37*
G36*
X3334Y11456D02*
X3309D01*
X3306Y11455D01*
X3297D01*
X3286Y11454D01*
X3276Y11453D01*
X3265Y11452D01*
X3255Y11450D01*
X3254D01*
X3252Y11449D01*
X3250Y11449D01*
X3246Y11448D01*
X3240Y11446D01*
X3234Y11444D01*
X3226Y11441D01*
X3220Y11438D01*
X3214Y11435D01*
X3214Y11434D01*
X3212Y11433D01*
X3209Y11431D01*
X3205Y11428D01*
X3202Y11425D01*
X3198Y11421D01*
X3195Y11417D01*
X3192Y11413D01*
X3192Y11412D01*
X3192Y11411D01*
X3191Y11408D01*
X3189Y11405D01*
X3188Y11401D01*
X3187Y11397D01*
X3187Y11392D01*
X3186Y11387D01*
Y11386D01*
Y11384D01*
X3187Y11382D01*
X3187Y11378D01*
X3187Y11374D01*
X3189Y11370D01*
X3191Y11365D01*
X3192Y11361D01*
X3193Y11360D01*
X3194Y11359D01*
X3195Y11356D01*
X3198Y11354D01*
X3201Y11350D01*
X3204Y11347D01*
X3209Y11343D01*
X3214Y11339D01*
X3214Y11339D01*
X3216Y11338D01*
X3220Y11336D01*
X3225Y11334D01*
X3230Y11331D01*
X3237Y11329D01*
X3246Y11326D01*
X3255Y11324D01*
X3256D01*
X3257Y11323D01*
X3259Y11323D01*
X3262Y11322D01*
X3265D01*
X3273Y11321D01*
X3282Y11320D01*
X3293Y11319D01*
X3305Y11319D01*
X3320Y11318D01*
X3329D01*
X3333Y11319D01*
X3342D01*
X3352Y11320D01*
X3363Y11321D01*
X3374Y11322D01*
X3385Y11324D01*
X3385D01*
X3386Y11324D01*
X3388Y11325D01*
X3393Y11326D01*
X3399Y11328D01*
X3406Y11330D01*
X3413Y11333D01*
X3419Y11336D01*
X3426Y11339D01*
X3426Y11340D01*
X3428Y11341D01*
X3431Y11343D01*
X3433Y11346D01*
X3437Y11349D01*
X3440Y11352D01*
X3444Y11356D01*
X3447Y11361D01*
Y11361D01*
X3447Y11363D01*
X3449Y11365D01*
X3449Y11369D01*
X3451Y11373D01*
X3451Y11377D01*
X3452Y11382D01*
X3453Y11387D01*
Y11387D01*
Y11389D01*
X3452Y11392D01*
X3451Y11395D01*
X3451Y11399D01*
X3450Y11403D01*
X3449Y11408D01*
X3447Y11413D01*
X3446Y11413D01*
X3446Y11415D01*
X3444Y11417D01*
X3442Y11420D01*
X3438Y11424D01*
X3435Y11427D01*
X3431Y11431D01*
X3426Y11435D01*
X3425Y11435D01*
X3422Y11436D01*
X3419Y11438D01*
X3415Y11440D01*
X3408Y11443D01*
X3401Y11445D01*
X3393Y11448D01*
X3385Y11450D01*
X3384D01*
X3383Y11450D01*
X3382D01*
X3380Y11451D01*
X3377Y11451D01*
X3374Y11452D01*
X3367Y11453D01*
X3357Y11454D01*
X3346Y11455D01*
X3334Y11456D01*
D02*
G37*
G36*
X3343Y10387D02*
X3338D01*
X3335Y10387D01*
X3328Y10386D01*
X3320Y10384D01*
X3320D01*
X3318Y10383D01*
X3316Y10382D01*
X3313Y10381D01*
X3307Y10378D01*
X3302Y10374D01*
X3301Y10373D01*
X3300Y10373D01*
X3298Y10371D01*
X3297Y10369D01*
X3293Y10364D01*
X3289Y10357D01*
Y10356D01*
X3288Y10355D01*
X3288Y10353D01*
X3286Y10350D01*
X3286Y10347D01*
X3285Y10342D01*
X3284Y10338D01*
Y10333D01*
Y10332D01*
Y10332D01*
Y10330D01*
Y10328D01*
X3285Y10323D01*
X3286Y10317D01*
X3288Y10311D01*
X3291Y10303D01*
X3295Y10297D01*
X3300Y10290D01*
X3300Y10290D01*
X3302Y10288D01*
X3305Y10285D01*
X3311Y10282D01*
X3316Y10279D01*
X3324Y10276D01*
X3332Y10273D01*
X3343Y10271D01*
Y10387D01*
D02*
G37*
G36*
X3387Y12421D02*
X3381D01*
X3377Y12420D01*
X3374Y12420D01*
X3369Y12419D01*
X3359Y12416D01*
X3359D01*
X3358Y12415D01*
X3355Y12414D01*
X3352Y12412D01*
X3345Y12408D01*
X3338Y12402D01*
X3338Y12402D01*
X3337Y12401D01*
X3336Y12399D01*
X3334Y12396D01*
X3331Y12393D01*
X3329Y12390D01*
X3325Y12381D01*
Y12381D01*
X3325Y12379D01*
X3323Y12377D01*
X3322Y12373D01*
X3322Y12369D01*
X3321Y12365D01*
X3320Y12354D01*
Y12354D01*
Y12352D01*
Y12349D01*
X3321Y12346D01*
X3322Y12341D01*
X3322Y12337D01*
X3325Y12328D01*
Y12327D01*
X3327Y12326D01*
X3327Y12323D01*
X3329Y12321D01*
X3334Y12314D01*
X3340Y12307D01*
X3340Y12306D01*
X3341Y12305D01*
X3343Y12304D01*
X3345Y12302D01*
X3349Y12300D01*
X3352Y12298D01*
X3361Y12294D01*
X3361D01*
X3363Y12293D01*
X3365Y12292D01*
X3368Y12292D01*
X3372Y12291D01*
X3377Y12290D01*
X3386Y12289D01*
X3392D01*
X3395Y12290D01*
X3400Y12290D01*
X3404Y12291D01*
X3414Y12293D01*
X3415D01*
X3416Y12294D01*
X3419Y12295D01*
X3422Y12296D01*
X3428Y12300D01*
X3435Y12305D01*
X3436Y12306D01*
X3437Y12307D01*
X3438Y12309D01*
X3440Y12311D01*
X3442Y12314D01*
X3445Y12318D01*
X3449Y12326D01*
Y12326D01*
X3449Y12328D01*
X3451Y12330D01*
X3451Y12334D01*
X3452Y12338D01*
X3453Y12342D01*
X3453Y12348D01*
Y12353D01*
Y12354D01*
Y12356D01*
X3453Y12359D01*
Y12362D01*
X3453Y12366D01*
X3451Y12371D01*
X3449Y12380D01*
Y12381D01*
X3447Y12382D01*
X3447Y12385D01*
X3445Y12388D01*
X3440Y12395D01*
X3435Y12402D01*
X3434Y12402D01*
X3433Y12403D01*
X3431Y12405D01*
X3428Y12407D01*
X3426Y12409D01*
X3422Y12411D01*
X3413Y12416D01*
X3413D01*
X3411Y12417D01*
X3409Y12417D01*
X3406Y12418D01*
X3401Y12419D01*
X3397Y12420D01*
X3387Y12421D01*
D02*
G37*
G36*
X3334Y12132D02*
X3309D01*
X3306Y12131D01*
X3297D01*
X3286Y12130D01*
X3276Y12129D01*
X3265Y12128D01*
X3255Y12126D01*
X3254D01*
X3252Y12125D01*
X3250Y12125D01*
X3246Y12124D01*
X3240Y12122D01*
X3234Y12120D01*
X3226Y12117D01*
X3220Y12114D01*
X3214Y12111D01*
X3214Y12110D01*
X3212Y12109D01*
X3209Y12107D01*
X3205Y12104D01*
X3202Y12101D01*
X3198Y12097D01*
X3195Y12093D01*
X3192Y12089D01*
X3192Y12088D01*
X3192Y12087D01*
X3191Y12084D01*
X3189Y12081D01*
X3188Y12077D01*
X3187Y12073D01*
X3187Y12068D01*
X3186Y12063D01*
Y12062D01*
Y12060D01*
X3187Y12058D01*
X3187Y12054D01*
X3187Y12050D01*
X3189Y12046D01*
X3191Y12041D01*
X3192Y12037D01*
X3193Y12036D01*
X3194Y12035D01*
X3195Y12032D01*
X3198Y12030D01*
X3201Y12026D01*
X3204Y12023D01*
X3209Y12019D01*
X3214Y12015D01*
X3214Y12015D01*
X3216Y12014D01*
X3220Y12012D01*
X3225Y12010D01*
X3230Y12007D01*
X3237Y12005D01*
X3246Y12002D01*
X3255Y12000D01*
X3256D01*
X3257Y11999D01*
X3259Y11999D01*
X3262Y11998D01*
X3265D01*
X3273Y11997D01*
X3282Y11996D01*
X3293Y11995D01*
X3305Y11995D01*
X3320Y11994D01*
X3329D01*
X3333Y11995D01*
X3342D01*
X3352Y11996D01*
X3363Y11997D01*
X3374Y11998D01*
X3385Y12000D01*
X3385D01*
X3386Y12000D01*
X3388Y12001D01*
X3393Y12002D01*
X3399Y12004D01*
X3406Y12006D01*
X3413Y12009D01*
X3419Y12012D01*
X3426Y12015D01*
X3426Y12016D01*
X3428Y12017D01*
X3431Y12019D01*
X3433Y12022D01*
X3437Y12025D01*
X3440Y12028D01*
X3444Y12032D01*
X3447Y12037D01*
Y12037D01*
X3447Y12039D01*
X3449Y12041D01*
X3449Y12045D01*
X3451Y12049D01*
X3451Y12053D01*
X3452Y12058D01*
X3453Y12063D01*
Y12063D01*
Y12065D01*
X3452Y12068D01*
X3451Y12071D01*
X3451Y12075D01*
X3450Y12079D01*
X3449Y12084D01*
X3447Y12089D01*
X3446Y12089D01*
X3446Y12091D01*
X3444Y12093D01*
X3442Y12096D01*
X3438Y12100D01*
X3435Y12103D01*
X3431Y12107D01*
X3426Y12111D01*
X3425Y12111D01*
X3422Y12112D01*
X3419Y12114D01*
X3415Y12116D01*
X3408Y12119D01*
X3401Y12121D01*
X3393Y12124D01*
X3385Y12126D01*
X3384D01*
X3383Y12126D01*
X3382D01*
X3380Y12127D01*
X3377Y12127D01*
X3374Y12128D01*
X3367Y12129D01*
X3357Y12130D01*
X3346Y12131D01*
X3334Y12132D01*
D02*
G37*
G36*
X1052Y8707D02*
X1030Y8698D01*
X1021Y8676D01*
X1030Y8654D01*
X1052Y8645D01*
X1074Y8654D01*
X1083Y8676D01*
X1074Y8698D01*
X1052Y8707D01*
D02*
G37*
G36*
X2567Y12090D02*
X2561D01*
X2553Y12090D01*
X2543Y12089D01*
X2532Y12088D01*
X2521Y12086D01*
X2508Y12083D01*
X2496Y12080D01*
X2496D01*
X2495Y12079D01*
X2491Y12078D01*
X2485Y12075D01*
X2478Y12072D01*
X2470Y12068D01*
X2460Y12062D01*
X2452Y12056D01*
X2443Y12049D01*
X2442Y12048D01*
X2440Y12046D01*
X2436Y12042D01*
X2430Y12036D01*
X2425Y12029D01*
X2420Y12021D01*
X2414Y12012D01*
X2410Y12002D01*
X2409Y12000D01*
X2408Y11997D01*
X2406Y11991D01*
X2404Y11983D01*
X2402Y11974D01*
X2400Y11963D01*
X2398Y11951D01*
X2398Y11939D01*
Y11845D01*
X2737D01*
Y11939D01*
Y11939D01*
Y11940D01*
Y11942D01*
Y11945D01*
X2736Y11951D01*
X2735Y11960D01*
X2734Y11970D01*
X2732Y11980D01*
X2729Y11991D01*
X2725Y12002D01*
X2725Y12003D01*
X2723Y12006D01*
X2721Y12012D01*
X2717Y12018D01*
X2712Y12026D01*
X2706Y12034D01*
X2699Y12042D01*
X2692Y12049D01*
X2691Y12050D01*
X2688Y12052D01*
X2683Y12056D01*
X2677Y12060D01*
X2669Y12065D01*
X2660Y12070D01*
X2650Y12075D01*
X2639Y12080D01*
X2638D01*
X2637Y12080D01*
X2635Y12081D01*
X2633Y12082D01*
X2627Y12083D01*
X2618Y12085D01*
X2607Y12087D01*
X2595Y12089D01*
X2582Y12090D01*
X2567Y12090D01*
D02*
G37*
G36*
X1529Y8707D02*
X1507Y8698D01*
X1498Y8676D01*
X1507Y8654D01*
X1529Y8645D01*
X1551Y8654D01*
X1560Y8676D01*
X1551Y8698D01*
X1529Y8707D01*
D02*
G37*
G36*
X2627Y11547D02*
X2466Y11488D01*
X2466D01*
X2464Y11488D01*
X2462Y11487D01*
X2459Y11486D01*
X2452Y11483D01*
X2442Y11479D01*
X2441D01*
X2439Y11478D01*
X2436Y11477D01*
X2432Y11476D01*
X2428Y11475D01*
X2422Y11473D01*
X2410Y11470D01*
X2410D01*
X2412Y11469D01*
X2416Y11468D01*
X2420Y11467D01*
X2425Y11466D01*
X2430Y11464D01*
X2442Y11460D01*
X2442D01*
X2444Y11460D01*
X2447Y11459D01*
X2450Y11458D01*
X2458Y11455D01*
X2467Y11452D01*
X2627Y11393D01*
Y11547D01*
D02*
G37*
G36*
X2452Y13713D02*
X2447D01*
X2444Y13713D01*
X2435Y13711D01*
X2426Y13709D01*
X2426D01*
X2424Y13708D01*
X2422Y13707D01*
X2419Y13705D01*
X2412Y13701D01*
X2404Y13696D01*
X2404Y13695D01*
X2402Y13695D01*
X2401Y13693D01*
X2398Y13690D01*
X2394Y13683D01*
X2389Y13674D01*
Y13673D01*
X2388Y13671D01*
X2387Y13669D01*
X2386Y13665D01*
X2385Y13661D01*
X2384Y13655D01*
X2383Y13643D01*
Y13642D01*
Y13639D01*
Y13636D01*
X2384Y13632D01*
X2386Y13621D01*
X2389Y13611D01*
Y13610D01*
X2390Y13609D01*
X2391Y13606D01*
X2393Y13603D01*
X2398Y13596D01*
X2404Y13589D01*
X2405Y13588D01*
X2406Y13588D01*
X2408Y13586D01*
X2410Y13584D01*
X2418Y13580D01*
X2426Y13576D01*
X2427D01*
X2428Y13575D01*
X2431Y13574D01*
X2434Y13574D01*
X2442Y13572D01*
X2452Y13572D01*
X2457D01*
X2460Y13572D01*
X2470Y13573D01*
X2480Y13575D01*
X2480D01*
X2482Y13576D01*
X2484Y13577D01*
X2488Y13578D01*
X2496Y13582D01*
X2504Y13587D01*
X2504Y13588D01*
X2506Y13588D01*
X2508Y13590D01*
X2510Y13593D01*
X2515Y13600D01*
X2520Y13609D01*
Y13610D01*
X2521Y13612D01*
X2522Y13614D01*
X2523Y13618D01*
X2524Y13623D01*
X2526Y13629D01*
X2526Y13635D01*
Y13643D01*
Y13643D01*
Y13646D01*
X2526Y13650D01*
Y13655D01*
X2524Y13665D01*
X2520Y13676D01*
Y13677D01*
X2519Y13679D01*
X2518Y13681D01*
X2516Y13684D01*
X2511Y13691D01*
X2504Y13698D01*
X2503Y13699D01*
X2502Y13699D01*
X2500Y13701D01*
X2496Y13703D01*
X2489Y13707D01*
X2480Y13710D01*
X2479D01*
X2477Y13711D01*
X2474Y13711D01*
X2471Y13712D01*
X2467D01*
X2462Y13713D01*
X2452Y13713D01*
D02*
G37*
G36*
X2586Y14120D02*
X2554D01*
X2549Y14120D01*
X2537D01*
X2524Y14118D01*
X2510Y14117D01*
X2495Y14115D01*
X2482Y14112D01*
X2480D01*
X2478Y14112D01*
X2476Y14111D01*
X2470Y14110D01*
X2462Y14107D01*
X2453Y14104D01*
X2444Y14101D01*
X2435Y14097D01*
X2427Y14092D01*
X2426Y14092D01*
X2424Y14090D01*
X2420Y14088D01*
X2416Y14084D01*
X2411Y14080D01*
X2406Y14074D01*
X2402Y14069D01*
X2398Y14063D01*
X2398Y14062D01*
X2397Y14060D01*
X2396Y14057D01*
X2394Y14052D01*
X2392Y14047D01*
X2391Y14042D01*
X2390Y14035D01*
X2390Y14028D01*
Y14028D01*
Y14025D01*
X2390Y14022D01*
X2391Y14017D01*
X2392Y14012D01*
X2393Y14006D01*
X2396Y14000D01*
X2398Y13994D01*
X2399Y13993D01*
X2400Y13991D01*
X2402Y13988D01*
X2405Y13984D01*
X2409Y13980D01*
X2414Y13975D01*
X2420Y13970D01*
X2427Y13965D01*
X2428Y13964D01*
X2430Y13963D01*
X2435Y13960D01*
X2441Y13958D01*
X2449Y13954D01*
X2458Y13951D01*
X2470Y13948D01*
X2482Y13945D01*
X2483D01*
X2485Y13944D01*
X2488Y13943D01*
X2491Y13943D01*
X2495D01*
X2505Y13941D01*
X2518Y13940D01*
X2532Y13939D01*
X2549Y13938D01*
X2567Y13937D01*
X2581D01*
X2585Y13938D01*
X2597D01*
X2611Y13939D01*
X2626Y13941D01*
X2640Y13942D01*
X2654Y13945D01*
X2655D01*
X2655Y13945D01*
X2659Y13946D01*
X2666Y13948D01*
X2673Y13950D01*
X2682Y13953D01*
X2691Y13957D01*
X2701Y13960D01*
X2709Y13965D01*
X2709Y13966D01*
X2712Y13967D01*
X2715Y13970D01*
X2719Y13974D01*
X2724Y13978D01*
X2729Y13982D01*
X2733Y13988D01*
X2737Y13994D01*
Y13994D01*
X2738Y13996D01*
X2739Y14000D01*
X2741Y14004D01*
X2742Y14010D01*
X2743Y14016D01*
X2744Y14022D01*
X2745Y14028D01*
Y14029D01*
Y14032D01*
X2744Y14035D01*
X2743Y14040D01*
X2743Y14045D01*
X2741Y14050D01*
X2739Y14057D01*
X2737Y14063D01*
X2736Y14064D01*
X2735Y14066D01*
X2733Y14069D01*
X2730Y14073D01*
X2726Y14078D01*
X2721Y14082D01*
X2715Y14088D01*
X2709Y14092D01*
X2708Y14093D01*
X2705Y14094D01*
X2700Y14097D01*
X2694Y14100D01*
X2686Y14103D01*
X2677Y14106D01*
X2666Y14110D01*
X2654Y14112D01*
X2653D01*
X2653Y14113D01*
X2651D01*
X2648Y14114D01*
X2645Y14114D01*
X2640Y14115D01*
X2630Y14116D01*
X2617Y14118D01*
X2603Y14119D01*
X2586Y14120D01*
D02*
G37*
G36*
X1291Y8671D02*
X1269Y8662D01*
X1260Y8640D01*
X1269Y8618D01*
X1291Y8609D01*
X1313Y8618D01*
X1322Y8640D01*
X1313Y8662D01*
X1291Y8671D01*
D02*
G37*
G36*
X2671Y13725D02*
X2665D01*
X2657Y13724D01*
X2649Y13723D01*
X2639Y13720D01*
X2629Y13716D01*
X2619Y13711D01*
X2611Y13703D01*
X2611Y13703D01*
X2608Y13699D01*
X2605Y13695D01*
X2601Y13687D01*
X2597Y13679D01*
X2594Y13669D01*
X2591Y13657D01*
X2591Y13643D01*
Y13642D01*
Y13641D01*
Y13639D01*
Y13636D01*
X2592Y13629D01*
X2593Y13621D01*
X2596Y13611D01*
X2599Y13601D01*
X2605Y13591D01*
X2611Y13582D01*
X2612Y13582D01*
X2615Y13579D01*
X2620Y13576D01*
X2626Y13572D01*
X2635Y13567D01*
X2645Y13564D01*
X2657Y13561D01*
X2671Y13560D01*
X2677D01*
X2681Y13561D01*
X2686Y13562D01*
X2691Y13562D01*
X2703Y13566D01*
X2703D01*
X2705Y13567D01*
X2707Y13568D01*
X2711Y13570D01*
X2719Y13574D01*
X2727Y13581D01*
X2728Y13582D01*
X2729Y13583D01*
X2731Y13585D01*
X2733Y13588D01*
X2735Y13592D01*
X2738Y13596D01*
X2743Y13607D01*
Y13608D01*
X2744Y13610D01*
X2745Y13613D01*
X2746Y13617D01*
X2747Y13622D01*
X2748Y13629D01*
X2749Y13635D01*
Y13643D01*
Y13643D01*
Y13646D01*
Y13650D01*
X2748Y13655D01*
X2747Y13660D01*
X2747Y13666D01*
X2743Y13678D01*
Y13679D01*
X2742Y13681D01*
X2741Y13683D01*
X2739Y13687D01*
X2734Y13695D01*
X2727Y13704D01*
X2727Y13705D01*
X2725Y13706D01*
X2723Y13708D01*
X2720Y13710D01*
X2713Y13715D01*
X2703Y13720D01*
X2702D01*
X2700Y13721D01*
X2697Y13722D01*
X2693Y13723D01*
X2689Y13724D01*
X2683Y13725D01*
X2671Y13725D01*
D02*
G37*
G36*
X1529Y9175D02*
X1507Y9166D01*
X1498Y9144D01*
X1507Y9122D01*
X1529Y9113D01*
X1551Y9122D01*
X1560Y9144D01*
X1551Y9166D01*
X1529Y9175D01*
D02*
G37*
G36*
X1052D02*
X1030Y9166D01*
X1021Y9144D01*
X1030Y9122D01*
X1052Y9113D01*
X1074Y9122D01*
X1083Y9144D01*
X1074Y9166D01*
X1052Y9175D01*
D02*
G37*
G36*
X1291Y9210D02*
X1269Y9201D01*
X1260Y9179D01*
X1269Y9158D01*
X1291Y9149D01*
X1313Y9158D01*
X1322Y9179D01*
X1313Y9201D01*
X1291Y9210D01*
D02*
G37*
G36*
X3334Y13195D02*
X3309D01*
X3306Y13195D01*
X3297D01*
X3286Y13194D01*
X3276Y13193D01*
X3265Y13191D01*
X3255Y13189D01*
X3254D01*
X3252Y13189D01*
X3250Y13188D01*
X3246Y13187D01*
X3240Y13185D01*
X3234Y13183D01*
X3226Y13181D01*
X3220Y13178D01*
X3214Y13174D01*
X3214Y13174D01*
X3212Y13173D01*
X3209Y13171D01*
X3205Y13168D01*
X3202Y13165D01*
X3198Y13161D01*
X3195Y13157D01*
X3192Y13152D01*
X3192Y13152D01*
X3192Y13150D01*
X3191Y13148D01*
X3189Y13144D01*
X3188Y13140D01*
X3187Y13136D01*
X3187Y13131D01*
X3186Y13126D01*
Y13126D01*
Y13124D01*
X3187Y13121D01*
X3187Y13118D01*
X3187Y13114D01*
X3189Y13110D01*
X3191Y13105D01*
X3192Y13100D01*
X3193Y13100D01*
X3194Y13098D01*
X3195Y13096D01*
X3198Y13093D01*
X3201Y13090D01*
X3204Y13086D01*
X3209Y13082D01*
X3214Y13079D01*
X3214Y13078D01*
X3216Y13077D01*
X3220Y13075D01*
X3225Y13073D01*
X3230Y13071D01*
X3237Y13068D01*
X3246Y13066D01*
X3255Y13063D01*
X3256D01*
X3257Y13063D01*
X3259Y13062D01*
X3262Y13062D01*
X3265D01*
X3273Y13061D01*
X3282Y13060D01*
X3293Y13059D01*
X3305Y13058D01*
X3320Y13058D01*
X3329D01*
X3333Y13058D01*
X3342D01*
X3352Y13059D01*
X3363Y13060D01*
X3374Y13061D01*
X3385Y13063D01*
X3385D01*
X3386Y13064D01*
X3388Y13064D01*
X3393Y13066D01*
X3399Y13067D01*
X3406Y13070D01*
X3413Y13072D01*
X3419Y13075D01*
X3426Y13079D01*
X3426Y13079D01*
X3428Y13080D01*
X3431Y13082D01*
X3433Y13085D01*
X3437Y13088D01*
X3440Y13092D01*
X3444Y13096D01*
X3447Y13100D01*
Y13101D01*
X3447Y13102D01*
X3449Y13105D01*
X3449Y13108D01*
X3451Y13112D01*
X3451Y13117D01*
X3452Y13121D01*
X3453Y13126D01*
Y13127D01*
Y13129D01*
X3452Y13131D01*
X3451Y13135D01*
X3451Y13139D01*
X3450Y13143D01*
X3449Y13148D01*
X3447Y13152D01*
X3446Y13153D01*
X3446Y13154D01*
X3444Y13157D01*
X3442Y13160D01*
X3438Y13163D01*
X3435Y13167D01*
X3431Y13171D01*
X3426Y13174D01*
X3425Y13175D01*
X3422Y13176D01*
X3419Y13178D01*
X3415Y13180D01*
X3408Y13182D01*
X3401Y13185D01*
X3393Y13187D01*
X3385Y13189D01*
X3384D01*
X3383Y13190D01*
X3382D01*
X3380Y13190D01*
X3377Y13191D01*
X3374Y13191D01*
X3367Y13192D01*
X3357Y13193D01*
X3346Y13194D01*
X3334Y13195D01*
D02*
G37*
G36*
X952Y8970D02*
X909Y8953D01*
X891Y8910D01*
X909Y8867D01*
X952Y8850D01*
X994Y8867D01*
X1012Y8910D01*
X994Y8953D01*
X952Y8970D01*
D02*
G37*
G36*
X2708Y11106D02*
X2557D01*
X2557Y11105D01*
X2554Y11103D01*
X2551Y11101D01*
X2547Y11097D01*
X2543Y11093D01*
X2539Y11087D01*
X2535Y11081D01*
X2531Y11075D01*
X2531Y11075D01*
X2530Y11073D01*
X2529Y11069D01*
X2528Y11065D01*
X2526Y11059D01*
X2525Y11053D01*
X2524Y11047D01*
Y11040D01*
Y11039D01*
Y11037D01*
X2524Y11033D01*
Y11029D01*
X2526Y11023D01*
X2527Y11018D01*
X2528Y11012D01*
X2531Y11006D01*
Y11005D01*
X2532Y11003D01*
X2533Y11001D01*
X2536Y10997D01*
X2539Y10993D01*
X2542Y10989D01*
X2547Y10984D01*
X2551Y10980D01*
X2552Y10979D01*
X2554Y10979D01*
X2557Y10977D01*
X2561Y10974D01*
X2566Y10972D01*
X2573Y10969D01*
X2579Y10967D01*
X2587Y10964D01*
X2588D01*
X2591Y10963D01*
X2596Y10963D01*
X2602Y10962D01*
X2609Y10961D01*
X2618Y10960D01*
X2628Y10959D01*
X2649D01*
X2656Y10960D01*
X2665Y10960D01*
X2673Y10961D01*
X2681Y10962D01*
X2690Y10963D01*
X2691D01*
X2693Y10964D01*
X2697Y10965D01*
X2702Y10967D01*
X2713Y10971D01*
X2719Y10973D01*
X2724Y10977D01*
X2725Y10977D01*
X2726Y10979D01*
X2728Y10980D01*
X2731Y10983D01*
X2737Y10990D01*
X2743Y10999D01*
Y10999D01*
X2743Y11001D01*
X2744Y11004D01*
X2745Y11007D01*
X2746Y11012D01*
X2747Y11017D01*
X2748Y11028D01*
Y11029D01*
Y11033D01*
X2747Y11037D01*
X2747Y11043D01*
X2745Y11050D01*
X2744Y11057D01*
X2741Y11065D01*
X2738Y11072D01*
X2737Y11073D01*
X2736Y11075D01*
X2733Y11079D01*
X2730Y11083D01*
X2726Y11088D01*
X2721Y11094D01*
X2715Y11100D01*
X2708Y11106D01*
D02*
G37*
G36*
X1630Y8970D02*
X1587Y8953D01*
X1569Y8910D01*
X1587Y8867D01*
X1630Y8850D01*
X1673Y8867D01*
X1690Y8910D01*
X1673Y8953D01*
X1630Y8970D01*
D02*
G37*
G36*
X2638Y10748D02*
X2629D01*
X2624Y10747D01*
X2619Y10746D01*
X2607Y10745D01*
X2593Y10742D01*
X2579Y10739D01*
X2565Y10734D01*
X2553Y10727D01*
X2553D01*
X2552Y10726D01*
X2549Y10723D01*
X2544Y10718D01*
X2539Y10712D01*
X2533Y10703D01*
X2529Y10692D01*
X2526Y10679D01*
X2524Y10672D01*
Y10664D01*
Y10664D01*
Y10662D01*
Y10660D01*
X2525Y10657D01*
X2526Y10650D01*
X2528Y10640D01*
X2531Y10630D01*
X2537Y10619D01*
X2543Y10609D01*
X2548Y10605D01*
X2553Y10601D01*
X2555Y10600D01*
X2557Y10599D01*
X2559Y10597D01*
X2562Y10596D01*
X2565Y10594D01*
X2575Y10591D01*
X2587Y10587D01*
X2601Y10583D01*
X2619Y10581D01*
X2638Y10580D01*
X2643D01*
X2647Y10581D01*
X2651D01*
X2657Y10581D01*
X2669Y10583D01*
X2683Y10585D01*
X2697Y10589D01*
X2710Y10594D01*
X2722Y10601D01*
X2723Y10601D01*
X2727Y10605D01*
X2731Y10609D01*
X2736Y10617D01*
X2741Y10625D01*
X2746Y10636D01*
X2749Y10649D01*
X2750Y10656D01*
X2751Y10664D01*
Y10665D01*
Y10666D01*
Y10668D01*
X2750Y10672D01*
X2749Y10679D01*
X2747Y10688D01*
X2743Y10698D01*
X2739Y10709D01*
X2731Y10718D01*
X2727Y10723D01*
X2722Y10727D01*
X2721D01*
X2721Y10728D01*
X2717Y10730D01*
X2710Y10734D01*
X2701Y10738D01*
X2689Y10741D01*
X2675Y10744D01*
X2657Y10747D01*
X2638Y10748D01*
D02*
G37*
%LPD*%
D45*
X16450Y19000D02*
D03*
Y19550D02*
D03*
X17875Y19000D02*
D03*
Y19550D02*
D03*
X19300Y19000D02*
D03*
Y19550D02*
D03*
X17875Y20500D02*
D03*
Y21050D02*
D03*
X16450Y20500D02*
D03*
Y21050D02*
D03*
X4300Y15350D02*
D03*
Y15900D02*
D03*
X5750Y13750D02*
D03*
Y14300D02*
D03*
X5000Y13750D02*
D03*
Y14300D02*
D03*
X19450Y10850D02*
D03*
Y11400D02*
D03*
X16100Y10700D02*
D03*
Y11250D02*
D03*
X19450Y10000D02*
D03*
Y9450D02*
D03*
X16100Y8900D02*
D03*
Y9450D02*
D03*
X2900Y4900D02*
D03*
Y5450D02*
D03*
X8800Y4900D02*
D03*
Y5450D02*
D03*
X14550Y4900D02*
D03*
Y5450D02*
D03*
X20300Y4900D02*
D03*
Y5450D02*
D03*
X19300Y20500D02*
D03*
Y21050D02*
D03*
X20200Y11400D02*
D03*
Y10850D02*
D03*
X8450Y10300D02*
D03*
Y10850D02*
D03*
X16800Y11800D02*
D03*
Y11250D02*
D03*
X20200Y9450D02*
D03*
Y10000D02*
D03*
X16800D02*
D03*
Y9450D02*
D03*
D46*
X3800Y6250D02*
D03*
X4350D02*
D03*
X9650D02*
D03*
X10200D02*
D03*
X13800D02*
D03*
X13250D02*
D03*
X11700Y8950D02*
D03*
X11150D02*
D03*
X19550Y6250D02*
D03*
X19000D02*
D03*
X6600Y9250D02*
D03*
X6050D02*
D03*
X6950Y11500D02*
D03*
X7500D02*
D03*
X15650Y13600D02*
D03*
X16200D02*
D03*
X14400Y12900D02*
D03*
X14950D02*
D03*
X14400Y13600D02*
D03*
X14950D02*
D03*
D47*
X3450Y16132D02*
D03*
Y15168D02*
D03*
D48*
X10596Y10898D02*
D03*
Y11095D02*
D03*
X12604Y11489D02*
D03*
Y11292D02*
D03*
Y11095D02*
D03*
Y10898D02*
D03*
Y10702D02*
D03*
Y10505D02*
D03*
Y10308D02*
D03*
Y10111D02*
D03*
X10596D02*
D03*
Y10308D02*
D03*
Y10505D02*
D03*
Y10702D02*
D03*
Y11292D02*
D03*
Y11489D02*
D03*
D49*
X11600Y10800D02*
D03*
D50*
X12289Y9796D02*
D03*
X12092D02*
D03*
X11895D02*
D03*
X11698D02*
D03*
X11502D02*
D03*
X11305D02*
D03*
X11108D02*
D03*
X10911D02*
D03*
Y11804D02*
D03*
X11108D02*
D03*
X11305D02*
D03*
X11502D02*
D03*
X11698D02*
D03*
X11895D02*
D03*
X12092D02*
D03*
X12289D02*
D03*
D51*
X5724Y14947D02*
D03*
X4976D02*
D03*
Y15853D02*
D03*
X5350D02*
D03*
X5724D02*
D03*
D52*
X5850Y19520D02*
D03*
D53*
X6756Y17080D02*
D03*
X4944D02*
D03*
D54*
X5850D02*
D03*
D55*
X17478Y11026D02*
D03*
Y11774D02*
D03*
X18422D02*
D03*
Y11400D02*
D03*
Y11026D02*
D03*
X17478Y9226D02*
D03*
Y9974D02*
D03*
X18422D02*
D03*
Y9600D02*
D03*
Y9226D02*
D03*
D56*
X8150Y14600D02*
D03*
X8150Y13800D02*
D03*
X7175Y14600D02*
D03*
X7175Y13800D02*
D03*
X9050Y14600D02*
D03*
X9050Y13800D02*
D03*
D57*
X17165Y18256D02*
D03*
Y18000D02*
D03*
Y17744D02*
D03*
X17835Y18256D02*
D03*
Y18000D02*
D03*
Y17744D02*
D03*
D58*
X2100Y6200D02*
D03*
X2900Y6200D02*
D03*
X8000Y6200D02*
D03*
X8800Y6200D02*
D03*
X15400Y6200D02*
D03*
X14600Y6200D02*
D03*
X21100Y6200D02*
D03*
X20300Y6200D02*
D03*
D59*
X7500Y9984D02*
D03*
X6043D02*
D03*
Y10850D02*
D03*
X7500D02*
D03*
D60*
X21654Y21654D02*
D03*
X1969D02*
D03*
D61*
X20400Y3472D02*
D03*
X14583D02*
D03*
X8767D02*
D03*
X2950D02*
D03*
D62*
X20400Y1700D02*
D03*
X14583D02*
D03*
X8767D02*
D03*
X2950D02*
D03*
D63*
X22565D02*
D03*
X18235D02*
D03*
X16749D02*
D03*
X12418D02*
D03*
X10932D02*
D03*
X6601D02*
D03*
X5115D02*
D03*
X785D02*
D03*
D64*
X8610Y19750D02*
D03*
X15012D02*
D03*
X9311Y21101D02*
D03*
X14311D02*
D03*
D65*
X10409Y20100D02*
D03*
X11205Y20101D02*
D03*
X12008Y20100D02*
D03*
X10811Y19400D02*
D03*
X11606D02*
D03*
X12409D02*
D03*
X12811Y20101D02*
D03*
X13213Y19400D02*
D03*
D66*
X17350Y13600D02*
D03*
D67*
Y14600D02*
D03*
D68*
X10700Y18550D02*
D03*
X11700Y13700D02*
D03*
X9350Y15850D02*
D03*
X14100Y13250D02*
D03*
X15650Y11250D02*
D03*
Y12050D02*
D03*
X16450Y18500D02*
D03*
X15750Y17450D02*
D03*
X18350Y18000D02*
D03*
X16100Y17700D02*
D03*
X7150Y13000D02*
D03*
X9050Y13050D02*
D03*
X8500Y13000D02*
D03*
X10250Y9400D02*
D03*
Y18100D02*
D03*
X7300Y17050D02*
D03*
X13650Y12350D02*
D03*
X14350D02*
D03*
X16200Y13100D02*
D03*
X14600Y10900D02*
D03*
X14350Y11250D02*
D03*
X14100Y11500D02*
D03*
X11750Y12200D02*
D03*
X12100D02*
D03*
X9850Y10750D02*
D03*
X11750Y9350D02*
D03*
D69*
X11167Y10367D02*
D03*
Y10800D02*
D03*
Y11233D02*
D03*
X11600Y10367D02*
D03*
Y10800D02*
D03*
Y11233D02*
D03*
X12033Y10367D02*
D03*
Y10800D02*
D03*
Y11233D02*
D03*
M02*
