%FSLAX24Y24*%
%MOIN*%
G70*
G01*
G75*
G04 Layer_Physical_Order=2*
G04 Layer_Color=16711680*
%ADD10C,0.0079*%
%ADD11R,0.0300X0.0300*%
%ADD12R,0.0300X0.0300*%
%ADD13R,0.0492X0.0768*%
%ADD14R,0.0276X0.0079*%
%ADD15R,0.1437X0.1437*%
%ADD16R,0.0079X0.0276*%
%ADD17R,0.0236X0.0394*%
%ADD18R,0.1378X0.0846*%
%ADD19R,0.0433X0.0846*%
%ADD20R,0.0433X0.0846*%
%ADD21R,0.0433X0.0236*%
%ADD22R,0.0500X0.0400*%
%ADD23O,0.0512X0.0138*%
%ADD24R,0.0400X0.0500*%
%ADD25R,0.0787X0.0472*%
%ADD26C,0.0118*%
%ADD27R,0.1400X0.0900*%
%ADD28R,0.1140X0.0550*%
%ADD29R,0.1400X0.1550*%
%ADD30C,0.1969*%
%ADD31C,0.1181*%
%ADD32C,0.1575*%
%ADD33O,0.0709X0.0787*%
%ADD34C,0.0600*%
%ADD35O,0.0472X0.0551*%
%ADD36R,0.0709X0.0709*%
%ADD37C,0.0709*%
%ADD38C,0.0236*%
%ADD39C,0.0197*%
G36*
X23622Y-0D02*
X-0D01*
Y23622D01*
X23622D01*
Y-0D01*
D02*
G37*
%LPC*%
G36*
X14533Y2587D02*
X14409Y2575D01*
X14242Y2524D01*
X14088Y2441D01*
X13953Y2331D01*
X13842Y2195D01*
X13760Y2041D01*
X13709Y1874D01*
X13697Y1750D01*
X14533D01*
Y2587D01*
D02*
G37*
G36*
X12468Y2191D02*
Y1750D01*
X12875D01*
X12861Y1858D01*
X12815Y1969D01*
X12742Y2063D01*
X12647Y2136D01*
X12537Y2182D01*
X12468Y2191D01*
D02*
G37*
G36*
X12368D02*
X12299Y2182D01*
X12189Y2136D01*
X12094Y2063D01*
X12021Y1969D01*
X11975Y1858D01*
X11961Y1750D01*
X12368D01*
Y2191D01*
D02*
G37*
G36*
X14633Y2587D02*
Y1750D01*
X15470D01*
X15458Y1874D01*
X15407Y2041D01*
X15325Y2195D01*
X15214Y2331D01*
X15079Y2441D01*
X14925Y2524D01*
X14757Y2575D01*
X14633Y2587D01*
D02*
G37*
G36*
X18185Y2191D02*
X18116Y2182D01*
X18006Y2136D01*
X17911Y2063D01*
X17838Y1969D01*
X17792Y1858D01*
X17778Y1750D01*
X18185D01*
Y2191D01*
D02*
G37*
G36*
X16799D02*
Y1750D01*
X17206D01*
X17191Y1858D01*
X17146Y1969D01*
X17073Y2063D01*
X16978Y2136D01*
X16867Y2182D01*
X16799Y2191D01*
D02*
G37*
G36*
X16699D02*
X16630Y2182D01*
X16520Y2136D01*
X16425Y2063D01*
X16352Y1969D01*
X16306Y1858D01*
X16292Y1750D01*
X16699D01*
Y2191D01*
D02*
G37*
G36*
X6651D02*
Y1750D01*
X7058D01*
X7044Y1858D01*
X6998Y1969D01*
X6925Y2063D01*
X6830Y2136D01*
X6720Y2182D01*
X6651Y2191D01*
D02*
G37*
G36*
X6551D02*
X6483Y2182D01*
X6372Y2136D01*
X6277Y2063D01*
X6204Y1969D01*
X6159Y1858D01*
X6144Y1750D01*
X6551D01*
Y2191D01*
D02*
G37*
G36*
X5165D02*
Y1750D01*
X5572D01*
X5558Y1858D01*
X5512Y1969D01*
X5439Y2063D01*
X5344Y2136D01*
X5234Y2182D01*
X5165Y2191D01*
D02*
G37*
G36*
X8717Y2587D02*
X8593Y2575D01*
X8425Y2524D01*
X8271Y2441D01*
X8136Y2331D01*
X8025Y2195D01*
X7943Y2041D01*
X7892Y1874D01*
X7880Y1750D01*
X8717D01*
Y2587D01*
D02*
G37*
G36*
X10982Y2191D02*
Y1750D01*
X11389D01*
X11375Y1858D01*
X11329Y1969D01*
X11256Y2063D01*
X11161Y2136D01*
X11051Y2182D01*
X10982Y2191D01*
D02*
G37*
G36*
X10882D02*
X10813Y2182D01*
X10703Y2136D01*
X10608Y2063D01*
X10535Y1969D01*
X10489Y1858D01*
X10475Y1750D01*
X10882D01*
Y2191D01*
D02*
G37*
G36*
X8817Y2587D02*
Y1750D01*
X9653D01*
X9641Y1874D01*
X9590Y2041D01*
X9508Y2195D01*
X9397Y2331D01*
X9262Y2441D01*
X9108Y2524D01*
X8941Y2575D01*
X8817Y2587D01*
D02*
G37*
G36*
X11000Y8400D02*
X10800D01*
Y8200D01*
X11000D01*
Y8400D01*
D02*
G37*
G36*
X20400Y4124D02*
X20273Y4112D01*
X20150Y4075D01*
X20037Y4014D01*
X19938Y3933D01*
X19857Y3834D01*
X19797Y3721D01*
X19760Y3599D01*
X19747Y3472D01*
X19760Y3344D01*
X19797Y3222D01*
X19857Y3109D01*
X19938Y3010D01*
X20037Y2929D01*
X20150Y2869D01*
X20273Y2831D01*
X20400Y2819D01*
X20527Y2831D01*
X20650Y2869D01*
X20763Y2929D01*
X20862Y3010D01*
X20943Y3109D01*
X21003Y3222D01*
X21040Y3344D01*
X21053Y3472D01*
X21040Y3599D01*
X21003Y3721D01*
X20943Y3834D01*
X20862Y3933D01*
X20763Y4014D01*
X20650Y4075D01*
X20527Y4112D01*
X20400Y4124D01*
D02*
G37*
G36*
X14583D02*
X14456Y4112D01*
X14334Y4075D01*
X14221Y4014D01*
X14122Y3933D01*
X14041Y3834D01*
X13980Y3721D01*
X13943Y3599D01*
X13931Y3472D01*
X13943Y3344D01*
X13980Y3222D01*
X14041Y3109D01*
X14122Y3010D01*
X14221Y2929D01*
X14334Y2869D01*
X14456Y2831D01*
X14583Y2819D01*
X14711Y2831D01*
X14833Y2869D01*
X14946Y2929D01*
X15045Y3010D01*
X15126Y3109D01*
X15186Y3222D01*
X15224Y3344D01*
X15236Y3472D01*
X15224Y3599D01*
X15186Y3721D01*
X15126Y3834D01*
X15045Y3933D01*
X14946Y4014D01*
X14833Y4075D01*
X14711Y4112D01*
X14583Y4124D01*
D02*
G37*
G36*
X11300Y8400D02*
X11100D01*
Y8200D01*
X11300D01*
Y8400D01*
D02*
G37*
G36*
X9300Y8650D02*
X9100D01*
Y8450D01*
X9300D01*
Y8650D01*
D02*
G37*
G36*
X11950Y8400D02*
X11750D01*
Y8200D01*
X11950D01*
Y8400D01*
D02*
G37*
G36*
X11650D02*
X11450D01*
Y8200D01*
X11650D01*
Y8400D01*
D02*
G37*
G36*
X20450Y2587D02*
Y1750D01*
X21287D01*
X21275Y1874D01*
X21224Y2041D01*
X21141Y2195D01*
X21031Y2331D01*
X20895Y2441D01*
X20741Y2524D01*
X20574Y2575D01*
X20450Y2587D01*
D02*
G37*
G36*
X20350D02*
X20226Y2575D01*
X20059Y2524D01*
X19905Y2441D01*
X19769Y2331D01*
X19659Y2195D01*
X19576Y2041D01*
X19525Y1874D01*
X19513Y1750D01*
X20350D01*
Y2587D01*
D02*
G37*
G36*
X18285Y2191D02*
Y1750D01*
X18691D01*
X18677Y1858D01*
X18632Y1969D01*
X18559Y2063D01*
X18464Y2136D01*
X18353Y2182D01*
X18285Y2191D01*
D02*
G37*
G36*
X22515D02*
X22447Y2182D01*
X22336Y2136D01*
X22241Y2063D01*
X22169Y1969D01*
X22123Y1858D01*
X22109Y1750D01*
X22515D01*
Y2191D01*
D02*
G37*
G36*
X8767Y4124D02*
X8639Y4112D01*
X8517Y4075D01*
X8404Y4014D01*
X8305Y3933D01*
X8224Y3834D01*
X8164Y3721D01*
X8126Y3599D01*
X8114Y3472D01*
X8126Y3344D01*
X8164Y3222D01*
X8224Y3109D01*
X8305Y3010D01*
X8404Y2929D01*
X8517Y2869D01*
X8639Y2831D01*
X8767Y2819D01*
X8894Y2831D01*
X9016Y2869D01*
X9129Y2929D01*
X9228Y3010D01*
X9309Y3109D01*
X9370Y3222D01*
X9407Y3344D01*
X9419Y3472D01*
X9407Y3599D01*
X9370Y3721D01*
X9309Y3834D01*
X9228Y3933D01*
X9129Y4014D01*
X9016Y4075D01*
X8894Y4112D01*
X8767Y4124D01*
D02*
G37*
G36*
X2950D02*
X2823Y4112D01*
X2700Y4075D01*
X2587Y4014D01*
X2488Y3933D01*
X2407Y3834D01*
X2347Y3721D01*
X2310Y3599D01*
X2297Y3472D01*
X2310Y3344D01*
X2347Y3222D01*
X2407Y3109D01*
X2488Y3010D01*
X2587Y2929D01*
X2700Y2869D01*
X2823Y2831D01*
X2950Y2819D01*
X3077Y2831D01*
X3200Y2869D01*
X3313Y2929D01*
X3412Y3010D01*
X3493Y3109D01*
X3553Y3222D01*
X3590Y3344D01*
X3603Y3472D01*
X3590Y3599D01*
X3553Y3721D01*
X3493Y3834D01*
X3412Y3933D01*
X3313Y4014D01*
X3200Y4075D01*
X3077Y4112D01*
X2950Y4124D01*
D02*
G37*
G36*
X22615Y2191D02*
Y1750D01*
X23022D01*
X23008Y1858D01*
X22962Y1969D01*
X22889Y2063D01*
X22794Y2136D01*
X22684Y2182D01*
X22615Y2191D01*
D02*
G37*
G36*
X5065D02*
X4997Y2182D01*
X4886Y2136D01*
X4791Y2063D01*
X4719Y1969D01*
X4673Y1858D01*
X4658Y1750D01*
X5065D01*
Y2191D01*
D02*
G37*
G36*
X1242Y1650D02*
X835D01*
Y1209D01*
X903Y1218D01*
X1014Y1264D01*
X1109Y1337D01*
X1182Y1432D01*
X1227Y1542D01*
X1242Y1650D01*
D02*
G37*
G36*
X735D02*
X328D01*
X342Y1542D01*
X388Y1432D01*
X461Y1337D01*
X556Y1264D01*
X666Y1218D01*
X735Y1209D01*
Y1650D01*
D02*
G37*
G36*
X21287D02*
X20450D01*
Y813D01*
X20574Y825D01*
X20741Y876D01*
X20895Y959D01*
X21031Y1069D01*
X21141Y1205D01*
X21224Y1359D01*
X21275Y1526D01*
X21287Y1650D01*
D02*
G37*
G36*
X5065D02*
X4658D01*
X4673Y1542D01*
X4719Y1432D01*
X4791Y1337D01*
X4886Y1264D01*
X4997Y1218D01*
X5065Y1209D01*
Y1650D01*
D02*
G37*
G36*
X7058D02*
X6651D01*
Y1209D01*
X6720Y1218D01*
X6830Y1264D01*
X6925Y1337D01*
X6998Y1432D01*
X7044Y1542D01*
X7058Y1650D01*
D02*
G37*
G36*
X6551D02*
X6144D01*
X6159Y1542D01*
X6204Y1432D01*
X6277Y1337D01*
X6372Y1264D01*
X6483Y1218D01*
X6551Y1209D01*
Y1650D01*
D02*
G37*
G36*
X5572D02*
X5165D01*
Y1209D01*
X5234Y1218D01*
X5344Y1264D01*
X5439Y1337D01*
X5512Y1432D01*
X5558Y1542D01*
X5572Y1650D01*
D02*
G37*
G36*
X8717D02*
X7880D01*
X7892Y1526D01*
X7943Y1359D01*
X8025Y1205D01*
X8136Y1069D01*
X8271Y959D01*
X8425Y876D01*
X8593Y825D01*
X8717Y813D01*
Y1650D01*
D02*
G37*
G36*
X3837D02*
X3000D01*
Y813D01*
X3124Y825D01*
X3291Y876D01*
X3445Y959D01*
X3581Y1069D01*
X3691Y1205D01*
X3774Y1359D01*
X3825Y1526D01*
X3837Y1650D01*
D02*
G37*
G36*
X2900D02*
X2063D01*
X2075Y1526D01*
X2126Y1359D01*
X2209Y1205D01*
X2319Y1069D01*
X2455Y959D01*
X2609Y876D01*
X2776Y825D01*
X2900Y813D01*
Y1650D01*
D02*
G37*
G36*
X9653D02*
X8817D01*
Y813D01*
X8941Y825D01*
X9108Y876D01*
X9262Y959D01*
X9397Y1069D01*
X9508Y1205D01*
X9590Y1359D01*
X9641Y1526D01*
X9653Y1650D01*
D02*
G37*
G36*
X20350D02*
X19513D01*
X19525Y1526D01*
X19576Y1359D01*
X19659Y1205D01*
X19769Y1069D01*
X19905Y959D01*
X20059Y876D01*
X20226Y825D01*
X20350Y813D01*
Y1650D01*
D02*
G37*
G36*
X15470D02*
X14633D01*
Y813D01*
X14757Y825D01*
X14925Y876D01*
X15079Y959D01*
X15214Y1069D01*
X15325Y1205D01*
X15407Y1359D01*
X15458Y1526D01*
X15470Y1650D01*
D02*
G37*
G36*
X14533D02*
X13697D01*
X13709Y1526D01*
X13760Y1359D01*
X13842Y1205D01*
X13953Y1069D01*
X14088Y959D01*
X14242Y876D01*
X14409Y825D01*
X14533Y813D01*
Y1650D01*
D02*
G37*
G36*
X23022D02*
X22615D01*
Y1209D01*
X22684Y1218D01*
X22794Y1264D01*
X22889Y1337D01*
X22962Y1432D01*
X23008Y1542D01*
X23022Y1650D01*
D02*
G37*
G36*
X22515D02*
X22109D01*
X22123Y1542D01*
X22169Y1432D01*
X22241Y1337D01*
X22336Y1264D01*
X22447Y1218D01*
X22515Y1209D01*
Y1650D01*
D02*
G37*
G36*
X18691D02*
X18285D01*
Y1209D01*
X18353Y1218D01*
X18464Y1264D01*
X18559Y1337D01*
X18632Y1432D01*
X18677Y1542D01*
X18691Y1650D01*
D02*
G37*
G36*
X735Y2191D02*
X666Y2182D01*
X556Y2136D01*
X461Y2063D01*
X388Y1969D01*
X342Y1858D01*
X328Y1750D01*
X735D01*
Y2191D01*
D02*
G37*
G36*
X3000Y2587D02*
Y1750D01*
X3837D01*
X3825Y1874D01*
X3774Y2041D01*
X3691Y2195D01*
X3581Y2331D01*
X3445Y2441D01*
X3291Y2524D01*
X3124Y2575D01*
X3000Y2587D01*
D02*
G37*
G36*
X2900D02*
X2776Y2575D01*
X2609Y2524D01*
X2455Y2441D01*
X2319Y2331D01*
X2209Y2195D01*
X2126Y2041D01*
X2075Y1874D01*
X2063Y1750D01*
X2900D01*
Y2587D01*
D02*
G37*
G36*
X835Y2191D02*
Y1750D01*
X1242D01*
X1227Y1858D01*
X1182Y1969D01*
X1109Y2063D01*
X1014Y2136D01*
X903Y2182D01*
X835Y2191D01*
D02*
G37*
G36*
X12368Y1650D02*
X11961D01*
X11975Y1542D01*
X12021Y1432D01*
X12094Y1337D01*
X12189Y1264D01*
X12299Y1218D01*
X12368Y1209D01*
Y1650D01*
D02*
G37*
G36*
X11389D02*
X10982D01*
Y1209D01*
X11051Y1218D01*
X11161Y1264D01*
X11256Y1337D01*
X11329Y1432D01*
X11375Y1542D01*
X11389Y1650D01*
D02*
G37*
G36*
X10882D02*
X10475D01*
X10489Y1542D01*
X10535Y1432D01*
X10608Y1337D01*
X10703Y1264D01*
X10813Y1218D01*
X10882Y1209D01*
Y1650D01*
D02*
G37*
G36*
X12875D02*
X12468D01*
Y1209D01*
X12537Y1218D01*
X12647Y1264D01*
X12742Y1337D01*
X12815Y1432D01*
X12861Y1542D01*
X12875Y1650D01*
D02*
G37*
G36*
X18185D02*
X17778D01*
X17792Y1542D01*
X17838Y1432D01*
X17911Y1337D01*
X18006Y1264D01*
X18116Y1218D01*
X18185Y1209D01*
Y1650D01*
D02*
G37*
G36*
X17206D02*
X16799D01*
Y1209D01*
X16867Y1218D01*
X16978Y1264D01*
X17073Y1337D01*
X17146Y1432D01*
X17191Y1542D01*
X17206Y1650D01*
D02*
G37*
G36*
X16699D02*
X16292D01*
X16306Y1542D01*
X16352Y1432D01*
X16425Y1337D01*
X16520Y1264D01*
X16630Y1218D01*
X16699Y1209D01*
Y1650D01*
D02*
G37*
G36*
X17400Y15052D02*
Y14650D01*
X17802D01*
X17793Y14719D01*
X17747Y14829D01*
X17674Y14924D01*
X17579Y14997D01*
X17469Y15043D01*
X17400Y15052D01*
D02*
G37*
G36*
X17300D02*
X17231Y15043D01*
X17121Y14997D01*
X17026Y14924D01*
X16953Y14829D01*
X16907Y14719D01*
X16898Y14650D01*
X17300D01*
Y15052D01*
D02*
G37*
G36*
X17802Y14550D02*
X17400D01*
Y14148D01*
X17469Y14157D01*
X17579Y14203D01*
X17674Y14276D01*
X17747Y14371D01*
X17793Y14481D01*
X17802Y14550D01*
D02*
G37*
G36*
X16450Y18681D02*
X16381Y18667D01*
X16322Y18628D01*
X16283Y18569D01*
X16269Y18500D01*
X16283Y18431D01*
X16322Y18372D01*
X16322Y18371D01*
X15679Y17727D01*
X15657Y17695D01*
X15650Y17656D01*
Y17596D01*
X15622Y17578D01*
X15583Y17519D01*
X15569Y17450D01*
X15583Y17381D01*
X15622Y17322D01*
X15681Y17283D01*
X15750Y17269D01*
X15819Y17283D01*
X15878Y17322D01*
X15917Y17381D01*
X15931Y17450D01*
X15917Y17519D01*
X15878Y17578D01*
X15872Y17582D01*
X15869Y17610D01*
X15908Y17642D01*
X15932Y17634D01*
X15933Y17631D01*
X15972Y17572D01*
X16031Y17533D01*
X16100Y17519D01*
X16169Y17533D01*
X16228Y17572D01*
X16246Y17600D01*
X18100D01*
X18138Y17607D01*
X18171Y17629D01*
X18364Y17822D01*
X18419Y17833D01*
X18478Y17872D01*
X18517Y17931D01*
X18531Y18000D01*
X18517Y18069D01*
X18478Y18128D01*
X18419Y18167D01*
X18350Y18181D01*
X18281Y18167D01*
X18222Y18128D01*
X18183Y18069D01*
X18169Y18000D01*
X18183Y17931D01*
X18185Y17927D01*
X18058Y17800D01*
X16246D01*
X16228Y17828D01*
X16169Y17867D01*
X16166Y17868D01*
X16151Y17915D01*
X16521Y18285D01*
X16536Y18307D01*
X16543Y18318D01*
X16550Y18354D01*
X16578Y18372D01*
X16617Y18431D01*
X16631Y18500D01*
X16617Y18569D01*
X16578Y18628D01*
X16519Y18667D01*
X16450Y18681D01*
D02*
G37*
G36*
X10811Y19737D02*
X10734Y19727D01*
X10662Y19697D01*
X10600Y19650D01*
X10553Y19588D01*
X10523Y19516D01*
X10513Y19439D01*
Y19361D01*
X10523Y19284D01*
X10553Y19212D01*
X10600Y19150D01*
X10662Y19103D01*
X10734Y19073D01*
X10811Y19063D01*
X10888Y19073D01*
X10960Y19103D01*
X11022Y19150D01*
X11069Y19212D01*
X11099Y19284D01*
X11109Y19361D01*
Y19439D01*
X11099Y19516D01*
X11069Y19588D01*
X11022Y19650D01*
X10960Y19697D01*
X10888Y19727D01*
X10811Y19737D01*
D02*
G37*
G36*
X10250Y18281D02*
X10181Y18267D01*
X10122Y18228D01*
X10083Y18169D01*
X10069Y18100D01*
X10076Y18068D01*
X9158Y17150D01*
X7446D01*
X7428Y17178D01*
X7369Y17217D01*
X7300Y17231D01*
X7231Y17217D01*
X7172Y17178D01*
X7133Y17119D01*
X7119Y17050D01*
X7133Y16981D01*
X7172Y16922D01*
X7231Y16883D01*
X7300Y16869D01*
X7369Y16883D01*
X7428Y16922D01*
X7446Y16950D01*
X9200D01*
X9238Y16957D01*
X9271Y16979D01*
X10218Y17926D01*
X10250Y17919D01*
X10319Y17933D01*
X10378Y17972D01*
X10417Y18031D01*
X10431Y18100D01*
X10417Y18169D01*
X10378Y18228D01*
X10319Y18267D01*
X10250Y18281D01*
D02*
G37*
G36*
X12409Y19737D02*
X12332Y19727D01*
X12261Y19697D01*
X12199Y19650D01*
X12152Y19588D01*
X12122Y19516D01*
X12112Y19439D01*
Y19361D01*
X12122Y19284D01*
X12152Y19212D01*
X12199Y19150D01*
X12261Y19103D01*
X12290Y19091D01*
X12300Y19042D01*
X10839Y17581D01*
X10792Y17600D01*
Y18399D01*
X10828Y18422D01*
X10867Y18481D01*
X10881Y18550D01*
X10867Y18619D01*
X10828Y18678D01*
X10769Y18717D01*
X10700Y18731D01*
X10631Y18717D01*
X10572Y18678D01*
X10533Y18619D01*
X10519Y18550D01*
X10533Y18481D01*
X10572Y18422D01*
X10592Y18409D01*
Y15308D01*
X10592Y15308D01*
X10592D01*
X10599Y15269D01*
X10621Y15237D01*
X13476Y12382D01*
X13469Y12350D01*
X13483Y12281D01*
X13522Y12222D01*
X13581Y12183D01*
X13650Y12169D01*
X13719Y12183D01*
X13778Y12222D01*
X13817Y12281D01*
X13831Y12350D01*
X13817Y12419D01*
X13778Y12478D01*
X13719Y12517D01*
X13650Y12531D01*
X13618Y12524D01*
X13038Y13103D01*
X13058Y13150D01*
X13954D01*
X13972Y13122D01*
X14000Y13104D01*
Y11646D01*
X13972Y11628D01*
X13933Y11569D01*
X13919Y11500D01*
X13933Y11431D01*
X13972Y11372D01*
X14031Y11333D01*
X14100Y11319D01*
X14142Y11328D01*
X14178Y11292D01*
X14169Y11250D01*
X14183Y11181D01*
X14222Y11122D01*
X14281Y11083D01*
X14350Y11069D01*
X14419Y11083D01*
X14456Y11107D01*
X14488Y11090D01*
X14491Y11040D01*
X14472Y11028D01*
X14433Y10969D01*
X14419Y10900D01*
X14433Y10831D01*
X14472Y10772D01*
X14531Y10733D01*
X14600Y10719D01*
X14669Y10733D01*
X14728Y10772D01*
X14767Y10831D01*
X14781Y10900D01*
X14767Y10969D01*
X14728Y11028D01*
X14700Y11046D01*
Y12208D01*
X15492Y13000D01*
X16054D01*
X16072Y12972D01*
X16131Y12933D01*
X16200Y12919D01*
X16269Y12933D01*
X16328Y12972D01*
X16367Y13031D01*
X16381Y13100D01*
X16367Y13169D01*
X16328Y13228D01*
X16269Y13267D01*
X16200Y13281D01*
X16131Y13267D01*
X16072Y13228D01*
X16054Y13200D01*
X15450D01*
X15412Y13193D01*
X15379Y13171D01*
X14573Y12365D01*
X14525Y12379D01*
X14517Y12419D01*
X14478Y12478D01*
X14419Y12517D01*
X14350Y12531D01*
X14281Y12517D01*
X14244Y12493D01*
X14200Y12516D01*
Y13104D01*
X14228Y13122D01*
X14267Y13181D01*
X14281Y13250D01*
X14267Y13319D01*
X14228Y13378D01*
X14169Y13417D01*
X14100Y13431D01*
X14031Y13417D01*
X13972Y13378D01*
X13954Y13350D01*
X12992D01*
X10950Y15392D01*
Y17408D01*
X12480Y18938D01*
X12502Y18971D01*
X12510Y19009D01*
X12510Y19009D01*
X12510Y19009D01*
Y19009D01*
Y19083D01*
X12558Y19103D01*
X12620Y19150D01*
X12667Y19212D01*
X12697Y19284D01*
X12707Y19361D01*
Y19439D01*
X12697Y19516D01*
X12667Y19588D01*
X12620Y19650D01*
X12558Y19697D01*
X12487Y19727D01*
X12409Y19737D01*
D02*
G37*
G36*
X11650Y13400D02*
X11450D01*
Y13200D01*
X11650D01*
Y13400D01*
D02*
G37*
G36*
X11350D02*
X11150D01*
Y13200D01*
X11350D01*
Y13400D01*
D02*
G37*
G36*
X10950D02*
X10750D01*
Y13200D01*
X10950D01*
Y13400D01*
D02*
G37*
G36*
X12050D02*
X11850D01*
Y13200D01*
X12050D01*
Y13400D01*
D02*
G37*
G36*
X17300Y14550D02*
X16898D01*
X16907Y14481D01*
X16953Y14371D01*
X17026Y14276D01*
X17121Y14203D01*
X17231Y14157D01*
X17300Y14148D01*
Y14550D01*
D02*
G37*
G36*
X9350Y16031D02*
X9281Y16017D01*
X9222Y15978D01*
X9183Y15919D01*
X9169Y15850D01*
X9183Y15781D01*
X9222Y15722D01*
X9281Y15683D01*
X9350Y15669D01*
X9382Y15676D01*
X11429Y13629D01*
X11462Y13607D01*
X11468Y13606D01*
X11500Y13600D01*
X11554D01*
X11572Y13572D01*
X11631Y13533D01*
X11700Y13519D01*
X11769Y13533D01*
X11828Y13572D01*
X11867Y13631D01*
X11881Y13700D01*
X11867Y13769D01*
X11828Y13828D01*
X11769Y13867D01*
X11700Y13881D01*
X11631Y13867D01*
X11572Y13828D01*
X11571Y13826D01*
X11521Y13821D01*
X9524Y15818D01*
X9531Y15850D01*
X9517Y15919D01*
X9478Y15978D01*
X9419Y16017D01*
X9350Y16031D01*
D02*
G37*
G36*
X12350Y13400D02*
X12150D01*
Y13200D01*
X12350D01*
Y13400D01*
D02*
G37*
G36*
X11606Y19737D02*
X11529Y19727D01*
X11457Y19697D01*
X11396Y19650D01*
X11348Y19588D01*
X11319Y19516D01*
X11308Y19439D01*
Y19361D01*
X11319Y19284D01*
X11348Y19212D01*
X11396Y19150D01*
X11457Y19103D01*
X11529Y19073D01*
X11606Y19063D01*
X11683Y19073D01*
X11755Y19103D01*
X11817Y19150D01*
X11864Y19212D01*
X11894Y19284D01*
X11904Y19361D01*
Y19439D01*
X11894Y19516D01*
X11864Y19588D01*
X11817Y19650D01*
X11755Y19697D01*
X11683Y19727D01*
X11606Y19737D01*
D02*
G37*
G36*
X12058Y20472D02*
Y20150D01*
X12346D01*
X12335Y20227D01*
X12302Y20309D01*
X12248Y20379D01*
X12177Y20433D01*
X12096Y20467D01*
X12058Y20472D01*
D02*
G37*
G36*
X11958D02*
X11920Y20467D01*
X11838Y20433D01*
X11768Y20379D01*
X11714Y20309D01*
X11680Y20227D01*
X11670Y20150D01*
X11958D01*
Y20472D01*
D02*
G37*
G36*
X12811Y20438D02*
X12734Y20428D01*
X12662Y20398D01*
X12600Y20351D01*
X12553Y20289D01*
X12523Y20217D01*
X12513Y20140D01*
Y20061D01*
X12523Y19984D01*
X12553Y19913D01*
X12600Y19851D01*
X12662Y19804D01*
X12734Y19774D01*
X12811Y19764D01*
X12888Y19774D01*
X12960Y19804D01*
X13022Y19851D01*
X13069Y19913D01*
X13099Y19984D01*
X13109Y20061D01*
Y20140D01*
X13099Y20217D01*
X13069Y20289D01*
X13022Y20351D01*
X12960Y20398D01*
X12888Y20428D01*
X12811Y20438D01*
D02*
G37*
G36*
X9311Y21803D02*
X9174Y21789D01*
X9042Y21750D01*
X8921Y21685D01*
X8814Y21597D01*
X8727Y21491D01*
X8662Y21370D01*
X8622Y21238D01*
X8609Y21101D01*
X8622Y20964D01*
X8662Y20832D01*
X8727Y20711D01*
X8814Y20604D01*
X8921Y20517D01*
X9042Y20452D01*
X9174Y20412D01*
X9311Y20399D01*
X9448Y20412D01*
X9580Y20452D01*
X9701Y20517D01*
X9808Y20604D01*
X9895Y20711D01*
X9960Y20832D01*
X10000Y20964D01*
X10013Y21101D01*
X10000Y21238D01*
X9960Y21370D01*
X9895Y21491D01*
X9808Y21597D01*
X9701Y21685D01*
X9580Y21750D01*
X9448Y21789D01*
X9311Y21803D01*
D02*
G37*
G36*
X21654Y22700D02*
X21490Y22687D01*
X21330Y22649D01*
X21178Y22586D01*
X21038Y22500D01*
X20914Y22394D01*
X20807Y22269D01*
X20721Y22129D01*
X20658Y21977D01*
X20620Y21817D01*
X20607Y21654D01*
X20620Y21490D01*
X20658Y21330D01*
X20721Y21178D01*
X20807Y21038D01*
X20914Y20914D01*
X21038Y20807D01*
X21178Y20721D01*
X21330Y20658D01*
X21490Y20620D01*
X21654Y20607D01*
X21817Y20620D01*
X21977Y20658D01*
X22129Y20721D01*
X22269Y20807D01*
X22394Y20914D01*
X22500Y21038D01*
X22586Y21178D01*
X22649Y21330D01*
X22687Y21490D01*
X22700Y21654D01*
X22687Y21817D01*
X22649Y21977D01*
X22586Y22129D01*
X22500Y22269D01*
X22394Y22394D01*
X22269Y22500D01*
X22129Y22586D01*
X21977Y22649D01*
X21817Y22687D01*
X21654Y22700D01*
D02*
G37*
G36*
X1969D02*
X1805Y22687D01*
X1645Y22649D01*
X1493Y22586D01*
X1353Y22500D01*
X1228Y22394D01*
X1122Y22269D01*
X1036Y22129D01*
X973Y21977D01*
X935Y21817D01*
X922Y21654D01*
X935Y21490D01*
X973Y21330D01*
X1036Y21178D01*
X1122Y21038D01*
X1228Y20914D01*
X1353Y20807D01*
X1493Y20721D01*
X1645Y20658D01*
X1805Y20620D01*
X1969Y20607D01*
X2132Y20620D01*
X2292Y20658D01*
X2444Y20721D01*
X2584Y20807D01*
X2709Y20914D01*
X2815Y21038D01*
X2901Y21178D01*
X2964Y21330D01*
X3002Y21490D01*
X3015Y21654D01*
X3002Y21817D01*
X2964Y21977D01*
X2901Y22129D01*
X2815Y22269D01*
X2709Y22394D01*
X2584Y22500D01*
X2444Y22586D01*
X2292Y22649D01*
X2132Y22687D01*
X1969Y22700D01*
D02*
G37*
G36*
X14311Y21803D02*
X14174Y21789D01*
X14042Y21750D01*
X13921Y21685D01*
X13814Y21597D01*
X13727Y21491D01*
X13662Y21370D01*
X13622Y21238D01*
X13609Y21101D01*
X13622Y20964D01*
X13662Y20832D01*
X13727Y20711D01*
X13814Y20604D01*
X13921Y20517D01*
X14042Y20452D01*
X14174Y20412D01*
X14311Y20399D01*
X14448Y20412D01*
X14580Y20452D01*
X14701Y20517D01*
X14808Y20604D01*
X14895Y20711D01*
X14960Y20832D01*
X15000Y20964D01*
X15013Y21101D01*
X15000Y21238D01*
X14960Y21370D01*
X14895Y21491D01*
X14808Y21597D01*
X14701Y21685D01*
X14580Y21750D01*
X14448Y21789D01*
X14311Y21803D01*
D02*
G37*
G36*
X15012Y20122D02*
X14916Y20109D01*
X14826Y20072D01*
X14749Y20013D01*
X14690Y19936D01*
X14653Y19846D01*
X14641Y19750D01*
X14653Y19654D01*
X14690Y19565D01*
X14749Y19488D01*
X14826Y19429D01*
X14916Y19392D01*
X15012Y19379D01*
X15108Y19392D01*
X15197Y19429D01*
X15274Y19488D01*
X15333Y19565D01*
X15370Y19654D01*
X15383Y19750D01*
X15370Y19846D01*
X15333Y19936D01*
X15274Y20013D01*
X15197Y20072D01*
X15108Y20109D01*
X15012Y20122D01*
D02*
G37*
G36*
X8610D02*
X8514Y20109D01*
X8425Y20072D01*
X8348Y20013D01*
X8289Y19936D01*
X8252Y19846D01*
X8239Y19750D01*
X8252Y19654D01*
X8289Y19565D01*
X8348Y19488D01*
X8425Y19429D01*
X8514Y19392D01*
X8610Y19379D01*
X8706Y19392D01*
X8796Y19429D01*
X8873Y19488D01*
X8932Y19565D01*
X8969Y19654D01*
X8982Y19750D01*
X8969Y19846D01*
X8932Y19936D01*
X8873Y20013D01*
X8796Y20072D01*
X8706Y20109D01*
X8610Y20122D01*
D02*
G37*
G36*
X13213Y19737D02*
X13136Y19727D01*
X13064Y19697D01*
X13002Y19650D01*
X12955Y19588D01*
X12925Y19516D01*
X12915Y19439D01*
Y19361D01*
X12925Y19284D01*
X12955Y19212D01*
X13002Y19150D01*
X13064Y19103D01*
X13136Y19073D01*
X13213Y19063D01*
X13290Y19073D01*
X13362Y19103D01*
X13423Y19150D01*
X13471Y19212D01*
X13500Y19284D01*
X13510Y19361D01*
Y19439D01*
X13500Y19516D01*
X13471Y19588D01*
X13423Y19650D01*
X13362Y19697D01*
X13290Y19727D01*
X13213Y19737D01*
D02*
G37*
G36*
X11958Y20050D02*
X11670D01*
X11680Y19973D01*
X11714Y19891D01*
X11768Y19821D01*
X11838Y19767D01*
X11920Y19733D01*
X11958Y19728D01*
Y20050D01*
D02*
G37*
G36*
X11205Y20438D02*
X11128Y20428D01*
X11056Y20398D01*
X10994Y20351D01*
X10947Y20289D01*
X10917Y20217D01*
X10907Y20140D01*
Y20061D01*
X10917Y19984D01*
X10947Y19913D01*
X10994Y19851D01*
X11056Y19804D01*
X11128Y19774D01*
X11205Y19764D01*
X11282Y19774D01*
X11354Y19804D01*
X11415Y19851D01*
X11463Y19913D01*
X11492Y19984D01*
X11503Y20061D01*
Y20140D01*
X11492Y20217D01*
X11463Y20289D01*
X11415Y20351D01*
X11354Y20398D01*
X11282Y20428D01*
X11205Y20438D01*
D02*
G37*
G36*
X10409Y20437D02*
X10332Y20427D01*
X10261Y20397D01*
X10199Y20350D01*
X10152Y20288D01*
X10122Y20216D01*
X10112Y20139D01*
Y20061D01*
X10122Y19984D01*
X10152Y19912D01*
X10199Y19850D01*
X10261Y19803D01*
X10332Y19773D01*
X10409Y19763D01*
X10487Y19773D01*
X10558Y19803D01*
X10620Y19850D01*
X10667Y19912D01*
X10697Y19984D01*
X10707Y20061D01*
Y20139D01*
X10697Y20216D01*
X10667Y20288D01*
X10620Y20350D01*
X10558Y20397D01*
X10487Y20427D01*
X10409Y20437D01*
D02*
G37*
G36*
X12346Y20050D02*
X12058D01*
Y19728D01*
X12096Y19733D01*
X12177Y19767D01*
X12248Y19821D01*
X12302Y19891D01*
X12335Y19973D01*
X12346Y20050D01*
D02*
G37*
G36*
X11117Y10317D02*
X10975D01*
X10980Y10290D01*
X11024Y10224D01*
X11090Y10180D01*
X11117Y10175D01*
Y10317D01*
D02*
G37*
G36*
X9600Y9300D02*
X9400D01*
Y9100D01*
X9600D01*
Y9300D01*
D02*
G37*
G36*
X9300D02*
X9100D01*
Y9100D01*
X9300D01*
Y9300D01*
D02*
G37*
G36*
X12225Y10317D02*
X12083D01*
Y10175D01*
X12110Y10180D01*
X12176Y10224D01*
X12220Y10290D01*
X12225Y10317D01*
D02*
G37*
G36*
X9200Y10700D02*
X9000D01*
Y10500D01*
X9200D01*
Y10700D01*
D02*
G37*
G36*
X8900D02*
X8700D01*
Y10500D01*
X8900D01*
Y10700D01*
D02*
G37*
G36*
X9200Y10400D02*
X9000D01*
Y10200D01*
X9200D01*
Y10400D01*
D02*
G37*
G36*
X11300Y8700D02*
X11100D01*
Y8500D01*
X11300D01*
Y8700D01*
D02*
G37*
G36*
X11000D02*
X10800D01*
Y8500D01*
X11000D01*
Y8700D01*
D02*
G37*
G36*
X9600Y8650D02*
X9400D01*
Y8450D01*
X9600D01*
Y8650D01*
D02*
G37*
G36*
X11650Y8700D02*
X11450D01*
Y8500D01*
X11650D01*
Y8700D01*
D02*
G37*
G36*
X9600Y8950D02*
X9400D01*
Y8750D01*
X9600D01*
Y8950D01*
D02*
G37*
G36*
X9300D02*
X9100D01*
Y8750D01*
X9300D01*
Y8950D01*
D02*
G37*
G36*
X11950Y8700D02*
X11750D01*
Y8500D01*
X11950D01*
Y8700D01*
D02*
G37*
G36*
X8900Y11000D02*
X8700D01*
Y10800D01*
X8900D01*
Y11000D01*
D02*
G37*
G36*
X11650Y13100D02*
X11450D01*
Y12900D01*
X11650D01*
Y13100D01*
D02*
G37*
G36*
X11350D02*
X11150D01*
Y12900D01*
X11350D01*
Y13100D01*
D02*
G37*
G36*
X10950D02*
X10750D01*
Y12900D01*
X10950D01*
Y13100D01*
D02*
G37*
G36*
X12050D02*
X11850D01*
Y12900D01*
X12050D01*
Y13100D01*
D02*
G37*
G36*
X10650Y13400D02*
X10450D01*
Y13200D01*
X10650D01*
Y13400D01*
D02*
G37*
G36*
X17763Y14013D02*
X16937D01*
Y13187D01*
X17763D01*
Y14013D01*
D02*
G37*
G36*
X12350Y13100D02*
X12150D01*
Y12900D01*
X12350D01*
Y13100D01*
D02*
G37*
G36*
X15650Y12231D02*
X15581Y12217D01*
X15522Y12178D01*
X15483Y12119D01*
X15469Y12050D01*
X15483Y11981D01*
X15522Y11922D01*
X15550Y11904D01*
Y11396D01*
X15522Y11378D01*
X15483Y11319D01*
X15469Y11250D01*
X15483Y11181D01*
X15522Y11122D01*
X15581Y11083D01*
X15650Y11069D01*
X15719Y11083D01*
X15778Y11122D01*
X15817Y11181D01*
X15831Y11250D01*
X15817Y11319D01*
X15778Y11378D01*
X15750Y11396D01*
Y11904D01*
X15778Y11922D01*
X15817Y11981D01*
X15831Y12050D01*
X15817Y12119D01*
X15778Y12178D01*
X15719Y12217D01*
X15650Y12231D01*
D02*
G37*
G36*
X9050Y13231D02*
X8981Y13217D01*
X8922Y13178D01*
X8883Y13119D01*
X8869Y13050D01*
X8883Y12981D01*
X8922Y12922D01*
X8981Y12883D01*
X9050Y12869D01*
X9082Y12876D01*
X9429Y12529D01*
X9462Y12507D01*
X9500Y12500D01*
X10491D01*
Y12391D01*
X10600D01*
Y11642D01*
X9882Y10924D01*
X9850Y10931D01*
X9781Y10917D01*
X9753Y10898D01*
X9709Y10922D01*
Y10959D01*
X9291D01*
Y10541D01*
X9400D01*
Y10359D01*
X9291D01*
Y10000D01*
X9200D01*
Y10100D01*
X8950D01*
Y10150D01*
X8900D01*
Y10400D01*
X8700D01*
Y10095D01*
X8680Y10087D01*
X8638Y10114D01*
Y12888D01*
X8667Y12931D01*
X8681Y13000D01*
X8667Y13069D01*
X8628Y13128D01*
X8569Y13167D01*
X8500Y13181D01*
X8431Y13167D01*
X8372Y13128D01*
X8333Y13069D01*
X8319Y13000D01*
X8333Y12931D01*
X8372Y12872D01*
X8431Y12833D01*
X8437Y12832D01*
Y12520D01*
X8391Y12501D01*
X7821Y13071D01*
X7788Y13093D01*
X7750Y13100D01*
X7296D01*
X7278Y13128D01*
X7219Y13167D01*
X7150Y13181D01*
X7081Y13167D01*
X7022Y13128D01*
X6983Y13069D01*
X6969Y13000D01*
X6983Y12931D01*
X7022Y12872D01*
X7081Y12833D01*
X7150Y12819D01*
X7219Y12833D01*
X7278Y12872D01*
X7296Y12900D01*
X7708D01*
X8250Y12358D01*
Y10000D01*
X8250Y10000D01*
X8250D01*
X8257Y9962D01*
X8279Y9929D01*
X8579Y9629D01*
X8612Y9607D01*
X8650Y9600D01*
X9100D01*
Y9400D01*
X9600D01*
Y9600D01*
X9691D01*
Y9559D01*
X9691D01*
Y9141D01*
X9800D01*
Y8909D01*
X9691D01*
Y8491D01*
X10109D01*
Y8909D01*
X10000D01*
Y9141D01*
X10109D01*
Y9228D01*
X10153Y9252D01*
X10181Y9233D01*
X10250Y9219D01*
X10319Y9233D01*
X10378Y9272D01*
X10417Y9331D01*
X10431Y9400D01*
X10417Y9469D01*
X10378Y9528D01*
X10319Y9567D01*
X10250Y9581D01*
X10181Y9567D01*
X10169Y9559D01*
X10109Y9559D01*
Y9559D01*
X10000D01*
Y9600D01*
X9993Y9638D01*
X9985Y9649D01*
X9971Y9671D01*
X9888Y9753D01*
X9908Y9800D01*
X10208D01*
X10729Y9279D01*
X10751Y9265D01*
X10762Y9257D01*
X10800Y9250D01*
X10841D01*
Y9209D01*
X10841D01*
Y8791D01*
X11259D01*
Y8900D01*
X11491D01*
Y8791D01*
X11909D01*
Y9209D01*
X11909D01*
X11909Y9269D01*
X11917Y9281D01*
X11931Y9350D01*
X11917Y9419D01*
X11878Y9478D01*
X11819Y9517D01*
X11750Y9531D01*
X11681Y9517D01*
X11622Y9478D01*
X11604Y9450D01*
X10842D01*
X10321Y9971D01*
X10288Y9993D01*
X10250Y10000D01*
X9709D01*
Y10359D01*
X9600D01*
Y10541D01*
X9709D01*
Y10578D01*
X9753Y10602D01*
X9781Y10583D01*
X9850Y10569D01*
X9919Y10583D01*
X9978Y10622D01*
X10017Y10681D01*
X10031Y10750D01*
X10024Y10782D01*
X10771Y11529D01*
X10793Y11562D01*
X10800Y11600D01*
Y12391D01*
X10909D01*
Y12500D01*
X11191D01*
Y12391D01*
X11300D01*
Y12300D01*
X11300Y12300D01*
X11300D01*
X11307Y12262D01*
X11329Y12229D01*
X11429Y12129D01*
X11451Y12114D01*
X11462Y12107D01*
X11500Y12100D01*
X11604D01*
X11622Y12072D01*
X11681Y12033D01*
X11750Y12019D01*
X11819Y12033D01*
X11878Y12072D01*
X11900Y12106D01*
X11950D01*
X11972Y12072D01*
X12031Y12033D01*
X12100Y12019D01*
X12169Y12033D01*
X12228Y12072D01*
X12267Y12131D01*
X12281Y12200D01*
X12267Y12269D01*
X12228Y12328D01*
X12205Y12343D01*
X12219Y12391D01*
X12309D01*
Y12809D01*
X11891D01*
Y12391D01*
X11981D01*
X11995Y12343D01*
X11972Y12328D01*
X11950Y12294D01*
X11900D01*
X11878Y12328D01*
X11819Y12367D01*
X11750Y12381D01*
X11681Y12367D01*
X11622Y12328D01*
X11604Y12300D01*
X11542D01*
X11500Y12342D01*
Y12391D01*
X11609D01*
Y12809D01*
X11191D01*
Y12700D01*
X10909D01*
Y12809D01*
X10491D01*
Y12700D01*
X9542D01*
X9224Y13018D01*
X9231Y13050D01*
X9217Y13119D01*
X9178Y13178D01*
X9119Y13217D01*
X9050Y13231D01*
D02*
G37*
G36*
X9200Y11000D02*
X9000D01*
Y10800D01*
X9200D01*
Y11000D01*
D02*
G37*
G36*
X11117Y11425D02*
X11090Y11420D01*
X11024Y11376D01*
X10980Y11310D01*
X10975Y11283D01*
X11117D01*
Y11425D01*
D02*
G37*
G36*
X10650Y13100D02*
X10450D01*
Y12900D01*
X10650D01*
Y13100D01*
D02*
G37*
G36*
X11983Y11425D02*
X11956Y11420D01*
X11890Y11376D01*
X11846Y11310D01*
X11842Y11287D01*
X11792D01*
X11787Y11310D01*
X11743Y11376D01*
X11677Y11420D01*
X11650Y11425D01*
Y11233D01*
X11550D01*
Y11425D01*
X11523Y11420D01*
X11457Y11376D01*
X11413Y11310D01*
X11408Y11287D01*
X11358D01*
X11354Y11310D01*
X11310Y11376D01*
X11244Y11420D01*
X11217Y11425D01*
Y11233D01*
X11167D01*
Y11183D01*
X10975D01*
X10980Y11156D01*
X11024Y11090D01*
X11090Y11046D01*
X11113Y11042D01*
Y10992D01*
X11090Y10987D01*
X11024Y10943D01*
X10980Y10877D01*
X10975Y10850D01*
X11167D01*
Y10750D01*
X10975D01*
X10980Y10723D01*
X11024Y10657D01*
X11090Y10613D01*
X11113Y10608D01*
Y10558D01*
X11090Y10554D01*
X11024Y10510D01*
X10980Y10444D01*
X10975Y10417D01*
X11167D01*
Y10367D01*
X11217D01*
Y10175D01*
X11244Y10180D01*
X11310Y10224D01*
X11354Y10290D01*
X11358Y10313D01*
X11408D01*
X11413Y10290D01*
X11457Y10224D01*
X11523Y10180D01*
X11550Y10175D01*
Y10367D01*
X11650D01*
Y10175D01*
X11677Y10180D01*
X11743Y10224D01*
X11787Y10290D01*
X11792Y10313D01*
X11842D01*
X11846Y10290D01*
X11890Y10224D01*
X11956Y10180D01*
X11983Y10175D01*
Y10367D01*
X12033D01*
Y10417D01*
X12225D01*
X12220Y10444D01*
X12176Y10510D01*
X12110Y10554D01*
X12087Y10558D01*
Y10608D01*
X12110Y10613D01*
X12176Y10657D01*
X12220Y10723D01*
X12225Y10750D01*
X12033D01*
Y10850D01*
X12225D01*
X12220Y10877D01*
X12176Y10943D01*
X12110Y10987D01*
X12087Y10992D01*
Y11042D01*
X12110Y11046D01*
X12176Y11090D01*
X12220Y11156D01*
X12225Y11183D01*
X12033D01*
Y11233D01*
X11983D01*
Y11425D01*
D02*
G37*
G36*
X12083D02*
Y11283D01*
X12225D01*
X12220Y11310D01*
X12176Y11376D01*
X12110Y11420D01*
X12083Y11425D01*
D02*
G37*
%LPD*%
D10*
X10850Y15350D02*
Y17450D01*
X12409Y19009D02*
Y19400D01*
X10850Y17450D02*
X12409Y19009D01*
X10692Y18542D02*
X10700Y18550D01*
X10692Y15308D02*
Y18542D01*
X9200Y17050D02*
X10250Y18100D01*
X9900Y9350D02*
X9950Y9400D01*
X10250D01*
X11500Y13700D02*
X11700D01*
X9350Y15850D02*
X11500Y13700D01*
X14100Y11500D02*
Y13250D01*
X12950D02*
X14100D01*
X10850Y15350D02*
X12950Y13250D01*
X15450Y13100D02*
X16200D01*
X14600Y12250D02*
X15450Y13100D01*
X14600Y10900D02*
Y12250D01*
X15650Y11250D02*
Y12050D01*
X15750Y17656D02*
X16450Y18356D01*
Y18500D01*
X15750Y17450D02*
Y17656D01*
X18100Y17700D02*
X18400Y18000D01*
X18350D02*
X18400D01*
X16100Y17700D02*
X18100D01*
X8950Y11150D02*
X9000Y11200D01*
X8950Y10750D02*
Y11150D01*
Y10150D02*
Y10750D01*
X9050Y13050D02*
X9500Y12600D01*
X10700D01*
X8350Y10000D02*
Y12400D01*
X7750Y13000D02*
X8350Y12400D01*
X7150Y13000D02*
X7750D01*
X8350Y10000D02*
X8650Y9700D01*
X8538Y10050D02*
Y12962D01*
X8500Y13000D02*
X8538Y12962D01*
Y10050D02*
X8688Y9900D01*
X10250D01*
X10800Y9350D01*
X11750D01*
X9900D02*
Y9600D01*
X9800Y9700D02*
X9900Y9600D01*
X8650Y9700D02*
X9800D01*
X11050Y9000D02*
X11700D01*
X9850Y10750D02*
X10700Y11600D01*
Y12600D01*
X7300Y17050D02*
X9200D01*
X10692Y15308D02*
X13650Y12350D01*
X14350Y11250D02*
Y12350D01*
X10700Y12600D02*
X11400D01*
Y12300D02*
Y12600D01*
Y12300D02*
X11500Y12200D01*
X11750D01*
X12100D02*
Y12600D01*
X9900Y8700D02*
Y9350D01*
X9500Y10150D02*
Y10750D01*
X9850D01*
X11700Y9000D02*
X11750Y9050D01*
Y9350D01*
D11*
X12100Y13150D02*
D03*
Y12600D02*
D03*
X11050Y8450D02*
D03*
Y9000D02*
D03*
X11700Y8450D02*
D03*
Y9000D02*
D03*
X11400Y13150D02*
D03*
Y12600D02*
D03*
X10700Y13150D02*
D03*
Y12600D02*
D03*
D12*
X9350Y8700D02*
D03*
X9900D02*
D03*
X9350Y9350D02*
D03*
X9900D02*
D03*
X8950Y10750D02*
D03*
X9500D02*
D03*
X8950Y10150D02*
D03*
X9500D02*
D03*
D30*
X21654Y21654D02*
D03*
X1969D02*
D03*
D31*
X20400Y3472D02*
D03*
X14583D02*
D03*
X8767D02*
D03*
X2950D02*
D03*
D32*
X20400Y1700D02*
D03*
X14583D02*
D03*
X8767D02*
D03*
X2950D02*
D03*
D33*
X22565D02*
D03*
X18235D02*
D03*
X16749D02*
D03*
X12418D02*
D03*
X10932D02*
D03*
X6601D02*
D03*
X5115D02*
D03*
X785D02*
D03*
D34*
X8610Y19750D02*
D03*
X15012D02*
D03*
X9311Y21101D02*
D03*
X14311D02*
D03*
D35*
X10409Y20100D02*
D03*
X11205Y20101D02*
D03*
X12008Y20100D02*
D03*
X10811Y19400D02*
D03*
X11606D02*
D03*
X12409D02*
D03*
X12811Y20101D02*
D03*
X13213Y19400D02*
D03*
D36*
X17350Y13600D02*
D03*
D37*
Y14600D02*
D03*
D38*
X10700Y18550D02*
D03*
X11700Y13700D02*
D03*
X9350Y15850D02*
D03*
X14100Y13250D02*
D03*
X15650Y11250D02*
D03*
Y12050D02*
D03*
X16450Y18500D02*
D03*
X15750Y17450D02*
D03*
X18350Y18000D02*
D03*
X16100Y17700D02*
D03*
X7150Y13000D02*
D03*
X9050Y13050D02*
D03*
X8500Y13000D02*
D03*
X10250Y9400D02*
D03*
Y18100D02*
D03*
X7300Y17050D02*
D03*
X13650Y12350D02*
D03*
X14350D02*
D03*
X16200Y13100D02*
D03*
X14600Y10900D02*
D03*
X14350Y11250D02*
D03*
X14100Y11500D02*
D03*
X11750Y12200D02*
D03*
X12100D02*
D03*
X9850Y10750D02*
D03*
X11750Y9350D02*
D03*
D39*
X11167Y10367D02*
D03*
Y10800D02*
D03*
Y11233D02*
D03*
X11600Y10367D02*
D03*
Y10800D02*
D03*
Y11233D02*
D03*
X12033Y10367D02*
D03*
Y10800D02*
D03*
Y11233D02*
D03*
M02*
