%FSLAX24Y24*%
%MOIN*%
G70*
G01*
G75*
G04 Layer_Color=255*
%ADD10C,0.0079*%
%ADD11R,0.0300X0.0300*%
%ADD12R,0.0300X0.0300*%
%ADD13R,0.0492X0.0768*%
%ADD14R,0.0276X0.0079*%
%ADD15R,0.1437X0.1437*%
%ADD16R,0.0079X0.0276*%
%ADD17R,0.0236X0.0394*%
%ADD18R,0.1378X0.0846*%
%ADD19R,0.0433X0.0846*%
%ADD20R,0.0433X0.0846*%
%ADD21R,0.0433X0.0236*%
%ADD22R,0.0500X0.0400*%
%ADD23O,0.0512X0.0138*%
%ADD24R,0.0400X0.0500*%
%ADD25R,0.0787X0.0472*%
%ADD26C,0.0118*%
%ADD27R,0.1400X0.0900*%
%ADD28R,0.1140X0.0550*%
%ADD29R,0.1400X0.1550*%
%ADD30C,0.1969*%
%ADD31C,0.1181*%
%ADD32C,0.1575*%
%ADD33O,0.0709X0.0787*%
%ADD34C,0.0600*%
%ADD35O,0.0472X0.0551*%
%ADD36R,0.0709X0.0709*%
%ADD37C,0.0709*%
%ADD38C,0.0236*%
%ADD39C,0.0197*%
D11*
X12100Y13150D02*
D03*
Y12600D02*
D03*
X11050Y8450D02*
D03*
Y9000D02*
D03*
X11700Y8450D02*
D03*
Y9000D02*
D03*
X11400Y13150D02*
D03*
Y12600D02*
D03*
X10700Y13150D02*
D03*
Y12600D02*
D03*
D12*
X9350Y8700D02*
D03*
X9900D02*
D03*
X9350Y9350D02*
D03*
X9900D02*
D03*
X8950Y10750D02*
D03*
X9500D02*
D03*
X8950Y10150D02*
D03*
X9500D02*
D03*
D30*
X21654Y21654D02*
D03*
X1969D02*
D03*
D31*
X20400Y3472D02*
D03*
X14583D02*
D03*
X8767D02*
D03*
X2950D02*
D03*
D32*
X20400Y1700D02*
D03*
X14583D02*
D03*
X8767D02*
D03*
X2950D02*
D03*
D33*
X22565D02*
D03*
X18235D02*
D03*
X16749D02*
D03*
X12418D02*
D03*
X10932D02*
D03*
X6601D02*
D03*
X5115D02*
D03*
X785D02*
D03*
D34*
X8610Y19750D02*
D03*
X15012D02*
D03*
X9311Y21101D02*
D03*
X14311D02*
D03*
D35*
X10409Y20100D02*
D03*
X11205Y20101D02*
D03*
X12008Y20100D02*
D03*
X10811Y19400D02*
D03*
X11606D02*
D03*
X12409D02*
D03*
X12811Y20101D02*
D03*
X13213Y19400D02*
D03*
D36*
X17350Y13600D02*
D03*
D37*
Y14600D02*
D03*
M02*
