%FSLAX24Y24*%
%MOIN*%
G70*
G01*
G75*
%ADD10C,0.0079*%
%ADD11R,0.0300X0.0300*%
%ADD12R,0.0300X0.0300*%
%ADD13R,0.0492X0.0768*%
%ADD14R,0.0276X0.0079*%
%ADD15R,0.1437X0.1437*%
%ADD16R,0.0079X0.0276*%
%ADD17R,0.0236X0.0394*%
%ADD18R,0.1378X0.0846*%
%ADD19R,0.0433X0.0846*%
%ADD20R,0.0433X0.0846*%
%ADD21R,0.0433X0.0236*%
%ADD22R,0.0500X0.0400*%
%ADD23O,0.0512X0.0138*%
%ADD24R,0.0400X0.0500*%
%ADD25R,0.0787X0.0472*%
%ADD26C,0.0118*%
%ADD27R,0.1400X0.0900*%
%ADD28R,0.1140X0.0550*%
%ADD29R,0.1400X0.1550*%
%ADD30C,0.1969*%
%ADD31C,0.1181*%
%ADD32C,0.1575*%
%ADD33O,0.0709X0.0787*%
%ADD34C,0.0600*%
%ADD35O,0.0472X0.0551*%
%ADD36R,0.0709X0.0709*%
%ADD37C,0.0709*%
%ADD38C,0.0236*%
%ADD39C,0.0197*%
%ADD40C,0.0039*%
%ADD41C,0.0098*%
%ADD42C,0.0100*%
%ADD43C,0.0090*%
%ADD44C,0.0050*%
D10*
X10419Y11686D02*
Y11981D01*
X10714D01*
X10419Y9619D02*
Y9914D01*
Y9619D02*
X10714D01*
X12486D02*
X12781D01*
Y9914D01*
Y11686D02*
Y11981D01*
X12486D02*
X12781D01*
X4759Y15302D02*
X5941D01*
X4759Y15498D02*
X5941D01*
X4759Y15302D02*
Y15498D01*
X5941Y15302D02*
Y15498D01*
X7169Y17660D02*
Y18940D01*
X4531Y17660D02*
Y18940D01*
Y17660D02*
X7169D01*
X4531Y18940D02*
X7169D01*
X17852Y10790D02*
Y12010D01*
X18048Y10790D02*
Y12010D01*
X17852D02*
X18048D01*
X17852Y10790D02*
X18048D01*
X17852Y8990D02*
Y10210D01*
X18048Y8990D02*
Y10210D01*
X17852D02*
X18048D01*
X17852Y8990D02*
X18048D01*
X17421Y18433D02*
X17579D01*
X17421Y17567D02*
X17579D01*
D40*
X3834Y16477D02*
D03*
D41*
X12771Y12237D02*
X12697Y12280D01*
Y12194D01*
X12771Y12237D01*
X6108Y15853D02*
X6034Y15895D01*
Y15810D01*
X6108Y15853D01*
X4994Y16440D02*
X4920Y16482D01*
Y16397D01*
X4994Y16440D01*
X18472Y10691D02*
X18398Y10734D01*
Y10649D01*
X18472Y10691D01*
Y8891D02*
X18398Y8934D01*
Y8849D01*
X18472Y8891D01*
X17884Y17459D02*
X17810Y17501D01*
Y17416D01*
X17884Y17459D01*
D42*
X5100Y3400D02*
Y4200D01*
X18200D02*
X22550D01*
X18200Y200D02*
X22550D01*
X12383Y4200D02*
X16733D01*
X12383Y200D02*
X16733D01*
X6567Y4200D02*
X10917D01*
X6567Y200D02*
X10917D01*
X750Y4200D02*
X5100D01*
X750Y200D02*
X5100D01*
X16332Y19314D02*
X16568D01*
X16332D02*
X16450Y19235D01*
X16568Y19314D01*
X17757D02*
X17993D01*
X17757D02*
X17875Y19235D01*
X17993Y19314D01*
X6567Y200D02*
Y1000D01*
X10917Y200D02*
Y1000D01*
X12333Y200D02*
Y1000D01*
X16733Y200D02*
Y1000D01*
X18100Y200D02*
Y1000D01*
X22550Y200D02*
Y1000D01*
Y3400D02*
Y4200D01*
X18200Y3400D02*
Y4200D01*
X16733Y3400D02*
Y4200D01*
X12383Y3400D02*
Y4200D01*
X10917Y3400D02*
Y4200D01*
X6567Y3400D02*
Y4200D01*
X750Y3400D02*
Y4200D01*
X5100Y200D02*
Y1000D01*
X750Y200D02*
Y1000D01*
X16850Y13100D02*
X17850D01*
Y15120D01*
X16850Y13100D02*
Y15120D01*
X17850D01*
X19182Y19314D02*
X19418D01*
X19182D02*
X19300Y19235D01*
X19418Y19314D01*
D43*
X16700Y18750D02*
Y18900D01*
X16200Y18750D02*
X16700D01*
X16200D02*
Y18900D01*
X16700Y19650D02*
Y19800D01*
X16200D02*
X16700D01*
X16200Y19650D02*
Y19800D01*
X18125Y18750D02*
Y18900D01*
X17625Y18750D02*
X18125D01*
X17625D02*
Y18900D01*
X18125Y19650D02*
Y19800D01*
X17625D02*
X18125D01*
X17625Y19650D02*
Y19800D01*
X19550Y18750D02*
Y18900D01*
X19050Y18750D02*
X19550D01*
X19050D02*
Y18900D01*
X19550Y19650D02*
Y19800D01*
X19050D02*
X19550D01*
X19050Y19650D02*
Y19800D01*
X18125Y21150D02*
Y21300D01*
X17625Y21150D02*
Y21300D01*
Y21300D02*
X18125D01*
Y20250D02*
Y20400D01*
X17625Y20250D02*
Y20400D01*
Y20250D02*
X18125D01*
X16700Y21150D02*
Y21300D01*
X16200Y21150D02*
Y21300D01*
Y21300D02*
X16700D01*
Y20250D02*
Y20400D01*
X16200Y20250D02*
Y20400D01*
Y20250D02*
X16700D01*
X4450Y6000D02*
X4600D01*
X4450Y6500D02*
X4600D01*
X4600Y6000D02*
Y6500D01*
X3550Y6000D02*
X3700D01*
X3550Y6500D02*
X3700D01*
X3550Y6000D02*
Y6500D01*
X10300Y6000D02*
X10450D01*
X10300Y6500D02*
X10450D01*
X10450Y6000D02*
Y6500D01*
X9400Y6000D02*
X9550D01*
X9400Y6500D02*
X9550D01*
X9400Y6000D02*
Y6500D01*
X13000D02*
X13150D01*
X13000Y6000D02*
X13150D01*
X13000D02*
Y6500D01*
X13900D02*
X14050D01*
X13900Y6000D02*
X14050D01*
Y6500D01*
X10900Y9200D02*
X11050D01*
X10900Y8700D02*
X11050D01*
X10900D02*
Y9200D01*
X11800D02*
X11950D01*
X11800Y8700D02*
X11950D01*
Y9200D01*
X4550Y16000D02*
Y16150D01*
X4050Y16000D02*
Y16150D01*
Y16150D02*
X4550D01*
Y15100D02*
Y15250D01*
X4050Y15100D02*
Y15250D01*
Y15100D02*
X4550D01*
X6000Y14400D02*
Y14550D01*
X5500Y14400D02*
Y14550D01*
Y14550D02*
X6000D01*
Y13500D02*
Y13650D01*
X5500Y13500D02*
Y13650D01*
Y13500D02*
X6000D01*
X18750Y6500D02*
X18900D01*
X18750Y6000D02*
X18900D01*
X18750D02*
Y6500D01*
X19650D02*
X19800D01*
X19650Y6000D02*
X19800D01*
Y6500D01*
X5250Y14400D02*
Y14550D01*
X4750Y14400D02*
Y14550D01*
Y14550D02*
X5250D01*
Y13500D02*
Y13650D01*
X4750Y13500D02*
Y13650D01*
Y13500D02*
X5250D01*
X19700Y11500D02*
Y11650D01*
X19200Y11500D02*
Y11650D01*
Y11650D02*
X19700D01*
Y10600D02*
Y10750D01*
X19200Y10600D02*
Y10750D01*
Y10600D02*
X19700D01*
X16350Y11350D02*
Y11500D01*
X15850Y11350D02*
Y11500D01*
Y11500D02*
X16350D01*
Y10450D02*
Y10600D01*
X15850Y10450D02*
Y10600D01*
Y10450D02*
X16350D01*
X19200Y9200D02*
Y9350D01*
X19700Y9200D02*
Y9350D01*
X19200Y9200D02*
X19700D01*
X19200Y10100D02*
Y10250D01*
X19700Y10100D02*
Y10250D01*
X19200D02*
X19700D01*
X5800Y9500D02*
X5950D01*
X5800Y9000D02*
X5950D01*
X5800D02*
Y9500D01*
X6700D02*
X6850D01*
X6700Y9000D02*
X6850D01*
Y9500D01*
X7600Y11250D02*
X7750D01*
X7600Y11750D02*
X7750D01*
X7750Y11250D02*
Y11750D01*
X6700Y11250D02*
X6850D01*
X6700Y11750D02*
X6850D01*
X6700Y11250D02*
Y11750D01*
X16350Y9550D02*
Y9700D01*
X15850Y9550D02*
Y9700D01*
Y9700D02*
X16350D01*
Y8650D02*
Y8800D01*
X15850Y8650D02*
Y8800D01*
Y8650D02*
X16350D01*
X7800Y14600D02*
Y14900D01*
X8500D01*
Y14600D02*
Y14900D01*
X7800Y13500D02*
Y13800D01*
Y13500D02*
X8500Y13500D01*
Y13800D01*
X6825Y14600D02*
Y14900D01*
X7525D01*
Y14600D02*
Y14900D01*
X6825Y13500D02*
Y13800D01*
Y13500D02*
X7525Y13500D01*
Y13800D01*
X8700Y14600D02*
Y14900D01*
X9400D01*
Y14600D02*
Y14900D01*
X8700Y13500D02*
Y13800D01*
Y13500D02*
X9400Y13500D01*
Y13800D01*
X3150Y5550D02*
Y5700D01*
X2650Y5550D02*
Y5700D01*
Y5700D02*
X3150D01*
Y4650D02*
Y4800D01*
X2650Y4650D02*
Y4800D01*
Y4650D02*
X3150D01*
X16300Y13350D02*
X16450D01*
X16300Y13850D02*
X16450D01*
X16450Y13350D02*
Y13850D01*
X15400Y13350D02*
X15550D01*
X15400Y13850D02*
X15550D01*
X15400Y13350D02*
Y13850D01*
X1800Y5850D02*
X2100D01*
X1800D02*
Y6550D01*
X2100D01*
X2900Y5850D02*
X3200D01*
X3200Y6550D02*
X3200Y5850D01*
X2900Y6550D02*
X3200D01*
X9050Y5550D02*
Y5700D01*
X8550Y5550D02*
Y5700D01*
Y5700D02*
X9050D01*
Y4650D02*
Y4800D01*
X8550Y4650D02*
Y4800D01*
Y4650D02*
X9050D01*
X7700Y5850D02*
X8000D01*
X7700D02*
Y6550D01*
X8000D01*
X8800Y5850D02*
X9100D01*
X9100Y6550D02*
X9100Y5850D01*
X8800Y6550D02*
X9100D01*
X15050Y12650D02*
X15200D01*
X15050Y13150D02*
X15200D01*
X15200Y12650D02*
Y13150D01*
X14150Y12650D02*
X14300D01*
X14150Y13150D02*
X14300D01*
X14150Y12650D02*
Y13150D01*
X15050Y13350D02*
X15200D01*
X15050Y13850D02*
X15200D01*
X15200Y13350D02*
Y13850D01*
X14150Y13350D02*
X14300D01*
X14150Y13850D02*
X14300D01*
X14150Y13350D02*
Y13850D01*
X14800Y5550D02*
Y5700D01*
X14300Y5550D02*
Y5700D01*
Y5700D02*
X14800D01*
Y4650D02*
Y4800D01*
X14300Y4650D02*
Y4800D01*
Y4650D02*
X14800D01*
X15400Y6550D02*
X15700D01*
Y5850D02*
Y6550D01*
X15400Y5850D02*
X15700D01*
X14300Y6550D02*
X14600D01*
X14300D02*
X14300Y5850D01*
X14600D01*
X20550Y5550D02*
Y5700D01*
X20050Y5550D02*
Y5700D01*
Y5700D02*
X20550D01*
Y4650D02*
Y4800D01*
X20050Y4650D02*
Y4800D01*
Y4650D02*
X20550D01*
X21100Y6550D02*
X21400D01*
Y5850D02*
Y6550D01*
X21100Y5850D02*
X21400D01*
X20000Y6550D02*
X20300D01*
X20000D02*
X20000Y5850D01*
X20300D01*
X19550Y21150D02*
Y21300D01*
X19050Y21150D02*
Y21300D01*
Y21300D02*
X19550D01*
Y20250D02*
Y20400D01*
X19050Y20250D02*
Y20400D01*
Y20250D02*
X19550D01*
X19950Y10600D02*
Y10750D01*
X20450Y10600D02*
Y10750D01*
X19950Y10600D02*
X20450D01*
X19950Y11500D02*
Y11650D01*
X20450Y11500D02*
Y11650D01*
X19950D02*
X20450D01*
X8700Y10950D02*
Y11100D01*
X8200Y10950D02*
Y11100D01*
Y11100D02*
X8700D01*
Y10050D02*
Y10200D01*
X8200Y10050D02*
Y10200D01*
Y10050D02*
X8700D01*
X16550Y11000D02*
Y11150D01*
X17050Y11000D02*
Y11150D01*
X16550Y11000D02*
X17050D01*
X16550Y11900D02*
Y12050D01*
X17050Y11900D02*
Y12050D01*
X16550D02*
X17050D01*
X20450Y10100D02*
Y10250D01*
X19950Y10100D02*
Y10250D01*
Y10250D02*
X20450D01*
Y9200D02*
Y9350D01*
X19950Y9200D02*
Y9350D01*
Y9200D02*
X20450D01*
X16550Y9200D02*
Y9350D01*
X17050Y9200D02*
Y9350D01*
X16550Y9200D02*
X17050D01*
X16550Y10100D02*
Y10250D01*
X17050Y10100D02*
Y10250D01*
X16550D02*
X17050D01*
D44*
X4900Y10600D02*
Y10550D01*
X5000Y10450D01*
X5100Y10550D01*
Y10600D01*
X5000Y10450D02*
Y10300D01*
X5200D02*
X5300D01*
X5250D01*
Y10600D01*
X5200Y10550D01*
X16950Y8150D02*
X16650D01*
Y8300D01*
X16700Y8350D01*
X16800D01*
X16850Y8300D01*
Y8150D01*
Y8250D02*
X16950Y8350D01*
Y8450D02*
Y8550D01*
Y8500D01*
X16650D01*
X16700Y8450D01*
X16900Y8700D02*
X16950Y8750D01*
Y8850D01*
X16900Y8900D01*
X16700D01*
X16650Y8850D01*
Y8750D01*
X16700Y8700D01*
X16750D01*
X16800Y8750D01*
Y8900D01*
X20350Y8200D02*
X20050D01*
Y8350D01*
X20100Y8400D01*
X20200D01*
X20250Y8350D01*
Y8200D01*
Y8300D02*
X20350Y8400D01*
Y8500D02*
Y8600D01*
Y8550D01*
X20050D01*
X20100Y8500D01*
Y8750D02*
X20050Y8800D01*
Y8900D01*
X20100Y8950D01*
X20150D01*
X20200Y8900D01*
X20250Y8950D01*
X20300D01*
X20350Y8900D01*
Y8800D01*
X20300Y8750D01*
X20250D01*
X20200Y8800D01*
X20150Y8750D01*
X20100D01*
X20200Y8800D02*
Y8900D01*
X16900Y12250D02*
X16600D01*
Y12400D01*
X16650Y12450D01*
X16750D01*
X16800Y12400D01*
Y12250D01*
Y12350D02*
X16900Y12450D01*
Y12550D02*
Y12650D01*
Y12600D01*
X16600D01*
X16650Y12550D01*
X16600Y12800D02*
Y13000D01*
X16650D01*
X16850Y12800D01*
X16900D01*
X8205Y11395D02*
Y11695D01*
X8355D01*
X8405Y11645D01*
Y11545D01*
X8355Y11495D01*
X8205D01*
X8305D02*
X8405Y11395D01*
X8505D02*
X8605D01*
X8555D01*
Y11695D01*
X8505Y11645D01*
X8955Y11695D02*
X8855Y11645D01*
X8755Y11545D01*
Y11445D01*
X8805Y11395D01*
X8905D01*
X8955Y11445D01*
Y11495D01*
X8905Y11545D01*
X8755D01*
X20350Y11950D02*
X20050D01*
Y12100D01*
X20100Y12150D01*
X20200D01*
X20250Y12100D01*
Y11950D01*
Y12050D02*
X20350Y12150D01*
Y12250D02*
Y12350D01*
Y12300D01*
X20050D01*
X20100Y12250D01*
X20050Y12700D02*
Y12500D01*
X20200D01*
X20150Y12600D01*
Y12650D01*
X20200Y12700D01*
X20300D01*
X20350Y12650D01*
Y12550D01*
X20300Y12500D01*
X19450Y21550D02*
X19150D01*
Y21700D01*
X19200Y21750D01*
X19300D01*
X19350Y21700D01*
Y21550D01*
Y21650D02*
X19450Y21750D01*
Y21850D02*
Y21950D01*
Y21900D01*
X19150D01*
X19200Y21850D01*
X19450Y22250D02*
X19150D01*
X19300Y22100D01*
Y22300D01*
X20050Y7065D02*
Y7365D01*
X20200D01*
X20250Y7315D01*
Y7215D01*
X20200Y7165D01*
X20050D01*
X20150D02*
X20250Y7065D01*
X20350D02*
X20450D01*
X20400D01*
Y7365D01*
X20350Y7315D01*
X20600Y7065D02*
X20700D01*
X20650D01*
Y7365D01*
X20600Y7315D01*
X20750Y5000D02*
Y5300D01*
X20900D01*
X20950Y5250D01*
Y5150D01*
X20900Y5100D01*
X20750D01*
X20850D02*
X20950Y5000D01*
X21050D02*
X21150D01*
X21100D01*
Y5300D01*
X21050Y5250D01*
X21300D02*
X21350Y5300D01*
X21450D01*
X21500Y5250D01*
Y5050D01*
X21450Y5000D01*
X21350D01*
X21300Y5050D01*
Y5250D01*
X14305Y6845D02*
Y7145D01*
X14455D01*
X14505Y7095D01*
Y6995D01*
X14455Y6945D01*
X14305D01*
X14405D02*
X14505Y6845D01*
X14605Y6895D02*
X14655Y6845D01*
X14755D01*
X14805Y6895D01*
Y7095D01*
X14755Y7145D01*
X14655D01*
X14605Y7095D01*
Y7045D01*
X14655Y6995D01*
X14805D01*
X15017Y5000D02*
Y5300D01*
X15167D01*
X15217Y5250D01*
Y5150D01*
X15167Y5100D01*
X15017D01*
X15117D02*
X15217Y5000D01*
X15317Y5250D02*
X15367Y5300D01*
X15467D01*
X15517Y5250D01*
Y5200D01*
X15467Y5150D01*
X15517Y5100D01*
Y5050D01*
X15467Y5000D01*
X15367D01*
X15317Y5050D01*
Y5100D01*
X15367Y5150D01*
X15317Y5200D01*
Y5250D01*
X15367Y5150D02*
X15467D01*
X13400Y13500D02*
Y13800D01*
X13550D01*
X13600Y13750D01*
Y13650D01*
X13550Y13600D01*
X13400D01*
X13500D02*
X13600Y13500D01*
X13700Y13800D02*
X13900D01*
Y13750D01*
X13700Y13550D01*
Y13500D01*
X13400Y12750D02*
Y13050D01*
X13550D01*
X13600Y13000D01*
Y12900D01*
X13550Y12850D01*
X13400D01*
X13500D02*
X13600Y12750D01*
X13900Y13050D02*
X13800Y13000D01*
X13700Y12900D01*
Y12800D01*
X13750Y12750D01*
X13850D01*
X13900Y12800D01*
Y12850D01*
X13850Y12900D01*
X13700D01*
X7705Y6845D02*
Y7145D01*
X7855D01*
X7905Y7095D01*
Y6995D01*
X7855Y6945D01*
X7705D01*
X7805D02*
X7905Y6845D01*
X8205Y7145D02*
X8005D01*
Y6995D01*
X8105Y7045D01*
X8155D01*
X8205Y6995D01*
Y6895D01*
X8155Y6845D01*
X8055D01*
X8005Y6895D01*
X9283Y5000D02*
Y5300D01*
X9433D01*
X9483Y5250D01*
Y5150D01*
X9433Y5100D01*
X9283D01*
X9383D02*
X9483Y5000D01*
X9733D02*
Y5300D01*
X9583Y5150D01*
X9783D01*
X1805Y6845D02*
Y7145D01*
X1955D01*
X2005Y7095D01*
Y6995D01*
X1955Y6945D01*
X1805D01*
X1905D02*
X2005Y6845D01*
X2105Y7095D02*
X2155Y7145D01*
X2255D01*
X2305Y7095D01*
Y7045D01*
X2255Y6995D01*
X2205D01*
X2255D01*
X2305Y6945D01*
Y6895D01*
X2255Y6845D01*
X2155D01*
X2105Y6895D01*
X15700Y14050D02*
Y14350D01*
X15850D01*
X15900Y14300D01*
Y14200D01*
X15850Y14150D01*
X15700D01*
X15800D02*
X15900Y14050D01*
X16200D02*
X16000D01*
X16200Y14250D01*
Y14300D01*
X16150Y14350D01*
X16050D01*
X16000Y14300D01*
X3400Y5000D02*
Y5300D01*
X3550D01*
X3600Y5250D01*
Y5150D01*
X3550Y5100D01*
X3400D01*
X3500D02*
X3600Y5000D01*
X3700D02*
X3800D01*
X3750D01*
Y5300D01*
X3700Y5250D01*
X18700Y17600D02*
Y17800D01*
X18650Y17850D01*
X18550D01*
X18500Y17800D01*
Y17600D01*
X18550Y17550D01*
X18650D01*
X18600Y17650D02*
X18700Y17550D01*
X18650D02*
X18700Y17600D01*
X18800Y17550D02*
X18900D01*
X18850D01*
Y17850D01*
X18800Y17800D01*
X9250Y15650D02*
X8950D01*
Y15450D01*
X9200Y15350D02*
X9250Y15300D01*
Y15200D01*
X9200Y15150D01*
X9150D01*
X9100Y15200D01*
Y15250D01*
Y15200D01*
X9050Y15150D01*
X9000D01*
X8950Y15200D01*
Y15300D01*
X9000Y15350D01*
X7350Y15650D02*
X7050D01*
Y15450D01*
Y15150D02*
Y15350D01*
X7250Y15150D01*
X7300D01*
X7350Y15200D01*
Y15300D01*
X7300Y15350D01*
X8300Y15650D02*
X8000D01*
Y15450D01*
Y15350D02*
Y15250D01*
Y15300D01*
X8300D01*
X8250Y15350D01*
X17550Y8650D02*
X17650D01*
X17600D01*
Y8350D01*
X17550D01*
X17650D01*
X18000Y8600D02*
X17950Y8650D01*
X17850D01*
X17800Y8600D01*
Y8400D01*
X17850Y8350D01*
X17950D01*
X18000Y8400D01*
X18300Y8650D02*
X18100D01*
Y8500D01*
X18200Y8550D01*
X18250D01*
X18300Y8500D01*
Y8400D01*
X18250Y8350D01*
X18150D01*
X18100Y8400D01*
X17700Y12600D02*
X17800D01*
X17750D01*
Y12300D01*
X17700D01*
X17800D01*
X18150Y12550D02*
X18100Y12600D01*
X18000D01*
X17950Y12550D01*
Y12350D01*
X18000Y12300D01*
X18100D01*
X18150Y12350D01*
X18400Y12300D02*
Y12600D01*
X18250Y12450D01*
X18450D01*
X4545Y20535D02*
X4645D01*
X4595D01*
Y20235D01*
X4545D01*
X4645D01*
X4995Y20485D02*
X4945Y20535D01*
X4845D01*
X4795Y20485D01*
Y20285D01*
X4845Y20235D01*
X4945D01*
X4995Y20285D01*
X5095Y20485D02*
X5145Y20535D01*
X5245D01*
X5295Y20485D01*
Y20435D01*
X5245Y20385D01*
X5195D01*
X5245D01*
X5295Y20335D01*
Y20285D01*
X5245Y20235D01*
X5145D01*
X5095Y20285D01*
X6150Y16350D02*
X6250D01*
X6200D01*
Y16050D01*
X6150D01*
X6250D01*
X6600Y16300D02*
X6550Y16350D01*
X6450D01*
X6400Y16300D01*
Y16100D01*
X6450Y16050D01*
X6550D01*
X6600Y16100D01*
X6900Y16050D02*
X6700D01*
X6900Y16250D01*
Y16300D01*
X6850Y16350D01*
X6750D01*
X6700Y16300D01*
X10425Y12885D02*
X10525D01*
X10475D01*
Y12585D01*
X10425D01*
X10525D01*
X10875Y12835D02*
X10825Y12885D01*
X10725D01*
X10675Y12835D01*
Y12635D01*
X10725Y12585D01*
X10825D01*
X10875Y12635D01*
X10975Y12585D02*
X11075D01*
X11025D01*
Y12885D01*
X10975Y12835D01*
X15400Y9000D02*
X15350Y8950D01*
Y8850D01*
X15400Y8800D01*
X15600D01*
X15650Y8850D01*
Y8950D01*
X15600Y9000D01*
X15650Y9300D02*
Y9100D01*
X15450Y9300D01*
X15400D01*
X15350Y9250D01*
Y9150D01*
X15400Y9100D01*
X15650Y9550D02*
X15350D01*
X15500Y9400D01*
Y9600D01*
X5850Y11650D02*
X5800Y11700D01*
X5700D01*
X5650Y11650D01*
Y11450D01*
X5700Y11400D01*
X5800D01*
X5850Y11450D01*
X6150Y11400D02*
X5950D01*
X6150Y11600D01*
Y11650D01*
X6100Y11700D01*
X6000D01*
X5950Y11650D01*
X6250D02*
X6300Y11700D01*
X6400D01*
X6450Y11650D01*
Y11600D01*
X6400Y11550D01*
X6350D01*
X6400D01*
X6450Y11500D01*
Y11450D01*
X6400Y11400D01*
X6300D01*
X6250Y11450D01*
X7300Y9400D02*
X7250Y9450D01*
X7150D01*
X7100Y9400D01*
Y9200D01*
X7150Y9150D01*
X7250D01*
X7300Y9200D01*
X7600Y9150D02*
X7400D01*
X7600Y9350D01*
Y9400D01*
X7550Y9450D01*
X7450D01*
X7400Y9400D01*
X7900Y9150D02*
X7700D01*
X7900Y9350D01*
Y9400D01*
X7850Y9450D01*
X7750D01*
X7700Y9400D01*
X19350Y8400D02*
X19300Y8350D01*
Y8250D01*
X19350Y8200D01*
X19550D01*
X19600Y8250D01*
Y8350D01*
X19550Y8400D01*
X19600Y8700D02*
Y8500D01*
X19400Y8700D01*
X19350D01*
X19300Y8650D01*
Y8550D01*
X19350Y8500D01*
X19600Y8800D02*
Y8900D01*
Y8850D01*
X19300D01*
X19350Y8800D01*
X15400Y10850D02*
X15350Y10800D01*
Y10700D01*
X15400Y10650D01*
X15600D01*
X15650Y10700D01*
Y10800D01*
X15600Y10850D01*
X15650Y11150D02*
Y10950D01*
X15450Y11150D01*
X15400D01*
X15350Y11100D01*
Y11000D01*
X15400Y10950D01*
Y11250D02*
X15350Y11300D01*
Y11400D01*
X15400Y11450D01*
X15600D01*
X15650Y11400D01*
Y11300D01*
X15600Y11250D01*
X15400D01*
X19350Y12150D02*
X19300Y12100D01*
Y12000D01*
X19350Y11950D01*
X19550D01*
X19600Y12000D01*
Y12100D01*
X19550Y12150D01*
X19600Y12250D02*
Y12350D01*
Y12300D01*
X19300D01*
X19350Y12250D01*
Y12500D02*
X19300Y12550D01*
Y12650D01*
X19350Y12700D01*
X19400D01*
X19450Y12650D01*
Y12600D01*
Y12650D01*
X19500Y12700D01*
X19550D01*
X19600Y12650D01*
Y12550D01*
X19550Y12500D01*
X4300Y13900D02*
X4250Y13850D01*
Y13750D01*
X4300Y13700D01*
X4500D01*
X4550Y13750D01*
Y13850D01*
X4500Y13900D01*
X4550Y14000D02*
Y14100D01*
Y14050D01*
X4250D01*
X4300Y14000D01*
X4550Y14450D02*
Y14250D01*
X4350Y14450D01*
X4300D01*
X4250Y14400D01*
Y14300D01*
X4300Y14250D01*
X18000Y6350D02*
X17950Y6400D01*
X17850D01*
X17800Y6350D01*
Y6150D01*
X17850Y6100D01*
X17950D01*
X18000Y6150D01*
X18100Y6100D02*
X18200D01*
X18150D01*
Y6400D01*
X18100Y6350D01*
X18350D02*
X18400Y6400D01*
X18500D01*
X18550Y6350D01*
Y6150D01*
X18500Y6100D01*
X18400D01*
X18350Y6150D01*
Y6350D01*
X6200Y14000D02*
X6150Y13950D01*
Y13850D01*
X6200Y13800D01*
X6400D01*
X6450Y13850D01*
Y13950D01*
X6400Y14000D01*
Y14100D02*
X6450Y14150D01*
Y14250D01*
X6400Y14300D01*
X6200D01*
X6150Y14250D01*
Y14150D01*
X6200Y14100D01*
X6250D01*
X6300Y14150D01*
Y14300D01*
X4150Y16550D02*
X4100Y16500D01*
Y16400D01*
X4150Y16350D01*
X4350D01*
X4400Y16400D01*
Y16500D01*
X4350Y16550D01*
X4150Y16650D02*
X4100Y16700D01*
Y16800D01*
X4150Y16850D01*
X4200D01*
X4250Y16800D01*
X4300Y16850D01*
X4350D01*
X4400Y16800D01*
Y16700D01*
X4350Y16650D01*
X4300D01*
X4250Y16700D01*
X4200Y16650D01*
X4150D01*
X4250Y16700D02*
Y16800D01*
X3350Y17000D02*
X3300Y16950D01*
Y16850D01*
X3350Y16800D01*
X3550D01*
X3600Y16850D01*
Y16950D01*
X3550Y17000D01*
X3300Y17100D02*
Y17300D01*
X3350D01*
X3550Y17100D01*
X3600D01*
X11350Y8450D02*
X11300Y8500D01*
X11200D01*
X11150Y8450D01*
Y8250D01*
X11200Y8200D01*
X11300D01*
X11350Y8250D01*
X11650Y8500D02*
X11550Y8450D01*
X11450Y8350D01*
Y8250D01*
X11500Y8200D01*
X11600D01*
X11650Y8250D01*
Y8300D01*
X11600Y8350D01*
X11450D01*
X12400Y6350D02*
X12350Y6400D01*
X12250D01*
X12200Y6350D01*
Y6150D01*
X12250Y6100D01*
X12350D01*
X12400Y6150D01*
X12650Y6100D02*
Y6400D01*
X12500Y6250D01*
X12700D01*
X10850Y6350D02*
X10800Y6400D01*
X10700D01*
X10650Y6350D01*
Y6150D01*
X10700Y6100D01*
X10800D01*
X10850Y6150D01*
X11150Y6100D02*
X10950D01*
X11150Y6300D01*
Y6350D01*
X11100Y6400D01*
X11000D01*
X10950Y6350D01*
X5000D02*
X4950Y6400D01*
X4850D01*
X4800Y6350D01*
Y6150D01*
X4850Y6100D01*
X4950D01*
X5000Y6150D01*
X5100Y6100D02*
X5200D01*
X5150D01*
Y6400D01*
X5100Y6350D01*
X6255Y4505D02*
Y4705D01*
X6355Y4805D01*
X6455Y4705D01*
Y4505D01*
Y4655D01*
X6255D01*
X6555Y4805D02*
X6655D01*
X6605D01*
Y4505D01*
X6555D01*
X6655D01*
X6805D02*
Y4805D01*
X7005Y4505D01*
Y4805D01*
X7305Y4505D02*
X7105D01*
X7305Y4705D01*
Y4755D01*
X7255Y4805D01*
X7155D01*
X7105Y4755D01*
X445Y4505D02*
Y4705D01*
X545Y4805D01*
X645Y4705D01*
Y4505D01*
Y4655D01*
X445D01*
X745Y4805D02*
X845D01*
X795D01*
Y4505D01*
X745D01*
X845D01*
X995D02*
Y4805D01*
X1195Y4505D01*
Y4805D01*
X1295Y4505D02*
X1395D01*
X1345D01*
Y4805D01*
X1295Y4755D01*
X18725Y18800D02*
X18525D01*
X18425Y18900D01*
X18525Y19000D01*
X18725D01*
X18575D01*
Y18800D01*
X18475Y19300D02*
X18425Y19250D01*
Y19150D01*
X18475Y19100D01*
X18675D01*
X18725Y19150D01*
Y19250D01*
X18675Y19300D01*
X18575D01*
Y19200D01*
X18725Y19400D02*
X18425D01*
Y19550D01*
X18475Y19600D01*
X18575D01*
X18625Y19550D01*
Y19400D01*
X18425Y19850D02*
Y19750D01*
X18475Y19700D01*
X18675D01*
X18725Y19750D01*
Y19850D01*
X18675Y19900D01*
X18475D01*
X18425Y19850D01*
X18475Y20000D02*
X18425Y20050D01*
Y20150D01*
X18475Y20200D01*
X18675D01*
X18725Y20150D01*
Y20050D01*
X18675Y20000D01*
X18475D01*
X17895Y4505D02*
Y4705D01*
X17995Y4805D01*
X18095Y4705D01*
Y4505D01*
Y4655D01*
X17895D01*
X18195Y4805D02*
X18295D01*
X18245D01*
Y4505D01*
X18195D01*
X18295D01*
X18445D02*
Y4805D01*
X18645Y4505D01*
Y4805D01*
X18895Y4505D02*
Y4805D01*
X18745Y4655D01*
X18945D01*
X12075Y4505D02*
Y4705D01*
X12175Y4805D01*
X12275Y4705D01*
Y4505D01*
Y4655D01*
X12075D01*
X12375Y4805D02*
X12475D01*
X12425D01*
Y4505D01*
X12375D01*
X12475D01*
X12625D02*
Y4805D01*
X12825Y4505D01*
Y4805D01*
X12925Y4755D02*
X12975Y4805D01*
X13075D01*
X13125Y4755D01*
Y4705D01*
X13075Y4655D01*
X13025D01*
X13075D01*
X13125Y4605D01*
Y4555D01*
X13075Y4505D01*
X12975D01*
X12925Y4555D01*
X16550Y21550D02*
X16250D01*
Y21700D01*
X16300Y21750D01*
X16400D01*
X16450Y21700D01*
Y21550D01*
Y21650D02*
X16550Y21750D01*
Y21850D02*
Y21950D01*
Y21900D01*
X16250D01*
X16300Y21850D01*
Y22100D02*
X16250Y22150D01*
Y22250D01*
X16300Y22300D01*
X16350D01*
X16400Y22250D01*
Y22200D01*
Y22250D01*
X16450Y22300D01*
X16500D01*
X16550Y22250D01*
Y22150D01*
X16500Y22100D01*
X18025Y21500D02*
X17725D01*
Y21650D01*
X17775Y21700D01*
X17875D01*
X17925Y21650D01*
Y21500D01*
Y21600D02*
X18025Y21700D01*
Y21800D02*
Y21900D01*
Y21850D01*
X17725D01*
X17775Y21800D01*
X18025Y22250D02*
Y22050D01*
X17825Y22250D01*
X17775D01*
X17725Y22200D01*
Y22100D01*
X17775Y22050D01*
X20100Y18850D02*
X19800D01*
Y19000D01*
X19850Y19050D01*
X19950D01*
X20000Y19000D01*
Y18850D01*
X19800Y19150D02*
X20100D01*
X20000Y19250D01*
X20100Y19350D01*
X19800D01*
X20100Y19450D02*
X19800D01*
Y19600D01*
X19850Y19650D01*
X19950D01*
X20000Y19600D01*
Y19450D01*
Y19550D02*
X20100Y19650D01*
Y19750D02*
Y19850D01*
Y19800D01*
X19800D01*
X19850Y19750D01*
X17055Y15715D02*
X16955D01*
X17005D01*
Y15465D01*
X16955Y15415D01*
X16905D01*
X16855Y15465D01*
X17155Y15715D02*
X17355D01*
Y15665D01*
X17155Y15465D01*
Y15415D01*
X8013Y23350D02*
X7913D01*
X7963D01*
Y23100D01*
X7913Y23050D01*
X7863D01*
X7813Y23100D01*
X8112Y23050D02*
X8212D01*
X8162D01*
Y23350D01*
X8112Y23300D01*
X17300Y18850D02*
X17100D01*
X17000Y18950D01*
X17100Y19050D01*
X17300D01*
X17150D01*
Y18850D01*
X17050Y19350D02*
X17000Y19300D01*
Y19200D01*
X17050Y19150D01*
X17250D01*
X17300Y19200D01*
Y19300D01*
X17250Y19350D01*
X17150D01*
Y19250D01*
X17300Y19450D02*
X17000D01*
Y19600D01*
X17050Y19650D01*
X17150D01*
X17200Y19600D01*
Y19450D01*
X17000Y19900D02*
Y19800D01*
X17050Y19750D01*
X17250D01*
X17300Y19800D01*
Y19900D01*
X17250Y19950D01*
X17050D01*
X17000Y19900D01*
X17300Y20050D02*
Y20150D01*
Y20100D01*
X17000D01*
X17050Y20050D01*
X18450Y15122D02*
X18550D01*
X18500D01*
Y14822D01*
X18450D01*
X18550D01*
X18900D02*
X18700D01*
X18900Y15022D01*
Y15072D01*
X18850Y15122D01*
X18750D01*
X18700Y15072D01*
X19200D02*
X19150Y15122D01*
X19050D01*
X19000Y15072D01*
Y14872D01*
X19050Y14822D01*
X19150D01*
X19200Y14872D01*
X19600Y14822D02*
Y15022D01*
X19700Y15122D01*
X19800Y15022D01*
Y14822D01*
Y14972D01*
X19600D01*
X19900Y15122D02*
Y14822D01*
X20049D01*
X20099Y14872D01*
Y15072D01*
X20049Y15122D01*
X19900D01*
X20199D02*
Y14822D01*
X20349D01*
X20399Y14872D01*
Y15072D01*
X20349Y15122D01*
X20199D01*
X20499Y14822D02*
Y15122D01*
X20649D01*
X20699Y15072D01*
Y14972D01*
X20649Y14922D01*
X20499D01*
X20599D02*
X20699Y14822D01*
X20999Y15122D02*
X20799D01*
Y14822D01*
X20999D01*
X20799Y14972D02*
X20899D01*
X21299Y15072D02*
X21249Y15122D01*
X21149D01*
X21099Y15072D01*
Y15022D01*
X21149Y14972D01*
X21249D01*
X21299Y14922D01*
Y14872D01*
X21249Y14822D01*
X21149D01*
X21099Y14872D01*
X21599Y15072D02*
X21549Y15122D01*
X21449D01*
X21399Y15072D01*
Y15022D01*
X21449Y14972D01*
X21549D01*
X21599Y14922D01*
Y14872D01*
X21549Y14822D01*
X21449D01*
X21399Y14872D01*
X18600Y14372D02*
X18500D01*
X18450Y14322D01*
Y14122D01*
X18500Y14072D01*
X18600D01*
X18650Y14122D01*
Y14322D01*
X18600Y14372D01*
X18750Y14072D02*
Y14372D01*
X18900D01*
X18950Y14322D01*
Y14222D01*
X18900Y14172D01*
X18750D01*
X19250Y14372D02*
X19050D01*
Y14072D01*
X19250D01*
X19050Y14222D02*
X19150D01*
X19350Y14072D02*
Y14372D01*
X19550Y14072D01*
Y14372D01*
X19950Y14222D02*
X20149D01*
X20249Y14072D02*
X20399Y14222D01*
X20249Y14372D01*
X20799Y14322D02*
X20849Y14372D01*
X20949D01*
X20999Y14322D01*
Y14122D01*
X20949Y14072D01*
X20849D01*
X20799Y14122D01*
Y14322D01*
X21099Y14272D02*
X21299Y14072D01*
X21199Y14172D01*
X21299Y14272D01*
X21099Y14072D01*
X21549D02*
Y14372D01*
X21399Y14222D01*
X21599D01*
X21699Y14322D02*
X21749Y14372D01*
X21849D01*
X21899Y14322D01*
Y14122D01*
X21849Y14072D01*
X21749D01*
X21699Y14122D01*
Y14322D01*
X21999Y14372D02*
Y14072D01*
Y14222D01*
X22049Y14272D01*
X22149D01*
X22199Y14222D01*
Y14072D01*
X18650Y13722D02*
X18600Y13772D01*
X18500D01*
X18450Y13722D01*
Y13522D01*
X18500Y13472D01*
X18600D01*
X18650Y13522D01*
X18750Y13772D02*
Y13472D01*
X18950D01*
X19200Y13772D02*
X19100D01*
X19050Y13722D01*
Y13522D01*
X19100Y13472D01*
X19200D01*
X19250Y13522D01*
Y13722D01*
X19200Y13772D01*
X19550Y13722D02*
X19500Y13772D01*
X19400D01*
X19350Y13722D01*
Y13672D01*
X19400Y13622D01*
X19500D01*
X19550Y13572D01*
Y13522D01*
X19500Y13472D01*
X19400D01*
X19350Y13522D01*
X19850Y13772D02*
X19650D01*
Y13472D01*
X19850D01*
X19650Y13622D02*
X19750D01*
X19950Y13772D02*
Y13472D01*
X20099D01*
X20149Y13522D01*
Y13722D01*
X20099Y13772D01*
X19950D01*
X20549Y13622D02*
X20749D01*
X20849Y13472D02*
X20999Y13622D01*
X20849Y13772D01*
X21399Y13722D02*
X21449Y13772D01*
X21549D01*
X21599Y13722D01*
Y13522D01*
X21549Y13472D01*
X21449D01*
X21399Y13522D01*
Y13722D01*
X21699Y13672D02*
X21899Y13472D01*
X21799Y13572D01*
X21899Y13672D01*
X21699Y13472D01*
X22149D02*
Y13772D01*
X21999Y13622D01*
X22199D01*
X22499Y13472D02*
X22299D01*
X22499Y13672D01*
Y13722D01*
X22449Y13772D01*
X22349D01*
X22299Y13722D01*
X22599Y13772D02*
Y13472D01*
Y13622D01*
X22649Y13672D01*
X22749D01*
X22799Y13622D01*
Y13472D01*
X13350Y16500D02*
Y16800D01*
X13500D01*
X13550Y16750D01*
Y16650D01*
X13500Y16600D01*
X13350D01*
X13650Y16500D02*
Y16800D01*
X13800D01*
X13850Y16750D01*
Y16650D01*
X13800Y16600D01*
X13650D01*
X13750D02*
X13850Y16500D01*
X13950Y16800D02*
X14050D01*
X14000D01*
Y16500D01*
X13950D01*
X14050D01*
X14200D02*
Y16800D01*
X14300Y16700D01*
X14400Y16800D01*
Y16500D01*
X14500D02*
Y16700D01*
X14600Y16800D01*
X14700Y16700D01*
Y16500D01*
Y16650D01*
X14500D01*
X14800Y16500D02*
Y16800D01*
X14949D01*
X14999Y16750D01*
Y16650D01*
X14949Y16600D01*
X14800D01*
X14899D02*
X14999Y16500D01*
X15099Y16800D02*
Y16750D01*
X15199Y16650D01*
X15299Y16750D01*
Y16800D01*
X15199Y16650D02*
Y16500D01*
M02*
