M48
;Layer_Color=9474304
;FILE_FORMAT=2:5
INCH,LZ
;TYPE=PLATED
T1F00S00C0.00787
T2F00S00C0.01000
T3F00S00C0.02362
T4F00S00C0.04016
T5F00S00C0.04724
T6F00S00C0.06181
T7F00S00C0.07874
T8F00S00C0.09449
;TYPE=NON_PLATED
T9F00S00C0.12598
T10F00S00C0.12795
%
T01
X0111669Y0103669
Y0108
Y0112331
X0116
Y0108
Y0103669
X0120331
Y0108
Y0112331
T02
X0146Y0109
X01435Y01125
X0141Y0115
X01435Y01235
X01365
X0141Y01325
X0162Y0131
X01565Y01205
Y01125
X01575Y01745
X0161Y0177
X01645Y0185
X01835Y018
X0107Y01855
X01025Y0181
X00935Y01585
X00905Y01305
X0085Y013
X00715
X0073Y01705
X0117Y0137
X01175Y0122
X0121
X01175Y00935
X01025Y0094
X00985Y01075
T03
X010811Y0194
X0116063
X0120079Y0201
X0112047Y0201008
X0104095Y0201
X012811Y0201008
X0124094Y0194
X0132126
T04
X01735Y0136
Y0146
T05
X0007846Y0017
X0051153
X0066013
X010932
X012418
X0167487
X0182346
X0225654
T06
X0086102Y0197504
X0150118
T07
X00295Y0034716
X0087667
X0145833
X0204
T08
X00295Y0017
X0087667
X0145833
X0204
T09
X0019685Y0216535
X0216535
T10
X009311Y0211008
X014311
M30
