%FSLAX24Y24*%
%MOIN*%
G70*
G01*
G75*
G04 Layer_Color=32896*
%ADD10C,0.0079*%
%ADD11R,0.0300X0.0300*%
%ADD12R,0.0300X0.0300*%
%ADD13R,0.0492X0.0768*%
%ADD14R,0.0276X0.0079*%
%ADD15R,0.1437X0.1437*%
%ADD16R,0.0079X0.0276*%
%ADD17R,0.0236X0.0394*%
%ADD18R,0.1378X0.0846*%
%ADD19R,0.0433X0.0846*%
%ADD20R,0.0433X0.0846*%
%ADD21R,0.0433X0.0236*%
%ADD22R,0.0500X0.0400*%
%ADD23O,0.0512X0.0138*%
%ADD24R,0.0400X0.0500*%
%ADD25R,0.0787X0.0472*%
%ADD26C,0.0118*%
%ADD27R,0.1400X0.0900*%
%ADD28R,0.1140X0.0550*%
%ADD29R,0.1400X0.1550*%
%ADD30C,0.1969*%
%ADD31C,0.1181*%
%ADD32C,0.1575*%
%ADD33O,0.0709X0.0787*%
%ADD34C,0.0600*%
%ADD35O,0.0472X0.0551*%
%ADD36R,0.0709X0.0709*%
%ADD37C,0.0709*%
%ADD38C,0.0236*%
%ADD39C,0.0197*%
%ADD40C,0.0039*%
%ADD41C,0.0098*%
%ADD42C,0.0100*%
%ADD43C,0.0090*%
%ADD44C,0.0050*%
%ADD45R,0.0380X0.0380*%
%ADD46R,0.0380X0.0380*%
%ADD47R,0.0572X0.0848*%
%ADD48R,0.0356X0.0159*%
%ADD49R,0.1517X0.1517*%
%ADD50R,0.0159X0.0356*%
%ADD51R,0.0316X0.0474*%
%ADD52R,0.1458X0.0926*%
%ADD53R,0.0513X0.0926*%
%ADD54R,0.0513X0.0926*%
%ADD55R,0.0513X0.0316*%
%ADD56R,0.0580X0.0480*%
%ADD57O,0.0592X0.0218*%
%ADD58R,0.0480X0.0580*%
%ADD59R,0.0867X0.0552*%
%ADD60C,0.2049*%
%ADD61C,0.1261*%
%ADD62C,0.1655*%
%ADD63O,0.0789X0.0867*%
%ADD64C,0.0680*%
%ADD65O,0.0552X0.0631*%
%ADD66R,0.0789X0.0789*%
%ADD67C,0.0789*%
%ADD68C,0.0316*%
%ADD69C,0.0277*%
D43*
X10000Y8950D02*
X10150D01*
X10000Y8450D02*
X10150D01*
X10150D02*
Y8950D01*
X9100D02*
X9250D01*
X9100Y8450D02*
X9250D01*
X9100D02*
Y8950D01*
X12350Y12350D02*
Y12500D01*
X11850Y12350D02*
Y12500D01*
Y12350D02*
X12350D01*
Y13250D02*
Y13400D01*
X11850Y13250D02*
Y13400D01*
X12350D01*
X10000Y9600D02*
X10150D01*
X10000Y9100D02*
X10150D01*
X10150D02*
Y9600D01*
X9100D02*
X9250D01*
X9100Y9100D02*
X9250D01*
X9100D02*
Y9600D01*
X10800Y9100D02*
Y9250D01*
X11300Y9100D02*
Y9250D01*
X10800Y9250D02*
X11300D01*
X10800Y8200D02*
Y8350D01*
X11300Y8200D02*
Y8350D01*
X10800Y8200D02*
X11300D01*
X11450Y9100D02*
Y9250D01*
X11950Y9100D02*
Y9250D01*
X11450Y9250D02*
X11950D01*
X11450Y8200D02*
Y8350D01*
X11950Y8200D02*
Y8350D01*
X11450Y8200D02*
X11950D01*
X9600Y11000D02*
X9750D01*
X9600Y10500D02*
X9750D01*
X9750D02*
Y11000D01*
X8700D02*
X8850D01*
X8700Y10500D02*
X8850D01*
X8700D02*
Y11000D01*
X11650Y12350D02*
Y12500D01*
X11150Y12350D02*
Y12500D01*
Y12350D02*
X11650D01*
Y13250D02*
Y13400D01*
X11150Y13250D02*
Y13400D01*
X11650D01*
X10950Y12350D02*
Y12500D01*
X10450Y12350D02*
Y12500D01*
Y12350D02*
X10950D01*
Y13250D02*
Y13400D01*
X10450Y13250D02*
Y13400D01*
X10950D01*
X9600Y10400D02*
X9750D01*
X9600Y9900D02*
X9750D01*
X9750D02*
Y10400D01*
X8700D02*
X8850D01*
X8700Y9900D02*
X8850D01*
X8700D02*
Y10400D01*
D44*
X8300Y10250D02*
X8350Y10300D01*
X8450D01*
X8500Y10250D01*
Y10050D01*
X8450Y10000D01*
X8350D01*
X8300Y10050D01*
X8200Y10000D02*
X8100D01*
X8150D01*
Y10300D01*
X8200Y10250D01*
X7950Y10050D02*
X7900Y10000D01*
X7800D01*
X7750Y10050D01*
Y10250D01*
X7800Y10300D01*
X7900D01*
X7950Y10250D01*
Y10200D01*
X7900Y10150D01*
X7750D01*
X10750Y13850D02*
X10800Y13800D01*
Y13700D01*
X10750Y13650D01*
X10550D01*
X10500Y13700D01*
Y13800D01*
X10550Y13850D01*
X10500Y13950D02*
Y14050D01*
Y14000D01*
X10800D01*
X10750Y13950D01*
Y14200D02*
X10800Y14250D01*
Y14350D01*
X10750Y14400D01*
X10700D01*
X10650Y14350D01*
X10600Y14400D01*
X10550D01*
X10500Y14350D01*
Y14250D01*
X10550Y14200D01*
X10600D01*
X10650Y14250D01*
X10700Y14200D01*
X10750D01*
X10650Y14250D02*
Y14350D01*
X11500Y13850D02*
X11550Y13800D01*
Y13700D01*
X11500Y13650D01*
X11300D01*
X11250Y13700D01*
Y13800D01*
X11300Y13850D01*
X11250Y13950D02*
Y14050D01*
Y14000D01*
X11550D01*
X11500Y13950D01*
X11550Y14200D02*
Y14400D01*
X11500D01*
X11300Y14200D01*
X11250D01*
X8300Y10850D02*
X8350Y10900D01*
X8450D01*
X8500Y10850D01*
Y10650D01*
X8450Y10600D01*
X8350D01*
X8300Y10650D01*
X8200Y10600D02*
X8100D01*
X8150D01*
Y10900D01*
X8200Y10850D01*
X7750Y10900D02*
X7850Y10850D01*
X7950Y10750D01*
Y10650D01*
X7900Y10600D01*
X7800D01*
X7750Y10650D01*
Y10700D01*
X7800Y10750D01*
X7950D01*
X11850Y7400D02*
X11900Y7350D01*
Y7250D01*
X11850Y7200D01*
X11650D01*
X11600Y7250D01*
Y7350D01*
X11650Y7400D01*
X11600Y7500D02*
Y7600D01*
Y7550D01*
X11900D01*
X11850Y7500D01*
X11900Y7950D02*
Y7750D01*
X11750D01*
X11800Y7850D01*
Y7900D01*
X11750Y7950D01*
X11650D01*
X11600Y7900D01*
Y7800D01*
X11650Y7750D01*
X11150Y7400D02*
X11200Y7350D01*
Y7250D01*
X11150Y7200D01*
X10950D01*
X10900Y7250D01*
Y7350D01*
X10950Y7400D01*
X10900Y7500D02*
Y7600D01*
Y7550D01*
X11200D01*
X11150Y7500D01*
X10900Y7900D02*
X11200D01*
X11050Y7750D01*
Y7950D01*
X8700Y9400D02*
X8750Y9450D01*
X8850D01*
X8900Y9400D01*
Y9200D01*
X8850Y9150D01*
X8750D01*
X8700Y9200D01*
X8600Y9150D02*
X8500D01*
X8550D01*
Y9450D01*
X8600Y9400D01*
X8350Y9150D02*
X8250D01*
X8300D01*
Y9450D01*
X8350Y9400D01*
X12200Y13900D02*
X12250Y13850D01*
Y13750D01*
X12200Y13700D01*
X12000D01*
X11950Y13750D01*
Y13850D01*
X12000Y13900D01*
X12250Y14200D02*
Y14000D01*
X12100D01*
X12150Y14100D01*
Y14150D01*
X12100Y14200D01*
X12000D01*
X11950Y14150D01*
Y14050D01*
X12000Y14000D01*
X8650Y8750D02*
X8700Y8800D01*
X8800D01*
X8850Y8750D01*
Y8550D01*
X8800Y8500D01*
X8700D01*
X8650Y8550D01*
X8550Y8750D02*
X8500Y8800D01*
X8400D01*
X8350Y8750D01*
Y8700D01*
X8400Y8650D01*
X8450D01*
X8400D01*
X8350Y8600D01*
Y8550D01*
X8400Y8500D01*
X8500D01*
X8550Y8550D01*
M02*
