%FSLAX24Y24*%
%MOIN*%
G70*
G01*
G75*
%ADD10C,0.0079*%
%ADD11R,0.0300X0.0300*%
%ADD12R,0.0300X0.0300*%
%ADD13R,0.0492X0.0768*%
%ADD14R,0.0276X0.0079*%
%ADD15R,0.1437X0.1437*%
%ADD16R,0.0079X0.0276*%
%ADD17R,0.0236X0.0394*%
%ADD18R,0.1378X0.0846*%
%ADD19R,0.0433X0.0846*%
%ADD20R,0.0433X0.0846*%
%ADD21R,0.0433X0.0236*%
%ADD22R,0.0500X0.0400*%
%ADD23O,0.0512X0.0138*%
%ADD24R,0.0400X0.0500*%
%ADD25R,0.0787X0.0472*%
%ADD26C,0.0118*%
%ADD27R,0.1400X0.0900*%
%ADD28R,0.1140X0.0550*%
%ADD29R,0.1400X0.1550*%
%ADD30C,0.1969*%
%ADD31C,0.1181*%
%ADD32C,0.1575*%
%ADD33O,0.0709X0.0787*%
%ADD34C,0.0600*%
%ADD35O,0.0472X0.0551*%
%ADD36R,0.0709X0.0709*%
%ADD37C,0.0709*%
%ADD38C,0.0236*%
%ADD39C,0.0197*%
D11*
X16450Y19000D02*
D03*
Y19550D02*
D03*
X17875Y19000D02*
D03*
Y19550D02*
D03*
X19300Y19000D02*
D03*
Y19550D02*
D03*
X17875Y20500D02*
D03*
Y21050D02*
D03*
X16450Y20500D02*
D03*
Y21050D02*
D03*
X4300Y15350D02*
D03*
Y15900D02*
D03*
X5750Y13750D02*
D03*
Y14300D02*
D03*
X5000Y13750D02*
D03*
Y14300D02*
D03*
X19450Y10850D02*
D03*
Y11400D02*
D03*
X16100Y10700D02*
D03*
Y11250D02*
D03*
X19450Y10000D02*
D03*
Y9450D02*
D03*
X16100Y8900D02*
D03*
Y9450D02*
D03*
X2900Y4900D02*
D03*
Y5450D02*
D03*
X8800Y4900D02*
D03*
Y5450D02*
D03*
X14550Y4900D02*
D03*
Y5450D02*
D03*
X20300Y4900D02*
D03*
Y5450D02*
D03*
X19300Y20500D02*
D03*
Y21050D02*
D03*
X20200Y11400D02*
D03*
Y10850D02*
D03*
X8450Y10300D02*
D03*
Y10850D02*
D03*
X16800Y11800D02*
D03*
Y11250D02*
D03*
X20200Y9450D02*
D03*
Y10000D02*
D03*
X16800D02*
D03*
Y9450D02*
D03*
D12*
X3800Y6250D02*
D03*
X4350D02*
D03*
X9650D02*
D03*
X10200D02*
D03*
X13800D02*
D03*
X13250D02*
D03*
X11700Y8950D02*
D03*
X11150D02*
D03*
X19550Y6250D02*
D03*
X19000D02*
D03*
X6600Y9250D02*
D03*
X6050D02*
D03*
X6950Y11500D02*
D03*
X7500D02*
D03*
X15650Y13600D02*
D03*
X16200D02*
D03*
X14400Y12900D02*
D03*
X14950D02*
D03*
X14400Y13600D02*
D03*
X14950D02*
D03*
D13*
X3450Y16132D02*
D03*
Y15168D02*
D03*
D14*
X10596Y10898D02*
D03*
Y11095D02*
D03*
X12604Y11489D02*
D03*
Y11292D02*
D03*
Y11095D02*
D03*
Y10898D02*
D03*
Y10702D02*
D03*
Y10505D02*
D03*
Y10308D02*
D03*
Y10111D02*
D03*
X10596D02*
D03*
Y10308D02*
D03*
Y10505D02*
D03*
Y10702D02*
D03*
Y11292D02*
D03*
Y11489D02*
D03*
D15*
X11600Y10800D02*
D03*
D16*
X12289Y9796D02*
D03*
X12092D02*
D03*
X11895D02*
D03*
X11698D02*
D03*
X11502D02*
D03*
X11305D02*
D03*
X11108D02*
D03*
X10911D02*
D03*
Y11804D02*
D03*
X11108D02*
D03*
X11305D02*
D03*
X11502D02*
D03*
X11698D02*
D03*
X11895D02*
D03*
X12092D02*
D03*
X12289D02*
D03*
D17*
X5724Y14947D02*
D03*
X4976D02*
D03*
Y15853D02*
D03*
X5350D02*
D03*
X5724D02*
D03*
D18*
X5850Y19520D02*
D03*
D19*
X6756Y17080D02*
D03*
X4944D02*
D03*
D20*
X5850D02*
D03*
D21*
X17478Y11026D02*
D03*
Y11774D02*
D03*
X18422D02*
D03*
Y11400D02*
D03*
Y11026D02*
D03*
X17478Y9226D02*
D03*
Y9974D02*
D03*
X18422D02*
D03*
Y9600D02*
D03*
Y9226D02*
D03*
D22*
X8150Y14600D02*
D03*
X8150Y13800D02*
D03*
X7175Y14600D02*
D03*
X7175Y13800D02*
D03*
X9050Y14600D02*
D03*
X9050Y13800D02*
D03*
D23*
X17165Y18256D02*
D03*
Y18000D02*
D03*
Y17744D02*
D03*
X17835Y18256D02*
D03*
Y18000D02*
D03*
Y17744D02*
D03*
D24*
X2100Y6200D02*
D03*
X2900Y6200D02*
D03*
X8000Y6200D02*
D03*
X8800Y6200D02*
D03*
X15400Y6200D02*
D03*
X14600Y6200D02*
D03*
X21100Y6200D02*
D03*
X20300Y6200D02*
D03*
D25*
X7500Y9984D02*
D03*
X6043D02*
D03*
Y10850D02*
D03*
X7500D02*
D03*
D30*
X21654Y21654D02*
D03*
X1969D02*
D03*
D31*
X20400Y3472D02*
D03*
X14583D02*
D03*
X8767D02*
D03*
X2950D02*
D03*
D32*
X20400Y1700D02*
D03*
X14583D02*
D03*
X8767D02*
D03*
X2950D02*
D03*
D33*
X22565D02*
D03*
X18235D02*
D03*
X16749D02*
D03*
X12418D02*
D03*
X10932D02*
D03*
X6601D02*
D03*
X5115D02*
D03*
X785D02*
D03*
D34*
X8610Y19750D02*
D03*
X15012D02*
D03*
X9311Y21101D02*
D03*
X14311D02*
D03*
D35*
X10409Y20100D02*
D03*
X11205Y20101D02*
D03*
X12008Y20100D02*
D03*
X10811Y19400D02*
D03*
X11606D02*
D03*
X12409D02*
D03*
X12811Y20101D02*
D03*
X13213Y19400D02*
D03*
D36*
X17350Y13600D02*
D03*
D37*
Y14600D02*
D03*
M02*
